<svg width="332" height="43" viewBox="0 0 332 43" fill="none" xmlns="http://www.w3.org/2000/svg">
<path d="M83.909 30.6164L70.1836 25.5006L83.909 20.3848L89.0002 25.5006L83.909 30.6164Z" fill="#A49380"/>
<path d="M0.296844 25.3848L3.18359 28.2715L6.07034 25.3848L3.18359 22.498L0.296844 25.3848ZM87.1836 24.8848L3.18359 24.8848L3.18359 25.8848L87.1836 25.8848L87.1836 24.8848Z" fill="#A49380"/>
<path d="M120.598 25.872C120.678 25.872 120.726 25.904 120.758 25.984L122.038 29.376C122.118 29.568 122.006 29.712 121.894 29.744C121.734 29.76 121.67 29.792 121.67 29.888C121.67 30 121.862 30 122.15 30.016C123.43 30.048 124.598 30.048 125.174 30.048C125.766 30.048 125.91 30.016 125.91 29.888C125.91 29.776 125.83 29.76 125.702 29.76C125.51 29.76 125.27 29.744 125.03 29.696C124.694 29.616 124.23 29.392 123.622 27.952C122.598 25.52 120.038 18.992 119.654 18.112C119.494 17.744 119.398 17.6 119.254 17.6C119.094 17.6 118.998 17.776 118.806 18.24L114.79 28.288C114.47 29.088 114.166 29.632 113.43 29.728C113.302 29.744 113.078 29.76 112.934 29.76C112.806 29.76 112.742 29.792 112.742 29.888C112.742 30.016 112.838 30.048 113.046 30.048C113.878 30.048 114.758 30 114.934 30C115.43 30 116.118 30.048 116.63 30.048C116.806 30.048 116.902 30.016 116.902 29.888C116.902 29.792 116.854 29.76 116.662 29.76H116.422C115.926 29.76 115.782 29.552 115.782 29.264C115.782 29.072 115.862 28.688 116.022 28.288L116.886 26C116.918 25.904 116.95 25.872 117.03 25.872H120.598ZM117.35 25.072C117.286 25.072 117.27 25.024 117.286 24.96L118.758 21.024C118.774 20.96 118.806 20.88 118.854 20.88C118.902 20.88 118.918 20.96 118.934 21.024L120.374 24.976C120.39 25.024 120.374 25.072 120.294 25.072H117.35ZM127.273 26.096C127.273 27.344 127.273 28.416 127.209 28.992C127.161 29.392 127.081 29.648 126.793 29.712C126.665 29.744 126.505 29.76 126.297 29.76C126.121 29.76 126.073 29.84 126.073 29.904C126.073 30 126.169 30.048 126.345 30.048C126.905 30.048 127.801 30 128.121 30C128.489 30 129.481 30.048 130.425 30.048C130.569 30.048 130.681 30 130.681 29.904C130.681 29.84 130.617 29.76 130.457 29.76C130.249 29.76 129.945 29.744 129.737 29.712C129.321 29.648 129.241 29.392 129.193 29.008C129.129 28.416 129.129 27.344 129.129 26.096V20.704C129.129 20.56 129.161 20.48 129.241 20.448C129.369 20.4 129.641 20.384 129.849 20.384C130.169 20.384 130.745 20.448 131.257 20.896C132.041 21.568 132.089 22.464 132.089 22.912C132.089 24.304 130.985 25.12 130.201 25.12C129.897 25.12 129.737 25.184 129.737 25.296C129.737 25.392 129.833 25.44 129.913 25.44C129.977 25.456 130.265 25.456 130.329 25.456C132.329 25.456 133.865 24.08 133.865 22.16C133.865 21.424 133.465 20.816 133.161 20.528C132.937 20.336 132.297 19.76 130.537 19.76C129.897 19.76 128.777 19.792 128.201 19.792C127.801 19.792 126.905 19.76 126.169 19.76C125.961 19.76 125.849 19.792 125.849 19.888C125.849 19.984 125.945 20.032 126.089 20.032C126.297 20.032 126.537 20.048 126.649 20.08C127.097 20.208 127.225 20.352 127.257 20.816C127.273 21.248 127.273 21.632 127.273 23.696V26.096ZM136.804 26.096C136.804 27.344 136.804 28.416 136.74 28.992C136.692 29.392 136.612 29.648 136.324 29.712C136.196 29.744 136.036 29.76 135.828 29.76C135.652 29.76 135.604 29.84 135.604 29.904C135.604 30 135.7 30.048 135.876 30.048C136.436 30.048 137.332 30 137.652 30C138.02 30 139.012 30.048 139.956 30.048C140.1 30.048 140.212 30 140.212 29.904C140.212 29.84 140.148 29.76 139.988 29.76C139.78 29.76 139.476 29.744 139.268 29.712C138.852 29.648 138.772 29.392 138.724 29.008C138.66 28.416 138.66 27.344 138.66 26.096V20.704C138.66 20.56 138.692 20.48 138.772 20.448C138.9 20.4 139.172 20.384 139.38 20.384C139.7 20.384 140.276 20.448 140.788 20.896C141.572 21.568 141.62 22.464 141.62 22.912C141.62 24.304 140.516 25.12 139.732 25.12C139.428 25.12 139.268 25.184 139.268 25.296C139.268 25.392 139.364 25.44 139.444 25.44C139.508 25.456 139.796 25.456 139.86 25.456C141.86 25.456 143.396 24.08 143.396 22.16C143.396 21.424 142.996 20.816 142.692 20.528C142.468 20.336 141.828 19.76 140.068 19.76C139.428 19.76 138.308 19.792 137.732 19.792C137.332 19.792 136.436 19.76 135.7 19.76C135.492 19.76 135.38 19.792 135.38 19.888C135.38 19.984 135.476 20.032 135.62 20.032C135.828 20.032 136.068 20.048 136.18 20.08C136.628 20.208 136.756 20.352 136.788 20.816C136.804 21.248 136.804 21.632 136.804 23.696V26.096ZM146.335 26.096C146.335 27.344 146.335 28.416 146.271 28.992C146.223 29.392 146.143 29.648 145.855 29.712C145.727 29.744 145.567 29.76 145.359 29.76C145.183 29.76 145.135 29.84 145.135 29.904C145.135 30 145.231 30.048 145.407 30.048C145.695 30.048 146.047 30.032 146.383 30.016C146.719 30.016 147.023 30 147.183 30C147.599 30 148.127 30.016 148.815 30.032C149.503 30.064 150.351 30.08 151.407 30.08C151.935 30.08 152.063 30.08 152.159 29.728C152.239 29.456 152.351 28.528 152.351 28.224C152.351 28.08 152.335 27.904 152.223 27.904C152.127 27.904 152.095 27.968 152.063 28.112C151.967 28.672 151.807 28.96 151.455 29.12C151.087 29.28 150.495 29.296 150.127 29.296C148.687 29.296 148.255 29.088 148.223 28.16C148.207 27.76 148.223 26.608 148.223 26.144V25.056C148.223 24.976 148.239 24.912 148.303 24.912C148.655 24.912 150.255 24.944 150.511 24.976C151.039 25.024 151.215 25.232 151.295 25.504C151.327 25.68 151.327 25.856 151.343 26C151.343 26.064 151.375 26.112 151.471 26.112C151.599 26.112 151.615 25.92 151.615 25.808C151.615 25.712 151.647 25.168 151.679 24.896C151.759 24.208 151.791 23.984 151.791 23.904C151.791 23.824 151.743 23.76 151.679 23.76C151.615 23.76 151.567 23.84 151.455 23.936C151.327 24.08 151.119 24.112 150.783 24.144C150.463 24.176 148.639 24.176 148.319 24.176C148.239 24.176 148.223 24.112 148.223 24.032V20.672C148.223 20.592 148.255 20.544 148.319 20.544C148.607 20.544 150.287 20.576 150.527 20.608C151.231 20.672 151.343 20.864 151.455 21.104C151.535 21.264 151.551 21.504 151.551 21.6C151.551 21.712 151.567 21.776 151.663 21.776C151.775 21.776 151.807 21.616 151.823 21.552C151.855 21.392 151.887 20.8 151.903 20.656C151.935 20.032 152.015 19.872 152.015 19.776C152.015 19.712 151.999 19.648 151.919 19.648C151.855 19.648 151.775 19.696 151.695 19.712C151.583 19.728 151.359 19.776 151.103 19.792C150.831 19.808 147.711 19.792 147.263 19.792C146.863 19.792 145.967 19.76 145.231 19.76C145.023 19.76 144.911 19.792 144.911 19.888C144.911 19.984 145.007 20.032 145.151 20.032C145.359 20.032 145.599 20.048 145.711 20.08C146.159 20.208 146.287 20.352 146.319 20.816C146.335 21.248 146.335 21.632 146.335 23.696V26.096ZM159.474 26.624C159.538 26.624 159.586 26.64 159.618 26.72L160.706 29.456C160.77 29.616 160.674 29.744 160.578 29.76C160.434 29.776 160.402 29.824 160.402 29.904C160.402 30 160.562 30 160.818 30.016C162.002 30.048 163.026 30.048 163.522 30.048C164.05 30.048 164.13 30.016 164.13 29.904C164.13 29.808 164.066 29.76 163.938 29.76C163.778 29.76 163.618 29.744 163.41 29.712C163.154 29.664 162.754 29.488 162.21 28.256C161.314 26.192 158.962 20.624 158.626 19.872C158.482 19.568 158.418 19.44 158.21 19.44C158.066 19.44 157.954 19.6 157.794 19.984L154.114 28.544C153.826 29.232 153.586 29.648 152.946 29.744C152.818 29.744 152.658 29.76 152.53 29.76C152.418 29.76 152.37 29.824 152.37 29.904C152.37 30.016 152.45 30.048 152.626 30.048C153.362 30.048 154.114 30 154.258 30C154.706 30 155.362 30.048 155.826 30.048C155.97 30.048 156.05 30.016 156.05 29.904C156.05 29.824 156.018 29.76 155.842 29.76H155.634C155.202 29.76 155.074 29.616 155.074 29.376C155.074 29.216 155.138 28.88 155.282 28.544L156.034 26.72C156.066 26.64 156.082 26.624 156.162 26.624H159.474ZM156.45 25.872C156.402 25.872 156.37 25.84 156.402 25.776L157.762 22.336C157.778 22.288 157.794 22.208 157.842 22.208C157.874 22.208 157.89 22.288 157.906 22.336L159.234 25.792C159.25 25.84 159.234 25.872 159.17 25.872H156.45ZM165.663 26.096C165.663 27.344 165.663 28.416 165.599 28.992C165.551 29.392 165.471 29.648 165.183 29.712C165.055 29.744 164.895 29.76 164.687 29.76C164.511 29.76 164.463 29.84 164.463 29.904C164.463 30 164.559 30.048 164.735 30.048C165.295 30.048 166.191 30 166.463 30C166.671 30 167.839 30.048 168.655 30.048C168.831 30.048 168.943 30 168.943 29.904C168.943 29.84 168.879 29.76 168.767 29.76C168.591 29.76 168.287 29.744 168.079 29.712C167.647 29.648 167.583 29.392 167.535 28.992C167.471 28.416 167.455 27.36 167.455 26.096V25.904C167.455 25.824 167.503 25.792 167.567 25.792L168.831 25.824C168.927 25.824 169.007 25.84 169.087 25.92C169.263 26.128 169.855 27.04 170.415 27.776C171.199 28.832 171.727 29.472 172.335 29.776C172.703 29.968 173.087 30.048 173.871 30.048H175.215C175.391 30.048 175.487 30.016 175.487 29.904C175.487 29.84 175.423 29.76 175.311 29.76C175.199 29.76 175.119 29.76 174.975 29.728C174.751 29.68 174.255 29.616 173.471 28.832C172.623 27.984 171.631 26.752 170.383 25.216C171.759 24.112 172.335 23.216 172.335 22.208C172.335 21.296 171.743 20.608 171.343 20.336C170.591 19.84 169.567 19.76 168.671 19.76C168.239 19.76 166.959 19.792 166.479 19.792C166.191 19.792 165.295 19.76 164.559 19.76C164.351 19.76 164.239 19.792 164.239 19.888C164.239 19.984 164.335 20.032 164.479 20.032C164.687 20.032 164.927 20.048 165.039 20.08C165.487 20.208 165.615 20.352 165.647 20.816C165.663 21.248 165.663 21.632 165.663 23.696V26.096ZM167.455 20.704C167.455 20.592 167.487 20.544 167.583 20.512C167.727 20.48 168.063 20.464 168.415 20.464C169.247 20.464 170.559 20.96 170.559 22.88C170.559 24 170.079 24.592 169.647 24.896C169.407 25.072 169.215 25.12 168.655 25.12C168.303 25.12 167.887 25.088 167.583 24.992C167.487 24.944 167.455 24.896 167.455 24.752V20.704ZM180.552 26.624C180.616 26.624 180.664 26.64 180.696 26.72L181.784 29.456C181.848 29.616 181.752 29.744 181.656 29.76C181.512 29.776 181.48 29.824 181.48 29.904C181.48 30 181.64 30 181.896 30.016C183.08 30.048 184.104 30.048 184.6 30.048C185.128 30.048 185.208 30.016 185.208 29.904C185.208 29.808 185.144 29.76 185.016 29.76C184.856 29.76 184.696 29.744 184.488 29.712C184.232 29.664 183.832 29.488 183.288 28.256C182.392 26.192 180.04 20.624 179.704 19.872C179.56 19.568 179.496 19.44 179.288 19.44C179.144 19.44 179.032 19.6 178.872 19.984L175.192 28.544C174.904 29.232 174.664 29.648 174.024 29.744C173.896 29.744 173.736 29.76 173.608 29.76C173.496 29.76 173.448 29.824 173.448 29.904C173.448 30.016 173.528 30.048 173.704 30.048C174.44 30.048 175.192 30 175.336 30C175.784 30 176.44 30.048 176.904 30.048C177.048 30.048 177.128 30.016 177.128 29.904C177.128 29.824 177.096 29.76 176.92 29.76H176.712C176.28 29.76 176.152 29.616 176.152 29.376C176.152 29.216 176.216 28.88 176.36 28.544L177.112 26.72C177.144 26.64 177.16 26.624 177.24 26.624H180.552ZM177.528 25.872C177.48 25.872 177.448 25.84 177.48 25.776L178.84 22.336C178.856 22.288 178.872 22.208 178.92 22.208C178.952 22.208 178.968 22.288 178.984 22.336L180.312 25.792C180.328 25.84 180.312 25.872 180.248 25.872H177.528ZM187.462 22.64H187.51C187.782 22.88 189.27 24.528 190.806 26C192.278 27.424 194.038 29.104 194.918 29.92C195.062 30.064 195.254 30.208 195.494 30.208C195.606 30.208 195.718 30.08 195.718 29.776L195.878 21.2C195.894 20.432 196.006 20.192 196.39 20.08C196.566 20.032 196.678 20.032 196.822 20.032C196.982 20.032 197.062 19.968 197.062 19.888C197.062 19.776 196.934 19.76 196.742 19.76C196.054 19.76 195.526 19.792 195.366 19.792C195.062 19.792 194.31 19.76 193.574 19.76C193.366 19.76 193.222 19.776 193.222 19.888C193.222 19.968 193.27 20.032 193.446 20.032C193.638 20.032 193.974 20.032 194.182 20.112C194.518 20.24 194.646 20.48 194.662 21.312L194.806 27.36H194.742C194.534 27.168 192.661 25.248 191.702 24.304C189.654 22.304 187.542 20.144 187.366 19.968C187.126 19.728 186.934 19.52 186.758 19.52C186.614 19.52 186.518 19.712 186.518 19.984L186.39 28.048C186.374 29.232 186.326 29.6 185.958 29.696C185.766 29.744 185.51 29.76 185.318 29.76C185.19 29.76 185.094 29.824 185.094 29.904C185.094 30.032 185.222 30.048 185.414 30.048C186.134 30.048 186.806 30 186.934 30C187.19 30 187.846 30.048 188.758 30.048C188.95 30.048 189.078 30.016 189.078 29.904C189.078 29.824 188.998 29.76 188.838 29.76C188.614 29.76 188.342 29.744 188.102 29.664C187.83 29.568 187.654 29.248 187.622 28.192L187.462 22.64ZM205.094 30.224C206.006 30.224 207.078 30.144 207.638 29.92C207.878 29.824 207.942 29.76 208.006 29.52C208.15 29.056 208.31 27.872 208.31 27.712C208.31 27.6 208.246 27.472 208.15 27.472C208.038 27.472 208.006 27.536 207.974 27.744C207.926 28 207.734 28.384 207.494 28.656C206.934 29.28 206.246 29.376 204.998 29.376C203.11 29.376 200.614 27.84 200.614 24.608C200.614 23.28 200.87 21.968 201.91 21.072C202.55 20.528 203.334 20.304 204.566 20.304C205.862 20.304 206.806 20.64 207.286 21.104C207.638 21.456 207.814 21.936 207.83 22.368C207.83 22.544 207.862 22.656 207.974 22.656C208.102 22.656 208.15 22.512 208.166 22.32C208.182 22.048 208.182 21.296 208.214 20.848C208.246 20.368 208.278 20.208 208.278 20.096C208.278 20.016 208.23 19.952 208.07 19.936C207.654 19.888 207.19 19.792 206.662 19.712C206.022 19.632 205.494 19.568 204.614 19.568C202.518 19.568 201.174 20.112 200.15 21.008C198.806 22.208 198.502 23.808 198.502 24.736C198.502 26.048 198.87 27.584 200.262 28.752C201.542 29.824 203.174 30.224 205.094 30.224ZM211.32 26.096C211.32 27.344 211.32 28.416 211.256 28.992C211.208 29.392 211.128 29.648 210.84 29.712C210.712 29.744 210.552 29.76 210.344 29.76C210.168 29.76 210.12 29.84 210.12 29.904C210.12 30 210.216 30.048 210.392 30.048C210.68 30.048 211.032 30.032 211.368 30.016C211.704 30.016 212.008 30 212.168 30C212.584 30 213.112 30.016 213.8 30.032C214.488 30.064 215.336 30.08 216.392 30.08C216.92 30.08 217.048 30.08 217.144 29.728C217.224 29.456 217.336 28.528 217.336 28.224C217.336 28.08 217.32 27.904 217.208 27.904C217.112 27.904 217.08 27.968 217.048 28.112C216.952 28.672 216.792 28.96 216.44 29.12C216.072 29.28 215.48 29.296 215.112 29.296C213.672 29.296 213.24 29.088 213.208 28.16C213.192 27.76 213.208 26.608 213.208 26.144V25.056C213.208 24.976 213.224 24.912 213.288 24.912C213.64 24.912 215.24 24.944 215.496 24.976C216.024 25.024 216.2 25.232 216.28 25.504C216.312 25.68 216.312 25.856 216.328 26C216.328 26.064 216.36 26.112 216.456 26.112C216.584 26.112 216.6 25.92 216.6 25.808C216.6 25.712 216.632 25.168 216.664 24.896C216.744 24.208 216.776 23.984 216.776 23.904C216.776 23.824 216.728 23.76 216.664 23.76C216.6 23.76 216.552 23.84 216.44 23.936C216.312 24.08 216.104 24.112 215.768 24.144C215.448 24.176 213.624 24.176 213.304 24.176C213.224 24.176 213.208 24.112 213.208 24.032V20.672C213.208 20.592 213.24 20.544 213.304 20.544C213.592 20.544 215.272 20.576 215.512 20.608C216.216 20.672 216.328 20.864 216.44 21.104C216.52 21.264 216.536 21.504 216.536 21.6C216.536 21.712 216.552 21.776 216.648 21.776C216.76 21.776 216.792 21.616 216.808 21.552C216.84 21.392 216.872 20.8 216.888 20.656C216.92 20.032 217 19.872 217 19.776C217 19.712 216.984 19.648 216.904 19.648C216.84 19.648 216.76 19.696 216.68 19.712C216.568 19.728 216.344 19.776 216.088 19.792C215.816 19.808 212.696 19.792 212.248 19.792C211.848 19.792 210.952 19.76 210.216 19.76C210.008 19.76 209.896 19.792 209.896 19.888C209.896 19.984 209.992 20.032 210.136 20.032C210.344 20.032 210.584 20.048 210.696 20.08C211.144 20.208 211.272 20.352 211.304 20.816C211.32 21.248 211.32 21.632 211.32 23.696V26.096Z" fill="#A49380"/>
<path d="M248.091 20.3836L261.816 25.4994L248.091 30.6152L243 25.4994L248.091 20.3836Z" fill="#A49380"/>
<path d="M331.703 25.6152L328.816 22.7285L325.93 25.6152L328.816 28.502L331.703 25.6152ZM244.816 26.1152L328.816 26.1152L328.816 25.1152L244.816 25.1152L244.816 26.1152Z" fill="#A49380"/>
</svg>
