<svg width="20" height="20" viewBox="0 0 20 20" fill="none" xmlns="http://www.w3.org/2000/svg">
<path d="M9.44201 0H0V9.44201H9.44201V0Z" fill="#433B36"/>
<path d="M14.2946 0.959817H10.558V4.69647H14.2946V0.959817Z" fill="#433B36"/>
<path d="M14.2946 5.7589H10.558V9.49555H14.2946V5.7589Z" fill="#433B36"/>
<path d="M18.9119 0.959817H15.1752V4.69647H18.9119V0.959817Z" fill="#433B36"/>
<path d="M18.9119 5.7589H15.1752V9.49555H18.9119V5.7589Z" fill="#433B36"/>
<path d="M20 10.558H10.558V20H20V10.558Z" fill="#433B36"/>
<path d="M9.31371 14.9671H5.57706V18.7038H9.31371V14.9671Z" fill="#433B36"/>
<path d="M9.31371 10.558H5.57706V14.2946H9.31371V10.558Z" fill="#433B36"/>
<path d="M4.69647 14.9671H0.959817V18.7038H4.69647V14.9671Z" fill="#433B36"/>
<path d="M4.69647 10.558H0.959817V14.2946H4.69647V10.558Z" fill="#433B36"/>
</svg>
