<svg width="332" height="43" viewBox="0 0 332 43" fill="none" xmlns="http://www.w3.org/2000/svg">
<path d="M83.909 30.6164L70.1836 25.5006L83.909 20.3848L89.0002 25.5006L83.909 30.6164Z" fill="#A49380"/>
<path d="M0.296844 25.3848L3.18359 28.2715L6.07034 25.3848L3.18359 22.498L0.296844 25.3848ZM87.1836 24.8848L3.18359 24.8848L3.18359 25.8848L87.1836 25.8848L87.1836 24.8848Z" fill="#A49380"/>
<path d="M119.39 25.408C119.39 26.88 119.39 28.144 119.31 28.816C119.246 29.28 119.166 29.632 118.846 29.696C118.702 29.728 118.51 29.76 118.27 29.76C118.078 29.76 118.014 29.808 118.014 29.888C118.014 30 118.126 30.048 118.334 30.048C118.654 30.048 119.07 30.016 119.438 30.016C119.822 30 120.174 30 120.35 30C120.83 30 121.326 30.016 122.014 30.048C122.702 30.064 123.582 30.096 124.782 30.096C125.39 30.096 125.534 30.096 125.646 29.68C125.726 29.36 125.854 28.272 125.854 27.904C125.854 27.744 125.854 27.616 125.726 27.616C125.614 27.616 125.582 27.68 125.55 27.856C125.438 28.512 125.246 28.848 124.83 29.04C124.414 29.232 123.742 29.232 123.326 29.232C121.694 29.232 121.438 28.992 121.406 27.888C121.39 27.424 121.406 25.952 121.406 25.408V24.144C121.406 24.048 121.422 23.984 121.502 23.984C121.886 23.984 123.47 24 123.774 24.032C124.366 24.096 124.59 24.336 124.67 24.656C124.718 24.864 124.718 25.072 124.734 25.232C124.734 25.312 124.766 25.376 124.878 25.376C125.022 25.376 125.022 25.2 125.022 25.072C125.022 24.96 125.07 24.32 125.086 24C125.15 23.184 125.214 22.928 125.214 22.832C125.214 22.736 125.166 22.704 125.102 22.704C125.022 22.704 124.958 22.784 124.846 22.912C124.702 23.072 124.462 23.12 124.078 23.152C123.71 23.184 121.87 23.184 121.518 23.184C121.422 23.184 121.406 23.12 121.406 23.008V18.96C121.406 18.848 121.438 18.8 121.518 18.8C121.838 18.8 123.518 18.832 123.79 18.864C124.59 18.96 124.75 19.152 124.862 19.44C124.942 19.632 124.958 19.904 124.958 20.016C124.958 20.16 124.99 20.24 125.102 20.24C125.214 20.24 125.246 20.144 125.262 20.064C125.294 19.872 125.326 19.168 125.342 19.008C125.39 18.272 125.47 18.08 125.47 17.968C125.47 17.888 125.454 17.824 125.374 17.824C125.294 17.824 125.198 17.872 125.118 17.888C124.99 17.92 124.734 17.952 124.43 17.984C124.126 18 120.942 18 120.43 18C120.206 18 119.838 17.984 119.422 17.968C119.022 17.968 118.558 17.952 118.126 17.952C117.886 17.952 117.774 17.984 117.774 18.096C117.774 18.208 117.87 18.24 118.046 18.24C118.27 18.24 118.542 18.256 118.67 18.288C119.198 18.4 119.326 18.656 119.358 19.2C119.39 19.712 119.39 20.16 119.39 22.592V25.408ZM137.803 31.184C140.123 32.56 141.611 33.024 143.771 33.024C145.803 33.024 147.435 32.352 148.283 31.952C148.379 31.904 148.459 31.856 148.459 31.776C148.459 31.712 148.395 31.648 148.331 31.648C148.267 31.648 148.203 31.68 148.123 31.712C147.147 32.08 146.107 32.144 145.371 32.144C144.411 32.144 142.571 31.968 139.611 30.528L136.843 29.184C137.691 28.608 139.259 27.12 139.259 24.72C139.259 21.536 136.859 19.568 133.483 19.568C129.355 19.568 127.643 22.608 127.643 24.832C127.643 27.28 129.259 30.224 133.387 30.224C134.123 30.224 135.099 30.08 135.611 29.888L137.803 31.184ZM133.963 29.488C131.691 29.488 129.739 27.744 129.739 24.512C129.739 21.408 131.323 20.288 133.163 20.288C135.099 20.288 137.147 21.84 137.147 25.088C137.147 29.024 135.099 29.488 133.963 29.488ZM141.79 25.696C141.79 27.664 142.35 28.672 143.07 29.296C144.094 30.192 145.55 30.224 146.286 30.224C147.198 30.224 148.27 30.08 149.262 29.248C150.446 28.272 150.606 26.672 150.606 25.152V23.696C150.606 21.632 150.622 21.248 150.638 20.816C150.67 20.336 150.766 20.144 151.15 20.08C151.326 20.048 151.406 20.032 151.566 20.032C151.726 20.032 151.806 19.984 151.806 19.888C151.806 19.792 151.71 19.76 151.518 19.76C150.974 19.76 150.03 19.792 149.87 19.792C149.854 19.792 148.91 19.76 148.19 19.76C147.998 19.76 147.902 19.792 147.902 19.888C147.902 19.984 147.982 20.032 148.142 20.032C148.302 20.032 148.542 20.048 148.654 20.08C149.102 20.208 149.214 20.352 149.246 20.816C149.262 21.248 149.278 21.632 149.278 23.696V25.408C149.278 26.8 149.246 27.984 148.462 28.72C147.902 29.264 147.182 29.44 146.574 29.44C146.094 29.44 145.422 29.392 144.798 28.896C144.11 28.352 143.726 27.584 143.726 25.6V23.696C143.726 21.632 143.726 21.248 143.758 20.816C143.79 20.336 143.902 20.144 144.27 20.08C144.446 20.048 144.526 20.032 144.686 20.032C144.83 20.032 144.91 19.984 144.91 19.888C144.91 19.792 144.814 19.76 144.606 19.76C144.094 19.76 143.15 19.792 142.798 19.792C142.382 19.792 141.438 19.76 140.686 19.76C140.478 19.76 140.382 19.792 140.382 19.888C140.382 19.984 140.462 20.032 140.622 20.032C140.814 20.032 141.054 20.048 141.166 20.08C141.614 20.208 141.742 20.336 141.774 20.816C141.806 21.248 141.79 21.632 141.79 23.696V25.696ZM154.242 26.096C154.242 27.408 154.242 28.496 154.178 29.056C154.13 29.456 154.049 29.648 153.762 29.712C153.634 29.744 153.474 29.76 153.266 29.76C153.09 29.76 153.042 29.84 153.042 29.904C153.042 30 153.138 30.048 153.314 30.048C153.874 30.048 154.834 30 155.154 30C155.538 30 156.498 30.048 157.426 30.048C157.586 30.048 157.698 30 157.698 29.904C157.698 29.84 157.634 29.76 157.474 29.76C157.266 29.76 156.946 29.744 156.754 29.712C156.338 29.648 156.242 29.44 156.194 29.072C156.13 28.496 156.13 27.408 156.13 26.096V23.696C156.13 21.632 156.13 21.248 156.161 20.816C156.194 20.336 156.306 20.144 156.69 20.08C156.85 20.048 156.962 20.032 157.106 20.032C157.25 20.032 157.33 20 157.33 19.872C157.33 19.792 157.218 19.76 157.042 19.76C156.498 19.76 155.586 19.792 155.234 19.792C154.834 19.792 153.874 19.76 153.346 19.76C153.122 19.76 153.01 19.792 153.01 19.872C153.01 20 153.09 20.032 153.234 20.032C153.41 20.032 153.586 20.048 153.746 20.096C154.049 20.192 154.194 20.352 154.226 20.816C154.242 21.248 154.242 21.632 154.242 23.696V26.096ZM160.757 26.096C160.757 27.344 160.757 28.416 160.693 28.992C160.645 29.392 160.565 29.648 160.277 29.712C160.149 29.744 159.989 29.76 159.781 29.76C159.605 29.76 159.557 29.84 159.557 29.904C159.557 30 159.653 30.048 159.829 30.048C160.389 30.048 161.285 30 161.605 30C161.973 30 162.965 30.048 163.909 30.048C164.053 30.048 164.165 30 164.165 29.904C164.165 29.84 164.101 29.76 163.941 29.76C163.733 29.76 163.429 29.744 163.221 29.712C162.805 29.648 162.725 29.392 162.677 29.008C162.613 28.416 162.613 27.344 162.613 26.096V20.704C162.613 20.56 162.645 20.48 162.725 20.448C162.853 20.4 163.125 20.384 163.333 20.384C163.653 20.384 164.229 20.448 164.741 20.896C165.525 21.568 165.573 22.464 165.573 22.912C165.573 24.304 164.469 25.12 163.685 25.12C163.381 25.12 163.221 25.184 163.221 25.296C163.221 25.392 163.317 25.44 163.397 25.44C163.461 25.456 163.749 25.456 163.813 25.456C165.813 25.456 167.349 24.08 167.349 22.16C167.349 21.424 166.949 20.816 166.645 20.528C166.421 20.336 165.781 19.76 164.021 19.76C163.381 19.76 162.261 19.792 161.685 19.792C161.285 19.792 160.389 19.76 159.653 19.76C159.445 19.76 159.333 19.792 159.333 19.888C159.333 19.984 159.429 20.032 159.573 20.032C159.781 20.032 160.021 20.048 160.133 20.08C160.581 20.208 160.709 20.352 160.741 20.816C160.757 21.248 160.757 21.632 160.757 23.696V26.096ZM169.424 28.688C169.36 29.136 169.232 29.68 168.848 29.728C168.624 29.76 168.528 29.76 168.416 29.76C168.272 29.76 168.192 29.824 168.192 29.888C168.192 30.016 168.304 30.048 168.448 30.048C168.896 30.048 169.568 30 169.84 30C170.096 30 170.736 30.048 171.328 30.048C171.536 30.048 171.664 30.016 171.664 29.888C171.664 29.824 171.568 29.76 171.44 29.76C171.312 29.76 171.184 29.744 170.944 29.696C170.704 29.648 170.512 29.552 170.512 29.296C170.512 29.072 170.528 28.896 170.56 28.656L171.232 23.344H171.28C171.744 24.288 172.576 26 172.688 26.256C172.848 26.64 173.968 28.72 174.304 29.344C174.528 29.76 174.688 30.032 174.864 30.032C175.024 30.032 175.104 29.904 175.424 29.264L178.448 23.184H178.496L179.28 29.072C179.328 29.456 179.296 29.616 179.216 29.648C179.12 29.68 179.056 29.728 179.056 29.792C179.056 29.872 179.136 29.936 179.472 29.952C180.032 29.984 182.032 30.048 182.384 30.048C182.592 30.048 182.752 30 182.752 29.888C182.752 29.808 182.656 29.76 182.528 29.76C182.352 29.76 182.128 29.744 181.728 29.632C181.296 29.504 181.168 29.136 181.04 28.288L179.76 19.888C179.712 19.6 179.552 19.456 179.44 19.456C179.312 19.456 179.184 19.568 179.072 19.792L175.296 27.472L171.52 19.888C171.328 19.52 171.232 19.456 171.088 19.456C170.976 19.456 170.848 19.584 170.816 19.808L169.424 28.688ZM185.054 26.096C185.054 27.344 185.054 28.416 184.99 28.992C184.942 29.392 184.862 29.648 184.574 29.712C184.446 29.744 184.286 29.76 184.078 29.76C183.902 29.76 183.854 29.84 183.854 29.904C183.854 30 183.95 30.048 184.126 30.048C184.414 30.048 184.766 30.032 185.102 30.016C185.438 30.016 185.742 30 185.902 30C186.318 30 186.846 30.016 187.534 30.032C188.222 30.064 189.07 30.08 190.126 30.08C190.654 30.08 190.782 30.08 190.878 29.728C190.958 29.456 191.07 28.528 191.07 28.224C191.07 28.08 191.054 27.904 190.942 27.904C190.846 27.904 190.814 27.968 190.782 28.112C190.686 28.672 190.526 28.96 190.174 29.12C189.806 29.28 189.214 29.296 188.846 29.296C187.406 29.296 186.974 29.088 186.942 28.16C186.926 27.76 186.942 26.608 186.942 26.144V25.056C186.942 24.976 186.958 24.912 187.022 24.912C187.374 24.912 188.974 24.944 189.23 24.976C189.758 25.024 189.934 25.232 190.014 25.504C190.046 25.68 190.046 25.856 190.062 26C190.062 26.064 190.094 26.112 190.19 26.112C190.318 26.112 190.334 25.92 190.334 25.808C190.334 25.712 190.366 25.168 190.398 24.896C190.478 24.208 190.51 23.984 190.51 23.904C190.51 23.824 190.462 23.76 190.398 23.76C190.334 23.76 190.286 23.84 190.174 23.936C190.046 24.08 189.838 24.112 189.502 24.144C189.182 24.176 187.358 24.176 187.038 24.176C186.958 24.176 186.942 24.112 186.942 24.032V20.672C186.942 20.592 186.974 20.544 187.038 20.544C187.326 20.544 189.006 20.576 189.246 20.608C189.95 20.672 190.062 20.864 190.174 21.104C190.254 21.264 190.27 21.504 190.27 21.6C190.27 21.712 190.286 21.776 190.382 21.776C190.494 21.776 190.526 21.616 190.542 21.552C190.574 21.392 190.606 20.8 190.622 20.656C190.654 20.032 190.734 19.872 190.734 19.776C190.734 19.712 190.718 19.648 190.638 19.648C190.574 19.648 190.494 19.696 190.414 19.712C190.302 19.728 190.078 19.776 189.822 19.792C189.55 19.808 186.43 19.792 185.982 19.792C185.582 19.792 184.686 19.76 183.95 19.76C183.742 19.76 183.63 19.792 183.63 19.888C183.63 19.984 183.726 20.032 183.87 20.032C184.078 20.032 184.318 20.048 184.43 20.08C184.878 20.208 185.006 20.352 185.038 20.816C185.054 21.248 185.054 21.632 185.054 23.696V26.096ZM194.68 22.64H194.728C195 22.88 196.488 24.528 198.024 26C199.496 27.424 201.256 29.104 202.136 29.92C202.28 30.064 202.472 30.208 202.712 30.208C202.824 30.208 202.936 30.08 202.936 29.776L203.096 21.2C203.112 20.432 203.224 20.192 203.608 20.08C203.784 20.032 203.896 20.032 204.04 20.032C204.2 20.032 204.28 19.968 204.28 19.888C204.28 19.776 204.152 19.76 203.96 19.76C203.272 19.76 202.744 19.792 202.584 19.792C202.28 19.792 201.528 19.76 200.792 19.76C200.584 19.76 200.44 19.776 200.44 19.888C200.44 19.968 200.488 20.032 200.664 20.032C200.856 20.032 201.192 20.032 201.4 20.112C201.736 20.24 201.864 20.48 201.88 21.312L202.024 27.36H201.96C201.752 27.168 199.88 25.248 198.92 24.304C196.872 22.304 194.76 20.144 194.584 19.968C194.344 19.728 194.152 19.52 193.976 19.52C193.832 19.52 193.736 19.712 193.736 19.984L193.608 28.048C193.592 29.232 193.544 29.6 193.176 29.696C192.984 29.744 192.728 29.76 192.536 29.76C192.408 29.76 192.312 29.824 192.312 29.904C192.312 30.032 192.44 30.048 192.632 30.048C193.352 30.048 194.024 30 194.152 30C194.408 30 195.064 30.048 195.976 30.048C196.168 30.048 196.296 30.016 196.296 29.904C196.296 29.824 196.216 29.76 196.056 29.76C195.832 29.76 195.56 29.744 195.32 29.664C195.048 29.568 194.872 29.248 194.84 28.192L194.68 22.64ZM209.285 26.096C209.285 27.344 209.285 28.416 209.221 28.992C209.173 29.392 209.093 29.648 208.805 29.712C208.693 29.744 208.517 29.76 208.309 29.76C208.133 29.76 208.085 29.84 208.085 29.904C208.085 30 208.181 30.048 208.357 30.048C208.917 30.048 209.877 30 210.197 30C210.597 30 211.541 30.048 212.469 30.048C212.629 30.048 212.741 30 212.741 29.904C212.741 29.84 212.677 29.76 212.517 29.76C212.309 29.76 211.989 29.744 211.797 29.712C211.381 29.648 211.301 29.392 211.253 29.008C211.189 28.416 211.173 27.344 211.173 26.096V20.592L212.949 20.624C214.213 20.64 214.581 21.056 214.613 21.408L214.629 21.552C214.645 21.76 214.677 21.824 214.789 21.824C214.869 21.824 214.901 21.744 214.917 21.6C214.917 21.248 214.949 20.24 214.949 19.952C214.949 19.744 214.933 19.664 214.837 19.664C214.789 19.664 214.677 19.696 214.453 19.728C214.245 19.76 213.941 19.792 213.493 19.792H207.781C207.317 19.792 206.789 19.776 206.373 19.728C206.021 19.68 205.877 19.568 205.765 19.568C205.685 19.568 205.637 19.648 205.605 19.824C205.573 19.936 205.301 21.248 205.301 21.472C205.301 21.616 205.333 21.696 205.429 21.696C205.525 21.696 205.557 21.632 205.589 21.52C205.621 21.424 205.685 21.248 205.829 21.056C206.037 20.752 206.373 20.656 207.189 20.64L209.285 20.592V26.096Z" fill="#A49380"/>
<path d="M248.091 20.3836L261.816 25.4994L248.091 30.6152L243 25.4994L248.091 20.3836Z" fill="#A49380"/>
<path d="M331.703 25.6152L328.816 22.7285L325.93 25.6152L328.816 28.502L331.703 25.6152ZM244.816 26.1152L328.816 26.1152L328.816 25.1152L244.816 25.1152L244.816 26.1152Z" fill="#A49380"/>
</svg>
