<svg width="22" height="20" viewBox="0 0 22 20" fill="none" xmlns="http://www.w3.org/2000/svg">
<path d="M9.53961 16.3654C9.36766 16.3383 9.24729 16.3063 9.12693 16.3063C8.61844 16.3038 8.10749 16.3013 7.59655 16.3013C7.60392 15.895 7.60638 15.4887 7.58181 15.0799C8.00432 15.0159 8.41455 14.9076 8.80513 14.7647C8.24997 14.3683 7.74885 13.9004 7.31897 13.371C7.08315 13.4079 6.84242 13.4325 6.59431 13.4325C3.97818 13.4325 1.84843 11.2951 1.84843 8.67009C1.84843 6.04508 3.97818 3.90764 6.59923 3.90764C6.84487 3.90764 7.08561 3.93226 7.32388 3.9692C7.75376 3.43977 8.25243 2.96943 8.81004 2.57297C8.11978 2.3218 7.37547 2.1839 6.59923 2.1839C3.02999 2.1839 0.128906 5.09456 0.128906 8.67009C0.128906 11.9083 2.50922 14.5998 5.60682 15.0799C5.58716 15.4838 5.59208 15.8901 5.59945 16.2939C5.07622 16.2915 4.55054 16.2915 4.02731 16.289C3.75956 16.2866 3.60726 16.3703 3.62936 16.6633C3.65147 16.9588 3.52865 17.2568 3.97081 17.4242C4.51369 17.6311 5.05657 17.7739 5.59699 17.8527C5.57734 18.2886 5.53558 18.7269 5.43732 19.1652C5.30221 19.7685 6.12022 19.9975 6.59186 20C7.07087 20.0024 7.89378 19.7513 7.75868 19.1726C7.65796 18.7318 7.61375 18.2935 7.59655 17.8502C8.1296 17.769 8.66265 17.6261 9.19816 17.4168C9.78771 17.1854 9.48311 16.7569 9.53961 16.3654Z" fill="#433B36"/>
<path d="M10.4941 5.95806C11.0296 6.72882 11.3464 7.66456 11.3464 8.67172C11.3464 9.67887 11.0296 10.6146 10.4941 11.3854C10.9092 11.7868 11.4128 12.0946 11.9728 12.2719C12.6631 11.2401 13.066 10.0015 13.066 8.67172C13.066 7.33951 12.6631 6.10088 11.9728 5.0691C11.4128 5.24886 10.9092 5.55667 10.4941 5.95806Z" fill="#433B36"/>
<path d="M21.8378 4.17475C21.5701 3.25132 21.2998 2.32789 21.0321 1.40445C20.9952 1.2764 20.9584 1.15082 20.9191 1.02523C20.9387 1.02031 20.9584 1.01292 20.9731 0.985831C20.9437 0.975981 20.924 0.968593 20.8994 0.961206C20.8945 0.939044 20.8896 0.914419 20.8577 0.897181C20.8503 0.914419 20.8479 0.929194 20.8405 0.943969C20.3295 0.793757 19.8161 0.643545 19.3052 0.493334C18.7574 0.333272 18.2072 0.173211 17.6594 0.0106865C17.593 -0.00901338 17.5439 -0.0040884 17.4972 0.0476238C17.4923 0.0550113 17.4825 0.0599362 17.4776 0.0648612C17.2123 0.274173 16.947 0.488409 16.6817 0.702645C16.581 0.783907 16.4803 0.865169 16.3795 0.948894C16.3648 0.961206 16.355 0.978444 16.3402 0.993218C16.3746 1.03754 16.4189 1.06709 16.4582 1.09911C16.7947 1.37244 17.1337 1.64578 17.4702 1.91911C17.593 2.02008 17.5537 2.00776 17.7036 1.9659C17.9345 1.89941 18.1629 1.83046 18.3938 1.76398C18.3717 1.7886 18.3521 1.81323 18.3324 1.84278C17.9517 2.45594 17.4678 2.96813 16.9617 3.46555C15.8858 2.66278 14.5519 2.18752 13.11 2.18752C9.54321 2.18752 6.63968 5.09572 6.63968 8.67371C6.63968 12.2517 9.54076 15.1599 13.11 15.1599C16.6792 15.1599 19.5803 12.2517 19.5803 8.67371C19.5803 7.25532 19.1234 5.94281 18.3496 4.87656C18.8434 4.37175 19.3568 3.88664 19.9709 3.49757C20.0569 3.44339 20.1134 3.3769 20.1551 3.30549C20.0667 3.61084 19.9783 3.91619 19.8874 4.21907C19.8677 4.28556 19.8726 4.33481 19.9242 4.3816C19.9316 4.38652 19.9365 4.39637 19.9414 4.4013C20.1551 4.66725 20.3688 4.9332 20.5826 5.19668C20.6636 5.29764 20.7447 5.39861 20.8282 5.49957C20.8405 5.51434 20.8577 5.52665 20.8749 5.54143C20.9191 5.50695 20.9486 5.46263 20.9805 5.42323C21.2532 5.08587 21.5258 4.74605 21.7985 4.40869C21.8918 4.2831 21.8796 4.3225 21.8378 4.17475ZM13.1075 13.4337C10.489 13.4337 8.35674 11.2987 8.35674 8.67125C8.35674 6.04378 10.4865 3.9088 13.1075 3.9088C15.7286 3.9088 17.8583 6.04378 17.8583 8.67125C17.8583 11.2987 15.7261 13.4337 13.1075 13.4337Z" fill="#433B36"/>
</svg>
