<svg width="26" height="22" viewBox="0 0 26 22" fill="none" xmlns="http://www.w3.org/2000/svg">
<path d="M10.511 7.29493C10.511 7.29493 8.56732 9.42434 8.01279 10.0704C7.45826 10.7164 6.90373 11.551 6.90373 11.551C6.90373 11.551 7.18099 13.2173 7.64403 13.4946C7.64403 13.4946 5.70039 13.7719 4.49705 11.0879C4.49705 11.0879 4.49705 12.1055 4.68282 12.3828C4.68282 12.3828 3.75675 12.014 3.66525 11.734C3.66525 11.734 3.38798 13.3061 3.57375 13.9549C3.75952 14.6037 4.40555 16.0843 4.40555 16.0843C4.40555 16.0843 3.66525 15.6213 3.29649 15.0667V15.9928C3.29649 15.9928 -1.14533 13.4031 1.16708 7.11194C1.16708 7.11194 3.75675 2.48713 9.21613 3.22466C9.21613 3.22466 6.25492 2.20709 6.62646 0.449219C6.62646 0.449219 7.45826 1.83832 10.1422 1.83832C10.1422 1.83832 12.5489 1.46956 13.6579 3.04166C13.6579 3.04166 13.6579 2.57863 12.0858 1.37529C12.0858 1.37529 14.3982 1.09802 15.1385 3.22466C15.1385 3.22466 17.8225 2.02132 20.6894 6.0916C23.5564 10.1619 23.1876 11.1794 25.5 12.197C25.5 12.197 22.5388 13.3061 20.8752 10.6249C20.8752 10.6249 23.5591 14.2321 18.9316 19.2285C18.9316 19.2285 17.5424 21.7267 16.8964 21.5409C16.2504 21.3551 17.5452 19.4115 18.5628 18.4882C19.5804 17.5621 20.4122 14.9724 18.0083 14.6952C18.0083 14.6952 17.3595 14.7867 16.9907 17.0076C16.6219 19.2285 15.5101 19.5058 15.5101 19.5058C15.5101 19.5058 16.1589 14.4179 15.7873 13.0288C15.7846 13.0316 12.6404 10.9049 10.511 7.29493Z" fill="#433B36"/>
</svg>
