<svg width="20" height="24" viewBox="0 0 20 24" fill="none" xmlns="http://www.w3.org/2000/svg">
<path d="M3.12506 7.09929C4.97293 7.09929 6.72596 6.26554 7.91 4.82366L9.99901 2.27838L11.9525 4.74387C13.1339 6.23527 14.9167 7.10204 16.8025 7.10204H18.5691V11.7881L16.6968 13.5299L16.6968 20.643L10.4759 24C10.7902 21.518 11.1722 18.4829 11.3158 17.1649C11.5786 14.7544 12.107 14.4875 12.107 14.4875C12.107 14.4875 13.161 14.2206 15.0088 13.1474C16.854 12.077 16.7239 9.53176 16.7239 9.53176L11.3185 11.5405C10.5274 16.898 9.999 17.7014 9.999 17.7014C9.999 17.7014 9.47066 16.898 8.67949 11.5405L3.27408 9.53176C3.27408 9.53176 3.14132 12.077 4.98918 13.1474C6.83434 14.2178 7.89103 14.4875 7.89103 14.4875C7.89103 14.4875 8.41938 14.7544 8.6822 17.1649C8.8258 18.4829 9.20513 21.5152 9.52214 24L3.31744 20.643L3.31744 13.5299H3.30118L1.43164 11.923L1.43164 7.09929H3.12506Z" fill="#433B36"/>
<path d="M12.6001 4.2128L12.2912 3.82206L12.8033 3.17817C13.0011 2.9718 13.2422 2.57831 13.0688 1.9867C13.0011 1.75281 12.9334 1.51617 12.8656 1.28227C14.9519 2.16831 16.5559 4.00367 17.1466 6.25728H16.8025C15.1606 6.25728 13.6297 5.51158 12.6001 4.2128Z" fill="#433B36"/>
<path d="M3.12506 6.25728H2.9354C3.52065 4.03118 5.08944 2.21509 7.14322 1.3208C7.08903 1.51341 7.03213 1.70603 6.97794 1.89865C6.9671 1.94267 6.95626 1.97569 6.94543 2.00596C6.80453 2.45999 6.86414 2.75441 7.17031 3.13139L7.58215 3.6487L7.68511 3.78078L7.27056 4.28709C6.24096 5.53634 4.73178 6.25728 3.12506 6.25728Z" fill="#433B36"/>
<path d="M12.1476 2.93327C12.0176 3.09837 11.8875 3.26072 11.7575 3.42582L10.0098 1.22174L8.22972 3.3928C8.21346 3.3928 8.21075 3.39005 8.19449 3.39005C7.64176 2.55905 7.64447 2.86998 7.77453 2.41046C7.86123 2.10777 7.94793 1.80509 8.03464 1.50241C8.28933 0.610869 9.09404 -7.98252e-08 10.0071 0C10.9175 7.95883e-08 11.7195 0.608118 11.9769 1.4969C12.0745 1.83536 12.172 2.17106 12.2695 2.50676C12.3156 2.66361 12.3021 2.77918 12.1883 2.88649C12.172 2.90025 12.1612 2.91676 12.1476 2.93327Z" fill="#433B36"/>
</svg>
