<svg width="20" height="24" viewBox="0 0 20 24" fill="none" xmlns="http://www.w3.org/2000/svg">
<path d="M7.16919 20.5511C7.1409 20.5803 7.12109 20.5979 7.10129 20.6184C6.26381 21.5438 5.42634 22.4662 4.58887 23.3916C4.55491 23.4297 4.52379 23.4736 4.47852 23.5029C4.45023 23.4678 4.47569 23.4414 4.48418 23.418C4.55491 23.2394 4.62848 23.0607 4.70204 22.8821C5.18302 21.699 5.664 20.513 6.14498 19.3299C6.15913 19.2977 6.17045 19.2626 6.18459 19.2303C6.17045 19.1864 6.13932 19.1571 6.11669 19.122C5.70927 18.5744 5.30468 18.0297 4.89726 17.485C4.71053 17.2361 4.52379 16.9843 4.33989 16.7324C4.29462 16.668 4.24086 16.6299 4.1673 16.6036C3.37226 16.3195 2.57723 16.0296 1.7822 15.7426C1.73976 15.728 1.69732 15.7133 1.65488 15.6958C1.64356 15.6899 1.63507 15.6782 1.62375 15.6694C1.65205 15.6372 1.686 15.6313 1.71712 15.6196C2.32825 15.4 2.93938 15.1774 3.55334 14.9578C3.76837 14.8787 3.98339 14.7997 4.20125 14.7264C4.27481 14.703 4.32574 14.6591 4.37384 14.5976C4.79823 14.0236 5.22263 13.4526 5.64985 12.8815C5.80547 12.6707 5.96391 12.4599 6.11952 12.2519C6.14498 12.2168 6.16762 12.1846 6.19591 12.1436C6.18176 12.1055 6.16762 12.0704 6.15347 12.0323C5.896 11.3998 5.64137 10.7672 5.3839 10.1376C5.08682 9.40258 4.78975 8.66755 4.48984 7.93252C4.47852 7.90616 4.47286 7.87981 4.45872 7.83881C4.48418 7.85052 4.49833 7.85345 4.50399 7.85931C4.53511 7.89152 4.56623 7.92666 4.59735 7.95887C5.24243 8.67048 5.88752 9.38501 6.5326 10.0966C7.13807 10.7643 7.74354 11.432 8.34901 12.0997C8.37164 12.126 8.39428 12.1524 8.41691 12.1787C8.40277 12.2256 8.37165 12.2549 8.34618 12.2871C8.00384 12.7176 7.66149 13.1451 7.32197 13.5756C6.79006 14.2433 6.25816 14.9109 5.72908 15.5786C5.70927 15.602 5.69229 15.6284 5.67532 15.6518C5.67532 15.6958 5.70078 15.7163 5.72059 15.7397C6.06293 16.1702 6.40245 16.6006 6.7448 17.0282C7.11826 17.4997 7.49456 17.9711 7.86803 18.4426C7.9133 18.4982 7.94159 18.5627 7.96423 18.63C8.12832 19.1484 8.29525 19.6667 8.46218 20.1821C8.82716 21.33 9.19497 22.478 9.55995 23.6259C9.57127 23.664 9.59673 23.702 9.58825 23.746C9.55712 23.7518 9.54864 23.7284 9.53732 23.7138C9.44395 23.5908 9.35058 23.4648 9.25722 23.3389C8.58384 22.434 7.91047 21.5292 7.23709 20.6243C7.21729 20.6096 7.19748 20.5862 7.16919 20.5511Z" fill="#433B36"/>
<path d="M14.3292 15.6668C14.2754 15.576 14.2019 15.4999 14.1396 15.4179C14.0746 15.333 14.0067 15.251 13.9416 15.169C13.8765 15.0899 13.8143 15.0079 13.7492 14.9288C13.6841 14.8468 13.6162 14.7619 13.5511 14.6799C13.4861 14.5979 13.4182 14.513 13.3531 14.431C13.288 14.349 13.2201 14.2641 13.155 14.1821C13.09 14.1001 13.0221 14.0152 12.957 13.9332C12.8919 13.8541 12.8297 13.7721 12.7646 13.693C12.6995 13.6111 12.6316 13.5261 12.5665 13.4441C12.5015 13.3621 12.4336 13.2772 12.3685 13.1952C12.3034 13.1132 12.2355 13.0283 12.1704 12.9463C12.1054 12.8672 12.0431 12.7852 11.978 12.7062C11.913 12.6242 11.8451 12.5393 11.78 12.4573C11.7149 12.3753 11.6498 12.2903 11.5791 12.2025C11.6018 12.1732 11.6216 12.1498 11.6414 12.1263C12.1591 11.5553 12.6769 10.9843 13.1946 10.4132C13.9444 9.58448 14.6942 8.75866 15.4468 7.92992C15.4722 7.90357 15.492 7.8655 15.5317 7.85378C15.5515 7.886 15.5288 7.91235 15.5203 7.93578C15.4439 8.12613 15.3676 8.31354 15.2912 8.50096C14.8158 9.67233 14.3405 10.8437 13.8652 12.0151C13.8001 12.1732 13.7945 12.1263 13.8935 12.2611C14.4763 13.0429 15.0592 13.8248 15.6392 14.6096C15.6844 14.6682 15.7325 14.7063 15.8033 14.7326C16.6181 15.0225 17.4329 15.3183 18.2478 15.6112C18.2931 15.6287 18.3383 15.6463 18.3949 15.6668C18.3694 15.6873 18.3553 15.7019 18.3383 15.7078C18.1459 15.7781 17.9535 15.8513 17.7611 15.9186C17.1246 16.15 16.4851 16.3813 15.8457 16.6068C15.7467 16.642 15.6731 16.6976 15.6109 16.7855C15.0761 17.5058 14.5414 18.2262 14.0038 18.9466C13.9586 19.0052 13.9161 19.0667 13.868 19.1253C13.8228 19.1809 13.8086 19.2307 13.8426 19.301C13.8935 19.4064 13.9331 19.5177 13.9784 19.626C14.4905 20.8852 14.9997 22.1474 15.5118 23.4066C15.5232 23.4359 15.5317 23.4652 15.5486 23.5091C15.5232 23.5003 15.509 23.4974 15.5005 23.4915C15.4751 23.4681 15.4524 23.4417 15.427 23.4154C14.5895 22.49 13.752 21.5676 12.9117 20.6422C12.8891 20.6158 12.8636 20.5924 12.841 20.566C12.8014 20.5778 12.7901 20.61 12.7703 20.6334C12.4505 21.0639 12.1308 21.4914 11.8111 21.9219C11.3839 22.4959 10.9567 23.0698 10.5294 23.6467C10.4983 23.6877 10.47 23.7317 10.4304 23.7668C10.4021 23.7551 10.4106 23.7346 10.4163 23.7199C10.4502 23.6145 10.4842 23.5091 10.5181 23.4037C11.0161 21.8399 11.5169 20.2761 12.0148 18.7124C12.0544 18.5864 12.1139 18.4781 12.1931 18.3785C12.8863 17.5117 13.5738 16.642 14.2641 15.7752C14.2868 15.7371 14.3179 15.7107 14.3292 15.6668Z" fill="#433B36"/>
<path d="M6.30057 7.64424C6.34018 7.61496 6.3713 7.5886 6.40525 7.56225C6.59198 7.42461 6.77872 7.28698 6.96828 7.1552C7.02204 7.11713 7.05599 7.07027 7.08428 7.00878C7.64449 5.69099 8.20752 4.37613 8.77055 3.06127C9.15816 2.15639 9.54578 1.24858 9.93339 0.343702C9.95037 0.305632 9.95886 0.261706 9.98998 0.232422C10.0296 0.238279 10.0324 0.270491 10.0409 0.293919C10.1399 0.519407 10.2361 0.744895 10.3323 0.973311C10.8105 2.09197 11.2886 3.21062 11.7696 4.32928C12.1487 5.21952 12.5307 6.10683 12.9098 6.99706C12.9381 7.06442 12.9777 7.11713 13.0371 7.15813C13.2239 7.28991 13.4078 7.42461 13.5917 7.55932C13.6256 7.58275 13.6568 7.6091 13.6879 7.63253C13.6964 7.67353 13.6709 7.6911 13.6511 7.7116C13.4842 7.89902 13.3172 8.08643 13.1503 8.27385C12.4543 9.05574 11.7555 9.8347 11.0566 10.6166C11.0312 10.6459 11.0114 10.6781 10.9746 10.6957C10.9491 10.6722 10.9689 10.6517 10.9774 10.6342C11.0312 10.5053 11.0877 10.3794 11.1443 10.2505C11.4471 9.5565 11.7498 8.86539 12.0525 8.17136C12.1176 8.02201 12.1148 8.06886 12.0554 7.91952C11.5404 6.63687 11.0255 5.35422 10.5077 4.07158C10.4879 4.01886 10.471 3.96615 10.4313 3.91051C10.3663 4.02472 10.3323 4.14186 10.2871 4.25314C10.2418 4.36149 10.1965 4.46984 10.1541 4.58112C10.1088 4.6924 10.0664 4.80661 10.0183 4.91203C9.97583 4.92082 9.973 4.8886 9.96451 4.8681C9.9051 4.72754 9.84851 4.58405 9.79193 4.44056C9.72968 4.28828 9.67027 4.136 9.60802 3.98372C9.59953 3.96322 9.58822 3.94273 9.57407 3.9193C9.53446 3.95151 9.52597 3.99837 9.51183 4.03643C9.3166 4.52255 9.11855 5.0116 8.92333 5.49771C8.59796 6.30596 8.27259 7.1142 7.94722 7.92244C7.88781 8.06886 7.88498 8.02494 7.95005 8.17429C8.30088 8.9796 8.65172 9.78492 9.00255 10.5873C9.0167 10.6195 9.02802 10.6517 9.03933 10.6839C9.01953 10.7015 9.00821 10.6898 8.99972 10.681C8.97426 10.6517 8.94597 10.6254 8.9205 10.5961C8.07454 9.65021 7.22858 8.70433 6.38262 7.75552C6.35432 7.72331 6.32037 7.69696 6.30057 7.64424Z" fill="#433B36"/>
<path d="M0 22.508C0.0169758 22.47 0.0254637 22.4465 0.0367809 22.426C0.268784 21.9897 2.221 18.5283 2.28608 18.4375C2.34266 18.42 2.40208 18.4346 2.45867 18.4375C2.52091 18.4405 2.58315 18.4463 2.6454 18.4492C2.86609 18.461 3.0896 18.4756 3.31029 18.4873C3.32443 18.4873 3.33858 18.4902 3.35273 18.4902C3.55078 18.499 3.74883 18.5078 3.94405 18.5166C4.04025 18.5224 4.13644 18.5312 4.23264 18.54C4.24679 18.5869 4.2383 18.6249 4.23264 18.663C4.19586 18.9207 4.15625 19.1813 4.11664 19.439C4.07986 19.6967 4.04308 19.9574 4.00629 20.2151C3.99781 20.2707 3.98932 20.3293 3.98366 20.3849C3.978 20.4318 3.95537 20.4611 3.91293 20.4845C3.79127 20.546 3.67244 20.6104 3.55078 20.6748C2.4134 21.2722 1.27602 21.8667 0.138636 22.4641C0.110343 22.4787 0.0820498 22.4934 0.0537568 22.5051C0.0452689 22.508 0.0311223 22.5051 0 22.508Z" fill="#433B36"/>
<path d="M15.7635 18.539C15.8767 18.5302 15.9757 18.5214 16.0748 18.5156C16.1823 18.5097 16.2898 18.5039 16.3973 18.498C16.5869 18.4892 16.7792 18.4804 16.9688 18.4687C17.1669 18.457 17.3621 18.4453 17.5601 18.4336C17.5969 18.4307 17.6365 18.4307 17.6733 18.4277C17.7044 18.4277 17.7271 18.4394 17.7412 18.4687C17.7582 18.5009 17.778 18.5302 17.795 18.5624C18.5108 19.8363 19.2266 21.1131 19.9424 22.3869C19.9622 22.4221 19.9905 22.4543 19.9905 22.507C19.9735 22.507 19.9594 22.5099 19.9481 22.507C19.9226 22.4953 19.8971 22.4836 19.8745 22.4689C18.6268 21.813 17.3762 21.1599 16.1285 20.504C16.1257 20.501 16.1229 20.501 16.12 20.4981C16.0521 20.4718 16.0238 20.422 16.0125 20.3458C15.9786 20.0793 15.9361 19.8129 15.8965 19.5493C15.8569 19.2857 15.8201 19.0251 15.7833 18.7616C15.7748 18.7118 15.7692 18.662 15.7635 18.6122C15.7607 18.5917 15.7635 18.5712 15.7635 18.539Z" fill="#433B36"/>
<path d="M0.00390642 8.83624C0.0237115 8.83624 0.0378581 8.83331 0.0491753 8.83624C0.074639 8.84795 0.100103 8.85967 0.122737 8.87431C1.37046 9.52735 2.61535 10.1804 3.86308 10.8334C3.87156 10.8393 3.88005 10.8451 3.89137 10.8481C3.95644 10.8715 3.97625 10.9213 3.98474 10.9857C4.03001 11.3049 4.0781 11.6241 4.12337 11.9433C4.16015 12.1893 4.19693 12.4323 4.23089 12.6783C4.23654 12.7164 4.24503 12.7545 4.23089 12.7984C4.21674 12.8013 4.20259 12.8072 4.19128 12.8101C4.02435 12.8189 3.85742 12.8277 3.69332 12.8365C3.50941 12.8482 3.32551 12.8599 3.1416 12.8716C3.12463 12.8716 3.10765 12.8745 3.09068 12.8745C2.8898 12.8833 2.68892 12.8921 2.48803 12.9038C2.43994 12.9067 2.39184 12.9126 2.34374 12.9155C2.30413 12.9185 2.27584 12.9067 2.25603 12.8716C2.2334 12.8306 2.21076 12.7925 2.18813 12.7515C1.47797 11.4894 0.770648 10.2243 0.0604925 8.96216C0.0406874 8.92116 0.0152236 8.88895 0.00390642 8.83624Z" fill="#433B36"/>
<path d="M20.0009 8.84218C19.984 8.87732 19.9698 8.90661 19.9557 8.93589C19.5879 9.59186 19.2201 10.2449 18.8522 10.9009C18.4958 11.5363 18.1364 12.1718 17.7799 12.8102C17.7177 12.9215 17.7234 12.9244 17.5932 12.9098C17.5762 12.9068 17.5593 12.9068 17.5423 12.9039C17.3442 12.8951 17.1462 12.8863 16.951 12.8775C16.7642 12.8688 16.5775 12.8541 16.3908 12.8424C16.3398 12.8395 16.2861 12.8395 16.2351 12.8365C16.0937 12.8278 15.9522 12.8219 15.8079 12.8131C15.7994 12.8131 15.7881 12.8073 15.7796 12.8043C15.7513 12.775 15.7655 12.7399 15.7683 12.7106C15.7825 12.5964 15.7994 12.4822 15.8164 12.3709C15.856 12.1015 15.8956 11.8321 15.9352 11.5627C15.9635 11.3635 15.9947 11.1644 16.0201 10.9653C16.0286 10.9155 16.0512 10.8833 16.0965 10.8599C16.2408 10.7867 16.3823 10.7105 16.5237 10.6373C17.6385 10.0545 18.7504 9.46886 19.8651 8.88611C19.8963 8.86854 19.9274 8.8539 19.9585 8.84218C19.9642 8.8334 19.9783 8.83925 20.0009 8.84218Z" fill="#433B36"/>
<path d="M10.0136 19.3076C9.96835 19.2813 9.96835 19.2462 9.95986 19.2169C9.90893 19.0441 9.86083 18.8742 9.81273 18.7015C9.50434 17.6033 9.19312 16.5052 8.88472 15.407C8.8338 15.2313 8.82248 15.2781 8.93848 15.1288C9.25253 14.7276 9.56658 14.3235 9.88064 13.9223C9.91742 13.8754 9.94854 13.8227 10.0023 13.7817C10.0221 13.7993 10.0419 13.8139 10.0561 13.8315C10.1494 13.9516 10.2456 14.0716 10.339 14.1917C10.5851 14.508 10.8313 14.8242 11.0774 15.1376C11.0831 15.1464 11.0888 15.1552 11.0972 15.161C11.1538 15.2167 11.1623 15.2752 11.1397 15.3543C10.9529 16.0073 10.769 16.6604 10.5851 17.3163C10.4069 17.9459 10.2286 18.5755 10.0532 19.2052C10.0362 19.2403 10.0249 19.2696 10.0136 19.3076Z" fill="#433B36"/>
</svg>
