<svg width="22" height="20" viewBox="0 0 22 20" fill="none" xmlns="http://www.w3.org/2000/svg">
<path d="M19.95 18.1495C17.2023 14.8457 14.4392 11.5547 11.7174 8.23274C11.2207 7.62475 10.8145 7.06332 9.79515 7.51609C10.1211 7.01417 10.5868 6.7451 10.962 6.38548C11.3733 5.98963 11.4096 5.48771 10.9749 5.06341C10.5791 4.67792 10.1315 4.72449 9.71495 5.06341C9.5028 5.23675 9.30617 5.42821 9.07073 5.64295C9.24666 2.14504 7.82628 0.139949 5.11489 0.00541431C2.80192 -0.11101 0.817531 1.66382 0.680409 4.013C0.595031 5.47995 1.15128 6.69853 2.30259 7.61181C3.46166 8.53027 4.81218 8.65705 6.41367 8.32071C6.1446 8.60789 6.04628 8.72431 5.93503 8.82522C5.4357 9.28574 5.19768 9.81612 5.75652 10.3491C6.3257 10.8898 6.82762 10.5509 7.29073 10.0955C7.56756 9.82388 7.77454 9.44873 8.23506 9.32455C8.27905 9.7799 7.80817 10.1887 8.3903 10.6621C11.9891 13.5883 15.5388 16.5765 19.1117 19.5363C19.4713 19.8338 19.9137 20.1675 20.3613 19.7614C20.8632 19.3008 20.4596 18.8558 20.188 18.4445C20.1207 18.3358 20.0302 18.2453 19.95 18.1495ZM4.80442 3.65597C4.08259 3.59646 3.67899 3.15405 3.62465 2.44774C3.5755 1.788 4.19902 1.21623 4.87945 1.23175C5.5366 1.24728 6.0437 1.7673 6.04628 2.42963C6.04887 3.10489 5.46157 3.7103 4.80442 3.65597Z" fill="#433B36"/>
<path d="M8.56168 13.0566C8.73761 12.8884 8.91613 12.7177 9.09206 12.5469C8.83852 12.3399 8.58497 12.1304 8.33142 11.9234C8.17878 12.0657 8.02872 12.2132 7.8709 12.3529C7.60959 12.5831 7.2629 12.7901 7.69238 13.2248C8.12186 13.6672 8.31331 13.2946 8.56168 13.0566Z" fill="#433B36"/>
<path d="M8.93763 13.3477C8.67374 13.622 8.27531 13.8522 8.77205 14.305C9.25586 14.7474 9.41109 14.2532 9.62583 14.0437C9.81987 13.8522 10.0139 13.6556 10.2054 13.4616C9.94923 13.252 9.6931 13.0398 9.43697 12.8303C9.27139 13.001 9.10322 13.1744 8.93763 13.3477Z" fill="#433B36"/>
<path d="M6.26932 15.1299C6.02613 14.5788 5.81139 14.7081 5.42331 15.0548C4.33668 16.0225 3.47514 17.2152 2.2074 18.0172C1.65891 18.3639 2.09874 19.1426 2.44801 19.4971C2.80246 19.8541 3.60191 20.281 3.93307 19.7506C4.83342 18.307 6.27708 17.3988 7.30162 16.0173C6.96787 15.7197 6.46854 15.5826 6.26932 15.1299Z" fill="#433B36"/>
<path d="M6.13024 12.011C5.93102 11.8118 5.75768 11.7575 5.55588 11.9929C5.35407 12.2284 5.04102 12.3603 5.24541 12.8131C6.05779 14.6112 7.33588 15.91 9.14692 16.7017C9.75751 16.9681 9.84806 16.4222 10.1792 16.1764C10.0706 16.029 10.0059 15.9151 9.91533 15.8246C8.65535 14.5491 7.39021 13.2839 6.13024 12.011Z" fill="#433B36"/>
<path d="M17.0807 8.7361L21.3263 0.751969C18.7805 1.96537 16.3744 3.30296 13.9657 4.63537C13.6888 4.78802 13.531 5.04415 13.3836 5.30546C13.0084 5.96261 12.6177 6.60683 12.2064 7.23552L14.4624 9.96761L17.0807 8.7361Z" fill="#433B36"/>
</svg>
