<svg width="230" height="48" viewBox="0 0 230 48" fill="none" xmlns="http://www.w3.org/2000/svg">
<path d="M230 23.9971L207.135 1.61983L36.4354 1.61983C32.3143 1.61983 28.2111 1.07792 24.2327 0L24.2268 0L19.0235 5.15401L0 24.0029L24.2327 48C28.2111 46.9221 32.3143 46.3802 36.4413 46.3802L206.386 46.3802L207.991 45.2198L216.281 37.0087L230 23.9971Z" fill="#BAA893"/>
<path d="M24.7256 46.192L2.3125 24.0033L24.7256 1.80273L24.8088 1.82041C28.6028 2.76285 32.5157 3.23997 36.4346 3.23997L206.462 3.23997L206.504 3.2812L227.65 23.9797L215.144 35.831L206.926 43.9713L205.85 44.7548L36.4346 44.7548C32.5157 44.7548 28.6028 45.2319 24.8029 46.1743L24.7256 46.192ZM2.73471 24.0033L24.8148 45.868C28.6147 44.9374 32.5217 44.4602 36.4346 44.4602L205.749 44.4602L206.73 43.7475L214.936 35.6189L227.228 23.9738L206.337 3.53448L36.4346 3.53448C32.5217 3.53448 28.6087 3.06326 24.8148 2.1267L2.73471 24.0033Z" fill="#423B38"/>
<path d="M24.2307 13.2317L13.3652 23.9941L24.2307 34.7566L35.0962 23.9941L24.2307 13.2317Z" fill="#423B38"/>
<path d="M217.488 28.7135L212.73 24.0013L217.488 19.2891L222.245 24.0013L217.488 28.7135ZM214.413 23.9954L217.494 27.0466L220.574 23.9954L217.494 20.9442L214.413 23.9954Z" fill="#433B36"/>
<path d="M24.2328 42.9983L5.04883 24.0021L24.2328 5L43.4109 24.0021L24.2328 42.9983ZM7.7843 24.0021L24.2328 40.2887L40.6754 24.0021L24.2328 7.70954L7.7843 24.0021Z" fill="#433B36"/>
<path d="M217.458 17.0272C217.487 16.9977 217.523 16.9742 217.559 16.9447L205.654 5.15234L57.694 5.15234L52.0268 5.15234L28.6504 5.15234L40.1513 16.9212L40.1216 16.9506C40.1513 16.9742 40.181 16.9977 40.2108 17.0213L41.6261 18.4232L46.4667 23.3769L46.6391 23.4005C46.9602 23.7362 46.9602 24.2546 46.6391 24.5962L46.4667 24.6198L41.6261 29.5735L40.294 30.8929L40.3178 30.9165L28.6504 42.8384H52.4728L57.7 42.8384L205.219 42.8384L205.659 42.5204L217.392 30.8988L211.047 24.6139C210.702 24.2722 210.702 23.7185 211.047 23.3769L217.458 17.0272Z" fill="#423B38"/>
<path d="M73.96 23.168C73.96 23 74.008 22.952 74.128 22.952C74.536 22.952 77.08 22.952 77.68 23.024C78.424 23.12 78.784 23.552 78.904 23.888C79 24.176 79.048 24.464 79.048 24.632C79.048 24.8 79.096 24.968 79.24 24.968C79.48 24.968 79.48 24.728 79.48 24.512C79.48 24.344 79.528 23.24 79.576 22.76C79.648 22.016 79.768 21.416 79.768 21.272C79.768 21.128 79.72 21.056 79.624 21.056C79.48 21.056 79.432 21.152 79.312 21.296C79.072 21.608 78.736 21.704 78.28 21.728C77.944 21.752 77.608 21.752 77.2 21.752L74.128 21.776C73.984 21.776 73.96 21.704 73.96 21.56V15.56C73.96 15.296 74.032 15.224 74.176 15.224L77.872 15.296C78.784 15.32 79.288 15.68 79.456 16.016C79.6 16.352 79.6 16.736 79.6 16.928C79.624 17.192 79.672 17.312 79.84 17.312C80.008 17.312 80.056 17.168 80.08 16.976C80.128 16.688 80.176 15.272 80.2 15.032C80.272 14.408 80.392 14.12 80.392 13.952C80.392 13.832 80.32 13.736 80.224 13.736C80.104 13.736 79.984 13.832 79.84 13.88C79.6 13.952 79.312 13.952 78.856 13.976C78.304 14 73.432 14 72.52 14C72.184 14 71.632 13.976 71.008 13.952C70.384 13.952 69.688 13.928 69.064 13.928C68.704 13.928 68.512 13.976 68.512 14.168C68.512 14.312 68.68 14.36 68.92 14.36C69.256 14.36 69.664 14.384 69.856 14.432C70.648 14.6 70.84 14.984 70.888 15.8C70.936 16.568 70.936 17.24 70.936 20.888V25.112C70.936 27.416 70.936 29.216 70.816 30.224C70.72 30.92 70.6 31.448 70.12 31.544C69.904 31.592 69.616 31.64 69.256 31.64C68.992 31.64 68.896 31.712 68.896 31.832C68.896 32.024 69.064 32.072 69.4 32.072C70.312 32.072 71.824 32 72.448 32C73.072 32 74.584 32.072 76.096 32.072C76.456 32.072 76.624 32 76.624 31.832C76.624 31.712 76.528 31.64 76.216 31.64C75.88 31.64 75.352 31.592 75.016 31.544C74.296 31.448 74.152 30.92 74.08 30.224C73.96 29.216 73.96 27.416 73.96 25.112V23.168ZM84.9169 26.144C84.9169 28.112 84.9169 29.744 84.8209 30.584C84.7489 31.184 84.6289 31.472 84.1969 31.568C84.0049 31.616 83.7649 31.64 83.4529 31.64C83.1889 31.64 83.1169 31.76 83.1169 31.856C83.1169 32 83.2609 32.072 83.5249 32.072C84.3649 32.072 85.8049 32 86.2849 32C86.8609 32 88.3009 32.072 89.6929 32.072C89.9329 32.072 90.1009 32 90.1009 31.856C90.1009 31.76 90.0049 31.64 89.7649 31.64C89.4529 31.64 88.9729 31.616 88.6849 31.568C88.0609 31.472 87.9169 31.16 87.8449 30.608C87.7489 29.744 87.7489 28.112 87.7489 26.144V22.544C87.7489 19.448 87.7489 18.872 87.7969 18.224C87.8449 17.504 88.0129 17.216 88.5889 17.12C88.8289 17.072 88.9969 17.048 89.2129 17.048C89.4289 17.048 89.5489 17 89.5489 16.808C89.5489 16.688 89.3809 16.64 89.1169 16.64C88.3009 16.64 86.9329 16.688 86.4049 16.688C85.8049 16.688 84.3649 16.64 83.5729 16.64C83.2369 16.64 83.0689 16.688 83.0689 16.808C83.0689 17 83.1889 17.048 83.4049 17.048C83.6689 17.048 83.9329 17.072 84.1729 17.144C84.6289 17.288 84.8449 17.528 84.8929 18.224C84.9169 18.872 84.9169 19.448 84.9169 22.544V26.144ZM97.5224 22.544C97.5224 19.448 97.5224 18.872 97.5704 18.224C97.6184 17.504 97.7864 17.216 98.3624 17.12C98.6024 17.072 98.9384 17.048 99.1784 17.048C99.4424 17.048 99.5624 16.976 99.5624 16.832C99.5624 16.688 99.4184 16.64 99.1064 16.64C98.2904 16.64 96.5624 16.688 96.0584 16.688C95.4824 16.688 94.1384 16.64 93.1544 16.64C92.8424 16.64 92.6984 16.688 92.6984 16.832C92.6984 16.976 92.8184 17.048 93.0584 17.048C93.3224 17.048 93.5864 17.072 93.7544 17.12C94.4264 17.312 94.6184 17.528 94.6664 18.224C94.6904 18.872 94.6904 19.448 94.6904 22.544V26.144C94.6904 28.016 94.6904 29.624 94.5944 30.488C94.5224 31.088 94.4024 31.472 93.9704 31.568C93.7784 31.616 93.5384 31.64 93.2264 31.64C92.9624 31.64 92.8904 31.76 92.8904 31.856C92.8904 32 93.0344 32.072 93.2984 32.072C93.7304 32.072 94.2584 32.048 94.7624 32.024C95.2664 32.024 95.7224 32 95.9624 32C96.8264 32 97.7144 32.024 98.7704 32.048C99.8264 32.096 101.05 32.12 102.562 32.12C103.666 32.12 103.762 32.024 103.906 31.568C104.074 30.968 104.218 29.456 104.218 29.216C104.218 28.976 104.17 28.76 104.026 28.76C103.858 28.76 103.81 28.88 103.786 29.072C103.738 29.456 103.522 30.032 103.258 30.296C102.73 30.848 101.914 30.872 100.786 30.872C99.1544 30.872 98.3384 30.752 97.9784 30.44C97.5224 30.056 97.5224 28.76 97.5224 26.144V22.544ZM109.592 26.144C109.592 28.016 109.592 29.624 109.496 30.488C109.424 31.088 109.304 31.472 108.872 31.568C108.704 31.616 108.44 31.64 108.128 31.64C107.864 31.64 107.792 31.76 107.792 31.856C107.792 32 107.936 32.072 108.2 32.072C109.04 32.072 110.48 32 110.96 32C111.56 32 112.976 32.072 114.368 32.072C114.608 32.072 114.776 32 114.776 31.856C114.776 31.76 114.68 31.64 114.44 31.64C114.128 31.64 113.648 31.616 113.36 31.568C112.736 31.472 112.616 31.088 112.544 30.512C112.448 29.624 112.424 28.016 112.424 26.144V17.888L115.088 17.936C116.984 17.96 117.536 18.584 117.584 19.112L117.608 19.328C117.632 19.64 117.68 19.736 117.848 19.736C117.968 19.736 118.016 19.616 118.04 19.4C118.04 18.872 118.088 17.36 118.088 16.928C118.088 16.616 118.064 16.496 117.92 16.496C117.848 16.496 117.68 16.544 117.344 16.592C117.032 16.64 116.576 16.688 115.904 16.688H107.336C106.64 16.688 105.848 16.664 105.224 16.592C104.696 16.52 104.48 16.352 104.312 16.352C104.192 16.352 104.12 16.472 104.072 16.736C104.024 16.904 103.616 18.872 103.616 19.208C103.616 19.424 103.664 19.544 103.808 19.544C103.952 19.544 104 19.448 104.048 19.28C104.096 19.136 104.192 18.872 104.408 18.584C104.72 18.128 105.224 17.984 106.448 17.96L109.592 17.888V26.144ZM121.972 26.144C121.972 28.016 121.972 29.624 121.876 30.488C121.804 31.088 121.684 31.472 121.252 31.568C121.06 31.616 120.82 31.64 120.508 31.64C120.244 31.64 120.172 31.76 120.172 31.856C120.172 32 120.316 32.072 120.58 32.072C121.012 32.072 121.54 32.048 122.044 32.024C122.548 32.024 123.004 32 123.244 32C123.868 32 124.66 32.024 125.692 32.048C126.724 32.096 127.996 32.12 129.58 32.12C130.372 32.12 130.564 32.12 130.708 31.592C130.828 31.184 130.996 29.792 130.996 29.336C130.996 29.12 130.972 28.856 130.804 28.856C130.66 28.856 130.612 28.952 130.564 29.168C130.42 30.008 130.18 30.44 129.652 30.68C129.1 30.92 128.212 30.944 127.66 30.944C125.5 30.944 124.852 30.632 124.804 29.24C124.78 28.64 124.804 26.912 124.804 26.216V24.584C124.804 24.464 124.828 24.368 124.924 24.368C125.452 24.368 127.852 24.416 128.236 24.464C129.028 24.536 129.292 24.848 129.412 25.256C129.46 25.52 129.46 25.784 129.484 26C129.484 26.096 129.532 26.168 129.676 26.168C129.868 26.168 129.892 25.88 129.892 25.712C129.892 25.568 129.94 24.752 129.988 24.344C130.108 23.312 130.156 22.976 130.156 22.856C130.156 22.736 130.084 22.64 129.988 22.64C129.892 22.64 129.82 22.76 129.652 22.904C129.46 23.12 129.148 23.168 128.644 23.216C128.164 23.264 125.428 23.264 124.948 23.264C124.828 23.264 124.804 23.168 124.804 23.048V18.008C124.804 17.888 124.852 17.816 124.948 17.816C125.38 17.816 127.9 17.864 128.26 17.912C129.316 18.008 129.484 18.296 129.652 18.656C129.772 18.896 129.796 19.256 129.796 19.4C129.796 19.568 129.82 19.664 129.964 19.664C130.132 19.664 130.18 19.424 130.204 19.328C130.252 19.088 130.3 18.2 130.324 17.984C130.372 17.048 130.492 16.808 130.492 16.664C130.492 16.568 130.468 16.472 130.348 16.472C130.252 16.472 130.132 16.544 130.012 16.568C129.844 16.592 129.508 16.664 129.124 16.688C128.716 16.712 124.036 16.688 123.364 16.688C122.764 16.688 121.42 16.64 120.316 16.64C120.004 16.64 119.836 16.688 119.836 16.832C119.836 16.976 119.98 17.048 120.196 17.048C120.508 17.048 120.868 17.072 121.036 17.12C121.708 17.312 121.9 17.528 121.948 18.224C121.972 18.872 121.972 19.448 121.972 22.544V26.144ZM135.331 26.144C135.331 28.016 135.331 29.624 135.235 30.488C135.163 31.088 135.043 31.472 134.611 31.568C134.419 31.616 134.179 31.64 133.867 31.64C133.603 31.64 133.531 31.76 133.531 31.856C133.531 32 133.675 32.072 133.939 32.072C134.779 32.072 136.123 32 136.531 32C136.843 32 138.595 32.072 139.819 32.072C140.083 32.072 140.251 32 140.251 31.856C140.251 31.76 140.155 31.64 139.987 31.64C139.723 31.64 139.267 31.616 138.955 31.568C138.307 31.472 138.211 31.088 138.139 30.488C138.043 29.624 138.019 28.04 138.019 26.144V25.856C138.019 25.736 138.091 25.688 138.187 25.688L140.083 25.736C140.227 25.736 140.347 25.76 140.467 25.88C140.731 26.192 141.619 27.56 142.459 28.664C143.635 30.248 144.427 31.208 145.339 31.664C145.891 31.952 146.467 32.072 147.643 32.072H149.659C149.923 32.072 150.067 32.024 150.067 31.856C150.067 31.76 149.971 31.64 149.803 31.64C149.635 31.64 149.515 31.64 149.299 31.592C148.963 31.52 148.219 31.424 147.043 30.248C145.771 28.976 144.283 27.128 142.411 24.824C144.475 23.168 145.339 21.824 145.339 20.312C145.339 18.944 144.451 17.912 143.851 17.504C142.723 16.76 141.187 16.64 139.843 16.64C139.195 16.64 137.275 16.688 136.555 16.688C136.123 16.688 134.779 16.64 133.675 16.64C133.363 16.64 133.195 16.688 133.195 16.832C133.195 16.976 133.339 17.048 133.555 17.048C133.867 17.048 134.227 17.072 134.395 17.12C135.067 17.312 135.259 17.528 135.307 18.224C135.331 18.872 135.331 19.448 135.331 22.544V26.144ZM138.019 18.056C138.019 17.888 138.067 17.816 138.211 17.768C138.427 17.72 138.931 17.696 139.459 17.696C140.707 17.696 142.675 18.44 142.675 21.32C142.675 23 141.955 23.888 141.307 24.344C140.947 24.608 140.659 24.68 139.819 24.68C139.291 24.68 138.667 24.632 138.211 24.488C138.067 24.416 138.019 24.344 138.019 24.128V18.056Z" fill="white"/>
</svg>
