<svg width="357" height="120" viewBox="0 0 357 120" fill="none" xmlns="http://www.w3.org/2000/svg">
<g opacity="0.34">
<path d="M174.512 29.2139C173.545 31.5336 172.579 33.8527 171.615 36.1734C171.883 36.7673 172.151 37.3607 172.419 37.9541L175.972 25.709C175.486 26.8775 174.999 28.0459 174.512 29.2139Z" fill="#A59480"/>
<path d="M161.68 70.5157C161.878 70.7567 162.226 71.1798 162.635 71.6765L163.675 68.0918C163.01 68.8993 162.345 69.7072 161.68 70.5157Z" fill="#A59480"/>
<path d="M154.904 82.0547L154.398 83.7972C154.39 84.0042 154.364 84.1704 154.347 84.2777L154.341 84.3138C154.284 84.6982 154.223 85.0826 154.164 85.4665L157.448 89.5562C157.828 88.6501 158.209 87.7445 158.589 86.8384C157.361 85.2438 156.133 83.6493 154.904 82.0547Z" fill="#A59480"/>
<path d="M169.227 48.9548L169.896 46.6474C168.699 45.3528 167.502 44.0582 166.305 42.7637L165.623 45.1143C166.606 46.1628 167.945 47.5896 169.227 48.9548Z" fill="#A59480"/>
<path d="M183.001 29.2139C183.967 31.5336 184.934 33.8527 185.898 36.1734C185.63 36.7673 185.362 37.3607 185.094 37.9541L181.541 25.709C182.028 26.8775 182.514 28.0459 183.001 29.2139Z" fill="#A59480"/>
<path d="M195.835 70.5157C195.637 70.7567 195.289 71.1798 194.88 71.6765L193.84 68.0918C194.505 68.8993 195.17 69.7072 195.835 70.5157Z" fill="#A59480"/>
<path d="M202.609 82.0547L203.115 83.7972C203.123 84.0042 203.149 84.1704 203.167 84.2777L203.172 84.3138C203.23 84.6982 203.29 85.0827 203.349 85.4665L200.065 89.5562C199.685 88.6501 199.304 87.7445 198.924 86.8384C200.151 85.2438 201.38 83.6493 202.609 82.0547Z" fill="#A59480"/>
<path d="M188.287 48.9548L187.617 46.6474C188.814 45.3528 190.011 44.0582 191.208 42.7637L191.89 45.1143C190.907 46.1628 189.568 47.5896 188.287 48.9548Z" fill="#A59480"/>
<path d="M192.324 95.9497L179.042 113.309L175.336 108.523C175.21 108.404 175.088 108.267 174.974 108.103C174.521 107.525 174.075 106.947 173.697 106.455L165.602 95.9492L163.975 97.6841L178.881 116.248L194.109 97.8529L192.324 95.9497Z" fill="#A59480"/>
<path d="M165.672 92.4825C165.54 92.6122 165.445 92.6981 165.358 92.7906C161.454 96.952 157.551 101.114 153.646 105.275C153.484 105.448 153.341 105.646 153.128 105.772C153 105.611 153.111 105.498 153.155 105.392C153.486 104.586 153.828 103.783 154.166 102.979C156.405 97.6486 158.645 92.3178 160.883 86.9869C160.946 86.8384 161.002 86.6879 161.062 86.5364C160.998 86.3396 160.857 86.2018 160.741 86.0503C158.849 83.5908 156.954 81.1333 155.06 78.6754C154.192 77.5486 153.318 76.4269 152.461 75.292C152.247 75.0088 151.998 74.8298 151.66 74.7128C147.954 73.4295 144.252 72.1318 140.55 70.8383C140.352 70.7691 140.152 70.702 139.958 70.6247C139.904 70.6034 139.864 70.5479 139.813 70.5042C139.94 70.3557 140.103 70.3339 140.251 70.2825C143.101 69.29 145.951 68.2974 148.801 67.3049C149.807 66.9545 150.809 66.5925 151.82 66.26C152.16 66.1486 152.405 65.961 152.619 65.6808C154.595 63.1018 156.579 60.53 158.562 57.9571C159.292 57.0098 160.025 56.0645 160.755 55.1178C160.873 54.9652 160.986 54.8086 161.116 54.6337C161.05 54.4639 160.99 54.2991 160.923 54.1379C159.729 51.293 158.534 48.4491 157.34 45.6047C155.953 42.2986 154.566 38.992 153.18 35.6849C153.133 35.5715 153.101 35.4515 153.04 35.2664C153.157 35.3178 153.22 35.3279 153.257 35.364C153.408 35.5105 153.552 35.6635 153.696 35.8171C156.703 39.024 159.71 42.232 162.718 45.4384C165.538 48.4445 168.359 51.4496 171.179 54.4562C171.288 54.5727 171.391 54.6952 171.497 54.8152C171.433 55.0303 171.284 55.161 171.164 55.3069C169.573 57.2422 167.979 59.1749 166.387 61.1091C163.911 64.1162 161.436 67.1239 158.961 70.132C158.869 70.2434 158.785 70.3613 158.711 70.4595C158.707 70.6512 158.832 70.7447 158.922 70.854C160.512 72.7898 162.105 74.7235 163.697 76.6578C165.442 78.7796 167.185 80.904 168.937 83.0213C169.149 83.2781 169.279 83.5623 169.381 83.8715C170.15 86.2023 170.925 88.5317 171.695 90.8625C173.402 96.0291 175.107 101.196 176.807 106.364C176.865 106.539 176.98 106.712 176.935 106.911C176.786 106.939 176.751 106.828 176.697 106.759C176.258 106.2 175.823 105.637 175.389 105.074C172.252 101.003 169.116 96.9312 165.979 92.8598C165.893 92.7454 165.798 92.6366 165.672 92.4825Z" fill="#A59480"/>
<path d="M167.159 91.9511C167.09 91.8616 167.018 91.7752 166.935 91.6745L166.822 91.5388L165.792 90.2833L164.631 91.4198L164.518 91.5301C164.425 91.6191 164.348 91.6944 164.275 91.7727C164.275 91.7727 158.509 97.9191 157.418 99.0825C159.031 95.243 160.644 91.4035 162.256 87.5635C162.304 87.4501 162.349 87.3352 162.394 87.2203L162.644 86.5872L162.479 86.0777C162.342 85.6572 162.11 85.375 161.972 85.2062C161.955 85.1854 161.938 85.165 161.921 85.1442C160.331 83.0783 158.74 81.0133 157.149 78.9484L155.555 76.88C154.927 76.0669 154.277 75.2264 153.65 74.396C153.258 73.8774 152.767 73.5215 152.148 73.3074C149.475 72.382 146.763 71.4342 144.121 70.5108L149.292 68.7098C149.579 68.6096 149.865 68.5089 150.152 68.4082C150.852 68.1616 151.577 67.9069 152.286 67.6735C152.9 67.4716 153.396 67.1157 153.802 66.5859C155.465 64.4152 157.163 62.212 158.805 60.0815L159.742 58.8652C160.139 58.3501 160.537 57.8355 160.934 57.3215C161.268 56.8898 161.601 56.4586 161.935 56.0264C162.021 55.9145 162.105 55.8011 162.194 55.6801L162.802 54.862L162.505 54.0952L162.447 53.9432C162.397 53.814 162.349 53.6869 162.297 53.5618C162.297 53.5618 157.86 42.9932 157.434 41.9752L169.567 54.9093C168.687 55.9791 167.806 57.0479 166.926 58.1172L165.241 60.1633C162.764 63.1705 160.289 66.1786 157.814 69.1867C157.735 69.2828 157.66 69.383 157.591 69.4766L157.53 69.5584L157.235 69.9449L157.226 70.4305C157.211 71.1769 157.631 71.6401 157.769 71.7927L157.784 71.8094C158.866 73.1259 159.958 74.453 161.05 75.7796L163.942 79.2947C165.224 80.8542 166.506 82.4137 167.793 83.9696C167.858 84.0484 167.913 84.1618 167.971 84.3377C168.374 85.5591 168.779 86.7799 169.183 88.0003C169.551 89.1098 169.919 90.2193 170.285 91.3293C171.186 94.0577 172.087 96.7862 172.987 99.5147L167.159 91.9511Z" fill="#A59480"/>
<path d="M199.024 70.4971C198.78 70.0903 198.432 69.7496 198.135 69.3718C197.835 68.991 197.519 68.6223 197.211 68.2481C196.913 67.8861 196.616 67.524 196.318 67.162C196.01 66.7872 195.702 66.413 195.394 66.0388C195.086 65.664 194.778 65.2893 194.47 64.915C194.162 64.5408 193.852 64.1666 193.544 63.7923C193.236 63.4181 192.928 63.0438 192.619 62.6691C192.321 62.3071 192.025 61.944 191.727 61.5825C191.419 61.2083 191.109 60.835 190.801 60.4608C190.492 60.0866 190.184 59.7118 189.876 59.3371C189.568 58.9623 189.26 58.5876 188.952 58.2133C188.654 57.8513 188.356 57.4903 188.058 57.1283C187.75 56.754 187.442 56.3793 187.134 56.0045C186.828 55.6308 186.523 55.2555 186.199 54.8594C186.307 54.7303 186.393 54.6164 186.49 54.5127C188.9 51.9413 191.311 49.3715 193.722 46.8011C197.218 43.0755 200.713 39.35 204.21 35.6264C204.328 35.5013 204.421 35.3386 204.611 35.2888C204.697 35.4367 204.599 35.5481 204.554 35.6574C204.203 36.5086 203.845 37.3567 203.488 38.2059C201.274 43.4777 199.056 48.7491 196.847 54.023C196.548 54.7369 196.52 54.53 196.984 55.1335C199.694 58.6567 202.412 62.1744 205.12 65.6991C205.325 65.9656 205.556 66.1399 205.88 66.2518C209.679 67.5616 213.474 68.8857 217.269 70.2072C217.48 70.2805 217.688 70.3628 217.957 70.4635C217.836 70.55 217.773 70.6186 217.694 70.6466C216.798 70.9684 215.9 71.2867 215.001 71.601C212.03 72.6393 209.06 73.6852 206.082 74.7042C205.615 74.8644 205.279 75.1171 204.982 75.505C202.497 78.7527 199.997 81.9886 197.501 85.2281C197.294 85.4971 197.097 85.7742 196.874 86.0305C196.662 86.2756 196.601 86.5008 196.758 86.8156C196.996 87.291 197.18 87.7939 197.387 88.285C199.769 93.9591 202.151 99.6337 204.532 105.308C204.586 105.437 204.627 105.572 204.698 105.773C204.579 105.73 204.515 105.724 204.478 105.69C204.359 105.58 204.249 105.461 204.139 105.343C200.235 101.181 196.331 97.0191 192.426 92.8572C192.317 92.7413 192.204 92.6305 192.096 92.5196C191.916 92.5761 191.855 92.7169 191.769 92.8278C190.278 94.76 188.79 96.6942 187.3 98.6279C185.308 101.215 183.316 103.802 181.322 106.388C181.177 106.577 181.039 106.774 180.867 106.932C180.736 106.88 180.773 106.791 180.795 106.722C180.949 106.246 181.109 105.771 181.266 105.296C183.591 98.2577 185.919 91.221 188.233 84.1791C188.419 83.6147 188.691 83.1291 189.069 82.6725C192.292 78.7725 195.503 74.8618 198.716 70.9532C198.827 70.8179 198.969 70.7005 199.024 70.4971Z" fill="#A59480"/>
<path d="M184.748 99.5045C186.367 94.6044 188.023 89.5898 189.648 84.6433C189.772 84.2645 189.954 83.9391 190.217 83.6198C192.986 80.271 195.789 76.8586 198.501 73.5586L199.866 71.8974C199.877 71.8847 199.889 71.872 199.901 71.8588C200.049 71.694 200.325 71.3869 200.46 70.8871L200.626 70.2754L200.3 69.7318C200.073 69.353 199.809 69.0459 199.575 68.7749C199.483 68.6681 199.391 68.5618 199.304 68.451C199.087 68.1754 198.866 67.9094 198.651 67.6522C198.554 67.5357 198.457 67.4193 198.36 67.3018L195.619 63.9688C195.619 63.9688 194.069 62.0884 193.77 61.7238L192.876 60.6357L191.949 59.5135C191.682 59.1901 190.716 58.014 190.716 58.014L189.207 56.182C188.899 55.8083 188.591 55.435 188.285 55.0608C188.243 55.0094 188.201 54.9581 188.159 54.9067C190.278 52.6461 192.399 50.3859 194.519 48.1257C194.519 48.1257 198.753 43.613 200.291 41.9737C198.685 45.7974 197.078 49.6211 195.475 53.4469C195.438 53.5344 195.406 53.6066 195.379 53.6666C194.994 54.5305 195.071 55.1244 195.663 55.8586C195.703 55.9079 195.75 55.9669 195.806 56.0396C197.025 57.625 198.246 59.2094 199.468 60.7933C200.96 62.7296 202.452 64.6659 203.942 66.6042C204.329 67.1086 204.805 67.4528 205.397 67.6567C208.132 68.6 210.906 69.5645 213.617 70.5083L212.655 70.8449C210.345 71.6538 207.956 72.4898 205.603 73.2947C204.872 73.5443 204.283 73.9715 203.803 74.5989C201.889 77.1001 199.933 79.6369 198.042 82.0908L196.325 84.3189C196.263 84.3993 196.201 84.4811 196.139 84.563C196.005 84.7415 195.878 84.9098 195.753 85.0537C195.133 85.7676 195.015 86.6518 195.429 87.4791C195.572 87.7638 195.699 88.0786 195.834 88.4111C195.894 88.5606 195.955 88.7106 196.017 88.8591C197.447 92.2664 198.878 95.6737 200.308 99.081L193.513 91.8372C193.428 91.7472 193.341 91.6588 193.255 91.5718L193.158 91.4752L192.52 90.8254L191.651 91.0984C191.02 91.2967 190.712 91.7427 190.596 91.911L190.585 91.9267C189.408 93.4516 188.232 94.9786 187.057 96.505C187.057 96.5066 184.984 99.1979 184.748 99.5045Z" fill="#A59480"/>
<path d="M161.63 34.3847C161.814 34.2494 161.966 34.132 162.124 34.0211C162.996 33.4064 163.865 32.7881 164.744 32.1835C164.994 32.0116 165.159 31.8011 165.281 31.5235C167.897 25.5962 170.519 19.6725 173.141 13.7483C174.945 9.6708 176.751 5.59385 178.56 1.51792C178.636 1.34605 178.682 1.15182 178.825 1.01758C179.006 1.04097 179.018 1.19198 179.067 1.30029C179.523 2.31775 179.974 3.33673 180.425 4.35622C182.656 9.39368 184.887 14.4311 187.116 19.4686C188.888 23.4723 190.662 27.475 192.425 31.4823C192.561 31.792 192.745 32.0233 193.024 32.2135C193.891 32.8059 194.746 33.4171 195.604 34.0227C195.761 34.1335 195.914 34.251 196.049 34.3511C196.094 34.5403 195.967 34.6155 195.884 34.7055C195.107 35.5501 194.326 36.3916 193.547 37.2347C190.298 40.7483 187.049 44.2618 183.798 47.7738C183.681 47.901 183.583 48.055 183.419 48.1298C183.306 48.0215 183.393 47.9325 183.426 47.8572C183.678 47.2801 183.938 46.7061 184.198 46.132C185.608 43.0105 187.021 39.8905 188.426 36.7669C188.728 36.0952 188.715 36.2991 188.439 35.6355C186.04 29.8623 183.637 24.0906 181.233 18.3194C181.136 18.0871 181.058 17.8415 180.882 17.5898C180.582 18.1074 180.42 18.6296 180.204 19.1259C179.99 19.6145 179.788 20.1077 179.58 20.5989C179.367 21.1028 179.171 21.6144 178.944 22.0898C178.744 22.1269 178.727 21.984 178.688 21.892C178.414 21.2538 178.147 20.6122 177.879 19.9715C177.591 19.2861 177.306 18.6001 177.016 17.9157C176.975 17.8181 176.918 17.7276 176.861 17.6218C176.674 17.7728 176.64 17.9722 176.568 18.1445C175.652 20.3355 174.742 22.5291 173.83 24.7216C172.315 28.3608 170.797 31.9984 169.285 35.6386C169.01 36.2996 168.997 36.0957 169.301 36.7699C170.931 40.3944 172.57 44.0152 174.204 47.6381C174.269 47.7815 174.321 47.9305 174.376 48.0677C174.285 48.1476 174.235 48.0977 174.191 48.0535C174.067 47.9264 173.946 47.7962 173.825 47.666C169.884 43.405 165.943 39.144 162.004 34.8815C161.875 34.7432 161.716 34.6232 161.63 34.3847Z" fill="#A59480"/>
<path d="M163.814 34.6491C164.398 34.2367 164.996 33.8157 165.587 33.4094C166.058 33.085 166.404 32.6645 166.642 32.124C169.193 26.3447 171.75 20.5679 174.307 14.7906L174.501 14.3503C175.955 11.0671 177.408 7.78487 178.863 4.50266C178.903 4.59368 179.341 5.58215 179.341 5.58215C181.48 10.4116 183.618 15.2406 185.756 20.0706L186.465 21.6728C187.975 25.0832 189.536 28.61 191.063 32.0813C191.315 32.6538 191.682 33.0988 192.184 33.442C192.76 33.8355 193.344 34.2464 193.912 34.6486C193.655 34.9272 188.971 39.9911 188.256 40.7645C188.766 39.6357 189.275 38.5069 189.783 37.3776C189.817 37.3028 189.846 37.2398 189.871 37.1859C190.216 36.4455 190.225 35.9996 189.904 35.2766C189.879 35.2191 189.848 35.1505 189.813 35.065C187.414 29.2913 185.01 23.5191 182.606 17.7479C182.59 17.7098 182.574 17.6706 182.559 17.6315C182.467 17.4001 182.342 17.0833 182.102 16.7401L180.766 14.8237L179.594 16.8449C179.333 17.2959 179.164 17.7255 179.014 18.1049C178.964 18.2294 178.916 18.353 178.864 18.475C178.706 18.0957 178.546 17.7169 178.387 17.3381C178.326 17.1942 178.261 17.0783 178.213 16.9933C178.2 16.971 178.187 16.9481 178.175 16.9242L177.329 15.3347L175.928 16.4645C175.456 16.8454 175.291 17.3066 175.212 17.5277L175.195 17.5745C174.579 19.0471 173.965 20.5247 173.35 22.0018L170.96 27.744C169.943 30.1852 168.926 32.6259 167.912 35.0681C167.877 35.1525 167.846 35.2206 167.821 35.2776C167.501 36.0006 167.509 36.4466 167.855 37.1869C167.881 37.2413 167.91 37.3049 167.944 37.3801C168.452 38.5084 168.96 39.6362 169.469 40.764C167.583 38.7266 165.698 36.6886 163.814 34.6491Z" fill="#A59480"/>
<path d="M132.268 101.294C132.349 101.119 132.39 101.016 132.444 100.919C133.521 98.9544 142.62 83.3686 142.927 82.9608C143.189 82.8835 143.462 82.9415 143.734 82.9552C144.025 82.9699 144.314 82.9944 144.604 83.0106C145.636 83.0691 146.668 83.1261 147.7 83.1835C147.764 83.1871 147.829 83.1911 147.894 83.1942C148.813 83.2349 149.733 83.2705 150.652 83.3188C151.1 83.3421 151.546 83.3889 151.997 83.425C152.07 83.6299 152.027 83.8074 152.002 83.9772C151.827 85.1421 151.641 86.3055 151.464 87.4705C151.288 88.6354 151.118 89.8013 150.945 90.9667C150.908 91.222 150.868 91.4772 150.834 91.7335C150.806 91.943 150.701 92.0808 150.507 92.1759C149.942 92.453 149.384 92.7444 148.822 93.0286C143.523 95.7133 138.223 98.3981 132.924 101.083C132.794 101.148 132.665 101.217 132.531 101.272C132.477 101.294 132.411 101.284 132.268 101.294Z" fill="#A59480"/>
<path d="M135.879 97.9176C138.442 93.4908 142.467 86.605 143.759 84.4466C143.874 84.4532 143.988 84.4613 144.103 84.4689C144.242 84.4786 144.381 84.4878 144.52 84.4959C145.293 84.5396 146.066 84.5828 146.839 84.6255C146.839 84.6255 147.774 84.6779 147.825 84.68L148.649 84.7156C149.223 84.74 149.797 84.7649 150.371 84.7934C150.328 85.0766 150.284 85.3593 150.24 85.6425C150.156 86.1774 150.073 86.7118 149.992 87.2472C149.867 88.0715 149.746 88.8962 149.624 89.721C149.624 89.721 149.433 91.0125 149.427 91.0506C149.181 91.1742 148.936 91.2998 148.69 91.4254C148.51 91.5179 148.33 91.61 148.149 91.7015L135.879 97.9176Z" fill="#A59480"/>
<path d="M205.7 83.4225C206.223 83.3833 206.688 83.3442 207.155 83.3142C207.654 83.2822 208.154 83.2567 208.654 83.2323C209.541 83.1891 210.429 83.153 211.316 83.1062C212.235 83.0579 213.154 82.9999 214.072 82.9471C214.25 82.9369 214.427 82.9323 214.605 82.9247C214.749 82.9186 214.85 82.9822 214.922 83.1052C215.003 83.245 215.089 83.3813 215.171 83.5211C218.507 89.2593 221.844 94.9969 225.177 100.737C225.27 100.897 225.405 101.045 225.407 101.281C225.329 101.281 225.262 101.297 225.211 101.277C225.091 101.231 224.977 101.168 224.862 101.109C219.044 98.1621 213.226 95.2145 207.408 92.2674C207.394 92.2603 207.379 92.2511 207.365 92.246C207.042 92.1291 206.911 91.9054 206.865 91.5571C206.707 90.3571 206.508 89.1627 206.328 87.9657C206.15 86.7845 205.976 85.6033 205.8 84.4221C205.767 84.1989 205.73 83.9757 205.703 83.7515C205.69 83.6594 205.7 83.5644 205.7 83.4225Z" fill="#A59480"/>
<path d="M208.297 91.0517C208.195 90.3088 208.081 89.5725 207.969 88.8566C207.912 88.4859 207.854 88.1157 207.798 87.745C207.671 86.905 207.546 86.065 207.422 85.2251L207.357 84.7923C207.832 84.7628 208.31 84.7389 208.726 84.7186C209.079 84.7013 209.433 84.6856 209.786 84.6693C210.322 84.6449 210.858 84.6205 211.394 84.592C211.986 84.561 212.578 84.5259 213.17 84.4903C213.441 84.4745 213.712 84.4583 213.984 84.4425L214.488 85.3089C216.926 89.5034 219.366 93.6983 221.803 97.8932L208.297 91.0517Z" fill="#A59480"/>
<path d="M132.3 39.7527C132.391 39.7527 132.457 39.7359 132.509 39.7562C132.629 39.8025 132.742 39.8655 132.857 39.924C138.665 42.865 144.472 45.8055 150.279 48.7466C150.322 48.7684 150.364 48.7954 150.41 48.8101C150.714 48.9098 150.807 49.1381 150.85 49.4361C151.057 50.8745 151.28 52.311 151.499 53.7479C151.666 54.8498 151.835 55.9511 151.998 57.0535C152.023 57.2244 152.064 57.4013 151.996 57.5905C151.93 57.6077 151.87 57.6337 151.809 57.6372C151.035 57.6779 150.26 57.7115 149.486 57.7537C148.631 57.8005 147.776 57.8549 146.921 57.9057C146.84 57.9103 146.76 57.9174 146.679 57.921C145.743 57.9632 144.807 58.0028 143.87 58.0476C143.645 58.0583 143.419 58.0811 143.194 58.1025C143.016 58.1193 142.88 58.0628 142.789 57.9016C142.686 57.7186 142.576 57.5396 142.47 57.3581C139.166 51.6718 135.861 45.9855 132.558 40.2988C132.463 40.1355 132.342 39.982 132.3 39.7527Z" fill="#A59480"/>
<path d="M135.935 43.1503L149.425 49.9822C149.566 50.9503 149.715 51.925 149.86 52.8708C149.86 52.8708 150.302 55.7717 150.369 56.2181C150.047 56.2339 149.725 56.2501 149.404 56.2674C148.794 56.301 148.184 56.3381 147.575 56.3752L146.832 56.42L146.724 56.4271C146.686 56.4296 146.648 56.4327 146.611 56.4342L145.769 56.4713C145.113 56.5003 144.456 56.5293 143.799 56.5608C143.776 56.5618 143.753 56.5634 143.73 56.5644C141.131 52.0933 138.533 47.6218 135.935 43.1503Z" fill="#A59480"/>
<path d="M225.447 39.7771C225.362 39.9403 225.302 40.07 225.23 40.1925C223.518 43.1411 221.806 46.0893 220.092 49.0369C218.427 51.9006 216.759 54.7623 215.096 57.6271C214.803 58.1305 214.833 58.1437 214.22 58.072C214.14 58.0628 214.059 58.0552 213.978 58.0516C213.058 58.0099 212.138 57.9749 211.218 57.9266C210.347 57.8808 209.476 57.8193 208.605 57.7684C208.363 57.7542 208.121 57.7552 207.878 57.7425C207.217 57.7089 206.555 57.6728 205.894 57.6352C205.847 57.6327 205.803 57.6108 205.763 57.5996C205.636 57.4659 205.697 57.3138 205.715 57.1776C205.782 56.665 205.861 56.1545 205.938 55.6435C206.122 54.4298 206.308 53.2171 206.492 52.0033C206.627 51.1089 206.763 50.215 206.891 49.3196C206.924 49.0888 207.037 48.9469 207.247 48.8442C207.914 48.5167 208.573 48.174 209.236 47.8379C214.424 45.2101 219.611 42.5828 224.798 39.956C224.942 39.8833 225.087 39.8101 225.237 39.7516C225.284 39.7333 225.348 39.7633 225.447 39.7771Z" fill="#A59480"/>
<path d="M213.129 56.5247C212.518 56.4988 211.907 56.4723 211.296 56.4403C210.771 56.4123 210.246 56.3793 209.72 56.3462C209.378 56.3243 209.035 56.303 208.693 56.2827C208.547 56.274 208.401 56.2699 208.254 56.2664C208.154 56.2638 208.054 56.2613 207.953 56.2562C207.754 56.246 207.554 56.2359 207.355 56.2252C207.363 56.1708 207.588 54.6901 207.677 54.1028C207.773 53.4769 207.868 52.851 207.963 52.225L208.001 51.9703C208.101 51.3077 208.202 50.6457 208.299 49.9827C208.632 49.8159 208.963 49.6466 209.286 49.4818C209.494 49.376 209.701 49.2703 209.909 49.165C213.871 47.1581 217.833 45.1506 221.796 43.1442C220.8 44.8593 219.803 46.5744 218.806 48.2889C218.122 49.4645 217.439 50.6396 216.754 51.8147C215.833 53.3971 214.912 54.9794 213.993 56.5628C213.705 56.5496 213.417 56.5374 213.129 56.5247Z" fill="#A59480"/>
<path d="M178.914 86.8842C178.701 86.7708 178.709 86.6065 178.669 86.4789C178.434 85.707 178.211 84.9311 177.984 84.1567C176.542 79.2133 175.098 74.2704 173.659 69.326C173.427 68.5313 173.368 68.7418 173.903 68.0782C175.363 66.2665 176.825 64.4564 178.289 62.6477C178.459 62.4372 178.61 62.2059 178.853 62.0177C178.943 62.0976 179.035 62.1596 179.102 62.2415C179.543 62.7784 179.98 63.3189 180.416 63.8594C181.564 65.2801 182.71 66.7008 183.857 68.1215C183.888 68.1591 183.914 68.2013 183.95 68.2333C184.219 68.4794 184.248 68.7454 184.141 69.1038C183.265 72.0433 182.412 74.9894 181.552 77.9335C180.725 80.7693 179.897 83.605 179.068 86.4403C179.028 86.5776 178.975 86.7108 178.914 86.8842Z" fill="#A59480"/>
<path d="M178.541 80.753C177.394 76.8225 176.247 72.8925 175.102 68.9615C176.354 67.4081 177.608 65.8557 178.863 64.3044C178.995 64.4681 182.629 68.9691 182.629 68.9691C181.977 71.1616 181.332 73.3735 180.709 75.5157C180.709 75.5157 179.038 81.2411 178.861 81.8477L178.541 80.753Z" fill="#A59480"/>
<path d="M165.672 92.4825C165.54 92.6122 165.445 92.6981 165.358 92.7906C161.454 96.952 157.551 101.114 153.646 105.275C153.484 105.448 153.341 105.646 153.128 105.772C153 105.611 153.111 105.498 153.155 105.392C153.486 104.586 153.828 103.783 154.166 102.979C156.405 97.6486 158.645 92.3178 160.883 86.9869C160.946 86.8384 161.002 86.6879 161.062 86.5364C160.998 86.3396 160.857 86.2018 160.741 86.0503C158.849 83.5908 156.954 81.1333 155.06 78.6754C154.192 77.5486 153.318 76.4269 152.461 75.292C152.247 75.0088 151.998 74.8298 151.66 74.7128C147.954 73.4295 144.252 72.1318 140.55 70.8383C140.352 70.7691 140.152 70.702 139.958 70.6247C139.904 70.6034 139.864 70.5479 139.813 70.5042C139.94 70.3557 140.103 70.3339 140.251 70.2825C143.101 69.29 145.951 68.2974 148.801 67.3049C149.807 66.9545 150.809 66.5925 151.82 66.26C152.16 66.1486 152.405 65.961 152.619 65.6808C154.595 63.1018 156.579 60.53 158.562 57.9571C159.292 57.0098 160.025 56.0645 160.755 55.1178C160.873 54.9652 160.986 54.8086 161.116 54.6337C161.05 54.4639 160.99 54.2991 160.923 54.1379C159.729 51.293 158.534 48.4491 157.34 45.6047C155.953 42.2986 154.566 38.992 153.18 35.6849C153.133 35.5715 153.101 35.4515 153.04 35.2664C153.157 35.3178 153.22 35.3279 153.257 35.364C153.408 35.5105 153.552 35.6635 153.696 35.8171C156.703 39.024 159.71 42.232 162.718 45.4384C165.538 48.4445 168.359 51.4496 171.179 54.4562C171.288 54.5727 171.391 54.6952 171.497 54.8152C171.433 55.0303 171.284 55.161 171.164 55.3069C169.573 57.2422 167.979 59.1749 166.387 61.1091C163.911 64.1162 161.436 67.1239 158.961 70.132C158.869 70.2434 158.785 70.3613 158.711 70.4595C158.707 70.6512 158.832 70.7447 158.922 70.854C160.512 72.7898 162.105 74.7235 163.697 76.6578C165.442 78.7796 167.185 80.904 168.937 83.0213C169.149 83.2781 169.279 83.5623 169.381 83.8715C170.15 86.2023 170.925 88.5317 171.695 90.8625C173.402 96.0291 175.107 101.196 176.807 106.364C176.865 106.539 176.98 106.712 176.935 106.911C176.786 106.939 176.751 106.828 176.697 106.759C176.258 106.2 175.823 105.637 175.389 105.074C172.252 101.003 169.116 96.9312 165.979 92.8598C165.893 92.7454 165.798 92.6366 165.672 92.4825Z" stroke="#A59480" stroke-width="0.9753" stroke-miterlimit="10"/>
<path d="M167.159 91.9511C167.09 91.8616 167.018 91.7752 166.935 91.6745L166.822 91.5388L165.792 90.2833L164.631 91.4198L164.518 91.5301C164.425 91.6191 164.348 91.6944 164.275 91.7727C164.275 91.7727 158.509 97.9191 157.418 99.0825C159.031 95.243 160.644 91.4035 162.256 87.5635C162.304 87.4501 162.349 87.3352 162.394 87.2203L162.644 86.5872L162.479 86.0777C162.342 85.6572 162.11 85.375 161.972 85.2062C161.955 85.1854 161.938 85.165 161.921 85.1442C160.331 83.0783 158.74 81.0133 157.149 78.9484L155.555 76.88C154.927 76.0669 154.277 75.2264 153.65 74.396C153.258 73.8774 152.767 73.5215 152.148 73.3074C149.475 72.382 146.763 71.4342 144.121 70.5108L149.292 68.7098C149.579 68.6096 149.865 68.5089 150.152 68.4082C150.852 68.1616 151.577 67.9069 152.286 67.6735C152.9 67.4716 153.396 67.1157 153.802 66.5859C155.465 64.4152 157.163 62.212 158.805 60.0815L159.742 58.8652C160.139 58.3501 160.537 57.8355 160.934 57.3215C161.268 56.8898 161.601 56.4586 161.935 56.0264C162.021 55.9145 162.105 55.8011 162.194 55.6801L162.802 54.862L162.505 54.0952L162.447 53.9432C162.397 53.814 162.349 53.6869 162.297 53.5618C162.297 53.5618 157.86 42.9932 157.434 41.9752L169.567 54.9093C168.687 55.9791 167.806 57.0479 166.926 58.1172L165.241 60.1633C162.764 63.1705 160.289 66.1786 157.814 69.1867C157.735 69.2828 157.66 69.383 157.591 69.4766L157.53 69.5584L157.235 69.9449L157.226 70.4305C157.211 71.1769 157.631 71.6401 157.769 71.7927L157.784 71.8094C158.866 73.1259 159.958 74.453 161.05 75.7796L163.942 79.2947C165.224 80.8542 166.506 82.4137 167.793 83.9696C167.858 84.0484 167.913 84.1618 167.971 84.3377C168.374 85.5591 168.779 86.7799 169.183 88.0003C169.551 89.1098 169.919 90.2193 170.285 91.3293C171.186 94.0577 172.087 96.7862 172.987 99.5147L167.159 91.9511Z" stroke="#A59480" stroke-width="0.9753" stroke-miterlimit="10"/>
<path d="M199.024 70.4971C198.78 70.0903 198.432 69.7496 198.135 69.3718C197.835 68.991 197.519 68.6223 197.211 68.2481C196.913 67.8861 196.616 67.524 196.318 67.162C196.01 66.7872 195.702 66.413 195.394 66.0388C195.086 65.664 194.778 65.2893 194.47 64.915C194.162 64.5408 193.852 64.1666 193.544 63.7923C193.236 63.4181 192.928 63.0438 192.619 62.6691C192.321 62.3071 192.025 61.944 191.727 61.5825C191.419 61.2083 191.109 60.835 190.801 60.4608C190.492 60.0866 190.184 59.7118 189.876 59.3371C189.568 58.9623 189.26 58.5876 188.952 58.2133C188.654 57.8513 188.356 57.4903 188.058 57.1283C187.75 56.754 187.442 56.3793 187.134 56.0045C186.828 55.6308 186.523 55.2555 186.199 54.8594C186.307 54.7303 186.393 54.6164 186.49 54.5127C188.9 51.9413 191.311 49.3715 193.722 46.8011C197.218 43.0755 200.713 39.35 204.21 35.6264C204.328 35.5013 204.421 35.3386 204.611 35.2888C204.697 35.4367 204.599 35.5481 204.554 35.6574C204.203 36.5086 203.845 37.3567 203.488 38.2059C201.274 43.4777 199.056 48.7491 196.847 54.023C196.548 54.7369 196.52 54.53 196.984 55.1335C199.694 58.6567 202.412 62.1744 205.12 65.6991C205.325 65.9656 205.556 66.1399 205.88 66.2518C209.679 67.5616 213.474 68.8857 217.269 70.2072C217.48 70.2805 217.688 70.3628 217.957 70.4635C217.836 70.55 217.773 70.6186 217.694 70.6466C216.798 70.9684 215.9 71.2867 215.001 71.601C212.03 72.6393 209.06 73.6852 206.082 74.7042C205.615 74.8644 205.279 75.1171 204.982 75.505C202.497 78.7527 199.997 81.9886 197.501 85.2281C197.294 85.4971 197.097 85.7742 196.874 86.0305C196.662 86.2756 196.601 86.5008 196.758 86.8156C196.996 87.291 197.18 87.7939 197.387 88.285C199.769 93.9591 202.151 99.6337 204.532 105.308C204.586 105.437 204.627 105.572 204.698 105.773C204.579 105.73 204.515 105.724 204.478 105.69C204.359 105.58 204.249 105.461 204.139 105.343C200.235 101.181 196.331 97.0191 192.426 92.8572C192.317 92.7413 192.204 92.6305 192.096 92.5196C191.916 92.5761 191.855 92.7169 191.769 92.8278C190.278 94.76 188.79 96.6942 187.3 98.6279C185.308 101.215 183.316 103.802 181.322 106.388C181.177 106.577 181.039 106.774 180.867 106.932C180.736 106.88 180.773 106.791 180.795 106.722C180.949 106.246 181.109 105.771 181.266 105.296C183.591 98.2577 185.919 91.221 188.233 84.1791C188.419 83.6147 188.691 83.1291 189.069 82.6725C192.292 78.7725 195.503 74.8618 198.716 70.9532C198.827 70.8179 198.969 70.7005 199.024 70.4971Z" stroke="#A59480" stroke-width="0.9753" stroke-miterlimit="10"/>
<path d="M184.748 99.5045C186.367 94.6044 188.023 89.5898 189.648 84.6433C189.772 84.2645 189.954 83.9391 190.217 83.6198C192.986 80.271 195.789 76.8586 198.501 73.5586L199.866 71.8974C199.877 71.8847 199.889 71.872 199.901 71.8588C200.049 71.694 200.325 71.3869 200.46 70.8871L200.626 70.2754L200.3 69.7318C200.073 69.353 199.809 69.0459 199.575 68.7749C199.483 68.6681 199.391 68.5618 199.304 68.451C199.087 68.1754 198.866 67.9094 198.651 67.6522C198.554 67.5357 198.457 67.4193 198.36 67.3018L195.619 63.9688C195.619 63.9688 194.069 62.0884 193.77 61.7238L192.876 60.6357L191.949 59.5135C191.682 59.1901 190.716 58.014 190.716 58.014L189.207 56.182C188.899 55.8083 188.591 55.435 188.285 55.0608C188.243 55.0094 188.201 54.9581 188.159 54.9067C190.278 52.6461 192.399 50.3859 194.519 48.1257C194.519 48.1257 198.753 43.613 200.291 41.9737C198.685 45.7974 197.078 49.6211 195.475 53.4469C195.438 53.5344 195.406 53.6066 195.379 53.6666C194.994 54.5305 195.071 55.1244 195.663 55.8586C195.703 55.9079 195.75 55.9669 195.806 56.0396C197.025 57.625 198.246 59.2094 199.468 60.7933C200.96 62.7296 202.452 64.6659 203.942 66.6042C204.329 67.1086 204.805 67.4528 205.397 67.6567C208.132 68.6 210.906 69.5645 213.617 70.5083L212.655 70.8449C210.345 71.6538 207.956 72.4898 205.603 73.2947C204.872 73.5443 204.283 73.9715 203.803 74.5989C201.889 77.1001 199.933 79.6369 198.042 82.0908L196.325 84.3189C196.263 84.3993 196.201 84.4811 196.139 84.563C196.005 84.7415 195.878 84.9098 195.753 85.0537C195.133 85.7676 195.015 86.6518 195.429 87.4791C195.572 87.7638 195.699 88.0786 195.834 88.4111C195.894 88.5606 195.955 88.7106 196.017 88.8591C197.447 92.2664 198.878 95.6737 200.308 99.081L193.513 91.8372C193.428 91.7472 193.341 91.6588 193.255 91.5718L193.158 91.4752L192.52 90.8254L191.651 91.0984C191.02 91.2967 190.712 91.7427 190.596 91.911L190.585 91.9267C189.408 93.4516 188.232 94.9786 187.057 96.505C187.057 96.5066 184.984 99.1979 184.748 99.5045Z" stroke="#A59480" stroke-width="0.9753" stroke-miterlimit="10"/>
<path d="M161.63 34.3847C161.814 34.2494 161.966 34.132 162.124 34.0211C162.996 33.4064 163.865 32.7881 164.744 32.1835C164.994 32.0116 165.159 31.8011 165.281 31.5235C167.897 25.5962 170.519 19.6725 173.141 13.7483C174.945 9.6708 176.751 5.59385 178.56 1.51792C178.636 1.34605 178.682 1.15182 178.825 1.01758C179.006 1.04097 179.018 1.19198 179.067 1.30029C179.523 2.31775 179.974 3.33673 180.425 4.35622C182.656 9.39368 184.887 14.4311 187.116 19.4686C188.888 23.4723 190.662 27.475 192.425 31.4823C192.561 31.792 192.745 32.0233 193.024 32.2135C193.891 32.8059 194.746 33.4171 195.604 34.0227C195.761 34.1335 195.914 34.251 196.049 34.3511C196.094 34.5403 195.967 34.6155 195.884 34.7055C195.107 35.5501 194.326 36.3916 193.547 37.2347C190.298 40.7483 187.049 44.2618 183.798 47.7738C183.681 47.901 183.583 48.055 183.419 48.1298C183.306 48.0215 183.393 47.9325 183.426 47.8572C183.678 47.2801 183.938 46.7061 184.198 46.132C185.608 43.0105 187.021 39.8905 188.426 36.7669C188.728 36.0952 188.715 36.2991 188.439 35.6355C186.04 29.8623 183.637 24.0906 181.233 18.3194C181.136 18.0871 181.058 17.8415 180.882 17.5898C180.582 18.1074 180.42 18.6296 180.204 19.1259C179.99 19.6145 179.788 20.1077 179.58 20.5989C179.367 21.1028 179.171 21.6144 178.944 22.0898C178.744 22.1269 178.727 21.984 178.688 21.892C178.414 21.2538 178.147 20.6122 177.879 19.9715C177.591 19.2861 177.306 18.6001 177.016 17.9157C176.975 17.8181 176.918 17.7276 176.861 17.6218C176.674 17.7728 176.64 17.9722 176.568 18.1445C175.652 20.3355 174.742 22.5291 173.83 24.7216C172.315 28.3608 170.797 31.9984 169.285 35.6386C169.01 36.2996 168.997 36.0957 169.301 36.7699C170.931 40.3944 172.57 44.0152 174.204 47.6381C174.269 47.7815 174.321 47.9305 174.376 48.0677C174.285 48.1476 174.235 48.0977 174.191 48.0535C174.067 47.9264 173.946 47.7962 173.825 47.666C169.884 43.405 165.943 39.144 162.004 34.8815C161.875 34.7432 161.716 34.6232 161.63 34.3847Z" stroke="#A59480" stroke-width="0.9753" stroke-miterlimit="10"/>
<path d="M163.814 34.6491C164.398 34.2367 164.996 33.8157 165.587 33.4094C166.058 33.085 166.404 32.6645 166.642 32.124C169.193 26.3447 171.75 20.5679 174.307 14.7906L174.501 14.3503C175.955 11.0671 177.408 7.78487 178.863 4.50266C178.903 4.59368 179.341 5.58215 179.341 5.58215C181.48 10.4116 183.618 15.2406 185.756 20.0706L186.465 21.6728C187.975 25.0832 189.536 28.61 191.063 32.0813C191.315 32.6538 191.682 33.0988 192.184 33.442C192.76 33.8355 193.344 34.2464 193.912 34.6486C193.655 34.9272 188.971 39.9911 188.256 40.7645C188.766 39.6357 189.275 38.5069 189.783 37.3776C189.817 37.3028 189.846 37.2398 189.871 37.1859C190.216 36.4455 190.225 35.9996 189.904 35.2766C189.879 35.2191 189.848 35.1505 189.813 35.065C187.414 29.2913 185.01 23.5191 182.606 17.7479C182.59 17.7098 182.574 17.6706 182.559 17.6315C182.467 17.4001 182.342 17.0833 182.102 16.7401L180.766 14.8237L179.594 16.8449C179.333 17.2959 179.164 17.7255 179.014 18.1049C178.964 18.2294 178.916 18.353 178.864 18.475C178.706 18.0957 178.546 17.7169 178.387 17.3381C178.326 17.1942 178.261 17.0783 178.213 16.9933C178.2 16.971 178.187 16.9481 178.175 16.9242L177.329 15.3347L175.928 16.4645C175.456 16.8454 175.291 17.3066 175.212 17.5277L175.195 17.5745C174.579 19.0471 173.965 20.5247 173.35 22.0018L170.96 27.744C169.943 30.1852 168.926 32.6259 167.912 35.0681C167.877 35.1525 167.846 35.2206 167.821 35.2776C167.501 36.0006 167.509 36.4466 167.855 37.1869C167.881 37.2413 167.91 37.3049 167.944 37.3801C168.452 38.5084 168.96 39.6362 169.469 40.764C167.583 38.7266 165.698 36.6886 163.814 34.6491Z" stroke="#A59480" stroke-width="0.9753" stroke-miterlimit="10"/>
<path d="M132.268 101.294C132.349 101.119 132.39 101.016 132.444 100.919C133.521 98.9544 142.62 83.3686 142.927 82.9608C143.189 82.8835 143.462 82.9415 143.734 82.9552C144.025 82.9699 144.314 82.9944 144.604 83.0106C145.636 83.0691 146.668 83.1261 147.7 83.1835C147.764 83.1871 147.829 83.1911 147.894 83.1942C148.813 83.2349 149.733 83.2705 150.652 83.3188C151.1 83.3421 151.546 83.3889 151.997 83.425C152.07 83.6299 152.027 83.8074 152.002 83.9772C151.827 85.1421 151.641 86.3055 151.464 87.4705C151.288 88.6354 151.118 89.8013 150.945 90.9667C150.908 91.222 150.868 91.4772 150.834 91.7335C150.806 91.943 150.701 92.0808 150.507 92.1759C149.942 92.453 149.384 92.7444 148.822 93.0286C143.523 95.7133 138.223 98.3981 132.924 101.083C132.794 101.148 132.665 101.217 132.531 101.272C132.477 101.294 132.411 101.284 132.268 101.294Z" stroke="#A59480" stroke-width="0.9753" stroke-miterlimit="10"/>
<path d="M135.879 97.9176C138.442 93.4908 142.467 86.605 143.759 84.4466C143.874 84.4532 143.988 84.4613 144.103 84.4689C144.242 84.4786 144.381 84.4878 144.52 84.4959C145.293 84.5396 146.066 84.5828 146.839 84.6255C146.839 84.6255 147.774 84.6779 147.825 84.68L148.649 84.7156C149.223 84.74 149.797 84.7649 150.371 84.7934C150.328 85.0766 150.284 85.3593 150.24 85.6425C150.156 86.1774 150.073 86.7118 149.992 87.2472C149.867 88.0715 149.746 88.8962 149.624 89.721C149.624 89.721 149.433 91.0125 149.427 91.0506C149.181 91.1742 148.936 91.2998 148.69 91.4254C148.51 91.5179 148.33 91.61 148.149 91.7015L135.879 97.9176Z" stroke="#A59480" stroke-width="0.9753" stroke-miterlimit="10"/>
<path d="M205.7 83.4225C206.223 83.3833 206.688 83.3442 207.155 83.3142C207.654 83.2822 208.154 83.2567 208.654 83.2323C209.541 83.1891 210.429 83.153 211.316 83.1062C212.235 83.0579 213.154 82.9999 214.072 82.9471C214.25 82.9369 214.427 82.9323 214.605 82.9247C214.749 82.9186 214.85 82.9822 214.922 83.1052C215.003 83.245 215.089 83.3813 215.171 83.5211C218.507 89.2593 221.844 94.9969 225.177 100.737C225.27 100.897 225.405 101.045 225.407 101.281C225.329 101.281 225.262 101.297 225.211 101.277C225.091 101.231 224.977 101.168 224.862 101.109C219.044 98.1621 213.226 95.2145 207.408 92.2674C207.394 92.2603 207.379 92.2511 207.365 92.246C207.042 92.1291 206.911 91.9054 206.865 91.5571C206.707 90.3571 206.508 89.1627 206.328 87.9657C206.15 86.7845 205.976 85.6033 205.8 84.4221C205.767 84.1989 205.73 83.9757 205.703 83.7515C205.69 83.6594 205.7 83.5644 205.7 83.4225Z" stroke="#A59480" stroke-width="0.9753" stroke-miterlimit="10"/>
<path d="M208.297 91.0517C208.195 90.3088 208.081 89.5725 207.969 88.8566C207.912 88.4859 207.854 88.1157 207.798 87.745C207.671 86.905 207.546 86.065 207.422 85.2251L207.357 84.7923C207.832 84.7628 208.31 84.7389 208.726 84.7186C209.079 84.7013 209.433 84.6856 209.786 84.6693C210.322 84.6449 210.858 84.6205 211.394 84.592C211.986 84.561 212.578 84.5259 213.17 84.4903C213.441 84.4745 213.712 84.4583 213.984 84.4425L214.488 85.3089C216.926 89.5034 219.366 93.6983 221.803 97.8932L208.297 91.0517Z" stroke="#A59480" stroke-width="0.9753" stroke-miterlimit="10"/>
<path d="M132.3 39.7527C132.391 39.7527 132.457 39.7359 132.509 39.7562C132.629 39.8025 132.742 39.8655 132.857 39.924C138.665 42.865 144.472 45.8055 150.279 48.7466C150.322 48.7684 150.364 48.7954 150.41 48.8101C150.714 48.9098 150.807 49.1381 150.85 49.4361C151.057 50.8745 151.28 52.311 151.499 53.7479C151.666 54.8498 151.835 55.9511 151.998 57.0535C152.023 57.2244 152.064 57.4013 151.996 57.5905C151.93 57.6077 151.87 57.6337 151.809 57.6372C151.035 57.6779 150.26 57.7115 149.486 57.7537C148.631 57.8005 147.776 57.8549 146.921 57.9057C146.84 57.9103 146.76 57.9174 146.679 57.921C145.743 57.9632 144.807 58.0028 143.87 58.0476C143.645 58.0583 143.419 58.0811 143.194 58.1025C143.016 58.1193 142.88 58.0628 142.789 57.9016C142.686 57.7186 142.576 57.5396 142.47 57.3581C139.166 51.6718 135.861 45.9855 132.558 40.2988C132.463 40.1355 132.342 39.982 132.3 39.7527Z" stroke="#A59480" stroke-width="0.9753" stroke-miterlimit="10"/>
<path d="M135.935 43.1503L149.425 49.9822C149.566 50.9503 149.715 51.925 149.86 52.8708C149.86 52.8708 150.302 55.7717 150.369 56.2181C150.047 56.2339 149.725 56.2501 149.404 56.2674C148.794 56.301 148.184 56.3381 147.575 56.3752L146.832 56.42L146.724 56.4271C146.686 56.4296 146.648 56.4327 146.611 56.4342L145.769 56.4713C145.113 56.5003 144.456 56.5293 143.799 56.5608C143.776 56.5618 143.753 56.5634 143.73 56.5644C141.131 52.0933 138.533 47.6218 135.935 43.1503Z" stroke="#A59480" stroke-width="0.9753" stroke-miterlimit="10"/>
<path d="M225.447 39.7771C225.362 39.9403 225.302 40.07 225.23 40.1925C223.518 43.1411 221.806 46.0893 220.092 49.0369C218.427 51.9006 216.759 54.7623 215.096 57.6271C214.803 58.1305 214.833 58.1437 214.22 58.072C214.14 58.0628 214.059 58.0552 213.978 58.0516C213.058 58.0099 212.138 57.9749 211.218 57.9266C210.347 57.8808 209.476 57.8193 208.605 57.7684C208.363 57.7542 208.121 57.7552 207.878 57.7425C207.217 57.7089 206.555 57.6728 205.894 57.6352C205.847 57.6327 205.803 57.6108 205.763 57.5996C205.636 57.4659 205.697 57.3138 205.715 57.1776C205.782 56.665 205.861 56.1545 205.938 55.6435C206.122 54.4298 206.308 53.2171 206.492 52.0033C206.627 51.1089 206.763 50.215 206.891 49.3196C206.924 49.0888 207.037 48.9469 207.247 48.8442C207.914 48.5167 208.573 48.174 209.236 47.8379C214.424 45.2101 219.611 42.5828 224.798 39.956C224.942 39.8833 225.087 39.8101 225.237 39.7516C225.284 39.7333 225.348 39.7633 225.447 39.7771Z" stroke="#A59480" stroke-width="0.9753" stroke-miterlimit="10"/>
<path d="M213.129 56.5247C212.518 56.4988 211.907 56.4723 211.296 56.4403C210.771 56.4123 210.246 56.3793 209.72 56.3462C209.378 56.3243 209.035 56.303 208.693 56.2827C208.547 56.274 208.401 56.2699 208.254 56.2664C208.154 56.2638 208.054 56.2613 207.953 56.2562C207.754 56.246 207.554 56.2359 207.355 56.2252C207.363 56.1708 207.588 54.6901 207.677 54.1028C207.773 53.4769 207.868 52.851 207.963 52.225L208.001 51.9703C208.101 51.3077 208.202 50.6457 208.299 49.9827C208.632 49.8159 208.963 49.6466 209.286 49.4818C209.494 49.376 209.701 49.2703 209.909 49.165C213.871 47.1581 217.833 45.1506 221.796 43.1442C220.8 44.8593 219.803 46.5744 218.806 48.2889C218.122 49.4645 217.439 50.6396 216.754 51.8147C215.833 53.3971 214.912 54.9794 213.993 56.5628C213.705 56.5496 213.417 56.5374 213.129 56.5247Z" stroke="#A59480" stroke-width="0.9753" stroke-miterlimit="10"/>
<path d="M178.914 86.8842C178.701 86.7708 178.709 86.6065 178.669 86.4789C178.434 85.707 178.211 84.9311 177.984 84.1567C176.542 79.2133 175.098 74.2704 173.659 69.326C173.427 68.5313 173.368 68.7418 173.903 68.0782C175.363 66.2665 176.825 64.4564 178.289 62.6477C178.459 62.4372 178.61 62.2059 178.853 62.0177C178.943 62.0976 179.035 62.1596 179.102 62.2415C179.543 62.7784 179.98 63.3189 180.416 63.8594C181.564 65.2801 182.71 66.7008 183.857 68.1215C183.888 68.1591 183.914 68.2013 183.95 68.2333C184.219 68.4794 184.248 68.7454 184.141 69.1038C183.265 72.0433 182.412 74.9894 181.552 77.9335C180.725 80.7693 179.897 83.605 179.068 86.4403C179.028 86.5776 178.975 86.7108 178.914 86.8842Z" stroke="#A59480" stroke-width="0.9753" stroke-miterlimit="10"/>
<path d="M178.541 80.753C177.394 76.8225 176.247 72.8925 175.102 68.9615C176.354 67.4081 177.608 65.8557 178.863 64.3044C178.995 64.4681 182.629 68.9691 182.629 68.9691C181.977 71.1616 181.332 73.3735 180.709 75.5157C180.709 75.5157 179.038 81.2411 178.861 81.8477L178.541 80.753Z" stroke="#A59480" stroke-width="0.9753" stroke-miterlimit="10"/>
<g opacity="0.5">
<path opacity="0.5" d="M139.954 39.1313C141.316 37.3339 142.806 35.6239 144.42 34.0095C145.427 33.0027 146.471 32.0442 147.551 31.1351L146.925 29.2461C145.603 30.3281 144.33 31.4793 143.11 32.6991C141.355 34.4539 139.741 36.3169 138.273 38.2807L139.954 39.1313Z" fill="#A59480"/>
<path opacity="0.5" d="M160.062 23.4642C161.115 23.0192 162.178 22.613 163.253 22.2443L163.879 20.0879C162.346 20.5709 160.832 21.1262 159.34 21.7572C155.135 23.5359 151.227 25.8448 147.666 28.6501L149.605 29.4962C152.821 27.0667 156.32 25.047 160.062 23.4642Z" fill="#A59480"/>
<path opacity="0.5" d="M133.875 87.9655C131.307 81.8963 130.006 75.4509 130.006 68.8087C130.006 62.3155 131.251 56.0109 133.704 50.0617C133.317 49.3961 132.93 48.73 132.544 48.0645C132.416 48.3517 132.29 48.64 132.168 48.9299C129.503 55.2284 128.152 61.9168 128.152 68.8087C128.152 75.7006 129.503 82.389 132.167 88.6875C132.557 89.6089 132.973 90.516 133.413 91.4084C133.79 90.7616 134.169 90.1112 134.542 89.4721C134.312 88.9743 134.089 88.4724 133.875 87.9655Z" fill="#A59480"/>
<path opacity="0.5" d="M215.329 32.699C210.641 28.0108 205.18 24.3295 199.098 21.7571C197.229 20.9664 195.325 20.2927 193.393 19.7344L194.02 21.8613C195.492 22.3256 196.944 22.8584 198.376 23.464C204.237 25.9429 209.5 29.491 214.018 34.0098C215.554 35.5454 216.977 37.1669 218.284 38.8683C218.845 38.5845 219.405 38.3008 219.965 38.0166C218.551 36.1505 217.005 34.3749 215.329 32.699Z" fill="#A59480"/>
<path opacity="0.5" d="M225.583 47.375C225.2 48.0335 224.818 48.6925 224.435 49.3509C224.479 49.4511 224.522 49.5508 224.565 49.6514C227.132 55.7206 228.433 62.166 228.433 68.8082C228.433 75.4504 227.131 81.8959 224.565 87.965C224.249 88.712 223.915 89.4492 223.564 90.1764C223.936 90.816 224.308 91.4562 224.68 92.0959C225.25 90.9828 225.781 89.8464 226.272 88.687C228.936 82.3881 230.286 75.7001 230.286 68.8082C230.286 61.9164 228.935 55.2279 226.272 48.9294C226.05 48.4062 225.821 47.8886 225.583 47.375Z" fill="#A59480"/>
<path opacity="0.5" d="M216.304 101.162C215.571 102 214.81 102.815 214.017 103.607C212.584 105.041 211.075 106.377 209.496 107.612L210.145 109.453C211.963 108.067 213.693 106.554 215.328 104.918C216.262 103.985 217.155 103.02 218.008 102.025L216.304 101.162Z" fill="#A59480"/>
<g opacity="0.5">
<path opacity="0.5" d="M168.223 116.791C165.441 116.155 162.715 115.275 160.062 114.153C157.578 113.102 155.202 111.859 152.943 110.431L152.191 110.878L150.552 108.819C148.382 107.26 146.334 105.521 144.42 103.607C143.549 102.736 142.715 101.838 141.917 100.912C141.335 101.207 140.765 101.496 140.215 101.774C141.132 102.857 142.097 103.905 143.11 104.918C147.798 109.606 153.259 113.288 159.341 115.86C162.8 117.323 166.377 118.389 170.04 119.053L168.223 116.791Z" fill="#A59480"/>
<path opacity="0.5" d="M198.376 114.152C195.507 115.365 192.554 116.295 189.536 116.94L187.684 119.177C191.597 118.525 195.414 117.417 199.098 115.859C202.19 114.551 205.122 112.955 207.874 111.087L205.702 110.299C203.382 111.782 200.936 113.068 198.376 114.152Z" fill="#A59480"/>
</g>
</g>
<g opacity="0.5">
<path opacity="0.5" d="M212.563 35.4653C208.233 31.1351 203.19 27.7355 197.575 25.3604C196.636 24.9633 195.687 24.5987 194.73 24.2656L195.383 26.4775C195.876 26.6656 196.366 26.8614 196.853 27.0673C199.57 28.2165 202.147 29.6163 204.568 31.2536L206.503 30.7456L207.998 33.3261C208.102 33.5051 208.237 33.7741 208.349 34.1153C209.35 34.9573 210.319 35.8431 211.252 36.7761C212.49 38.0148 213.648 39.3149 214.726 40.671C215.289 40.3858 215.851 40.101 216.414 39.8158C215.227 38.2965 213.942 36.8443 212.563 35.4653Z" fill="#A59480"/>
<path opacity="0.5" d="M226.373 68.8087C226.373 62.8575 225.283 57.0726 223.132 51.5938C222.73 52.2843 222.328 52.9743 221.927 53.6648C223.64 58.4892 224.511 63.5465 224.519 68.737L226.225 69.3741L224.484 70.6153C224.277 75.936 223.156 81.1031 221.141 86.0073C221.528 86.6729 221.915 87.3385 222.301 88.0041C222.426 87.7249 222.548 87.4453 222.668 87.1636C225.127 81.3492 226.373 75.1738 226.373 68.8087Z" fill="#A59480"/>
<path opacity="0.5" d="M133.92 68.8071C133.92 63.8673 134.701 59.0475 136.247 54.4341C135.839 53.7334 135.433 53.0327 135.025 52.332C133.061 57.5912 132.066 63.1234 132.066 68.8071C132.066 75.1722 133.313 81.3476 135.772 87.1615C135.789 87.2012 135.806 87.2403 135.823 87.2795C136.265 86.5239 136.656 85.8558 137.003 85.2654C134.957 80.0266 133.92 74.4964 133.92 68.8071Z" fill="#A59480"/>
<path opacity="0.5" d="M149.587 103.782C149.659 103.606 149.732 103.431 149.805 103.257C148.906 102.488 148.033 101.683 147.189 100.839C146.617 100.267 146.064 99.6814 145.526 99.084C144.96 99.3708 144.386 99.6611 143.814 99.9509C144.477 100.702 145.165 101.436 145.879 102.15C146.94 103.21 148.043 104.215 149.188 105.163C149.24 104.696 149.372 104.229 149.587 103.782Z" fill="#A59480"/>
<path opacity="0.5" d="M143.509 40.9306C144.644 39.4804 145.871 38.0938 147.189 36.7764C147.742 36.2226 148.309 35.6862 148.886 35.164L148.252 33.248C147.439 33.9579 146.647 34.6967 145.878 35.4655C144.42 36.9238 143.068 38.463 141.824 40.0774L143.509 40.9306Z" fill="#A59480"/>
<path opacity="0.5" d="M212.692 99.332C212.224 99.8441 211.745 100.347 211.251 100.841C210.243 101.849 209.193 102.804 208.105 103.707C208.118 103.736 208.13 103.765 208.142 103.793C208.231 104.007 208.292 104.186 208.341 104.331C208.355 104.373 208.37 104.418 208.389 104.47L208.772 105.557C210.089 104.496 211.353 103.36 212.562 102.151C213.197 101.516 213.811 100.866 214.405 100.2L212.692 99.332Z" fill="#A59480"/>
<g opacity="0.5">
<path opacity="0.5" d="M163.951 111.47C163.156 111.185 162.368 110.878 161.587 110.547C159.819 109.8 158.112 108.944 156.467 107.988C156.255 108.228 155.816 108.725 155.125 109.135L154.943 109.243C156.836 110.381 158.812 111.386 160.865 112.255C162.569 112.975 164.304 113.591 166.066 114.103L163.951 111.47Z" fill="#A59480"/>
<path opacity="0.5" d="M201.509 108.254C200.007 109.103 198.454 109.87 196.851 110.548C195.874 110.961 194.887 111.338 193.89 111.679L191.734 114.283C193.715 113.738 195.664 113.063 197.573 112.255C199.528 111.428 201.413 110.477 203.223 109.406C202.885 109.286 202.343 109.044 201.818 108.557C201.703 108.45 201.6 108.347 201.509 108.254Z" fill="#A59480"/>
</g>
<path opacity="0.5" d="M161.587 27.0667C161.688 27.0239 161.789 26.9843 161.89 26.9421L162.544 24.6875C161.982 24.9006 161.422 25.1243 160.865 25.3597C157.642 26.7234 154.607 28.4253 151.787 30.4465L153.781 31.3165C156.228 29.6522 158.836 28.2305 161.587 27.0667Z" fill="#A59480"/>
</g>
</g>
<g clip-path="url(#clip0_2432_86649)">
<path d="M41.1769 76.4238L34.8538 70.1008L41.1769 63.7783L47.5 70.1008L41.1769 76.4238ZM37.1388 70.1008L41.1769 74.1389L45.2151 70.1008L41.1769 66.0626L37.1388 70.1008Z" fill="#A59480"/>
<path d="M33.0975 70.0998L36.8477 66.3503L34.4754 54.8155L29.4347 63.9786L18.4243 70.0998L29.4347 76.2217L34.4753 85.3848L36.8477 73.85L33.0975 70.0998Z" fill="#A59480"/>
<path d="M16.2406 70.0989L22.2813 66.3493L17.6185 63.9776L1.5674 70.0989L17.6185 76.2207L22.2813 73.849L16.2406 70.0989Z" fill="#A59480"/>
</g>
<path d="M101.902 73.648C101.902 71.248 101.902 69.328 101.95 67.888C101.998 66.208 102.478 65.392 103.774 65.152C104.35 65.056 104.686 65.008 105.07 65.008C105.406 65.008 105.694 64.912 105.694 64.624C105.694 64.24 105.358 64.144 104.734 64.144C103.15 64.144 100.606 64.288 99.1178 64.288C97.6778 64.288 94.6538 64.144 92.1578 64.144C91.4858 64.144 91.1498 64.24 91.1498 64.624C91.1498 64.912 91.4378 65.008 91.8698 65.008C92.5418 65.008 93.3578 65.056 93.7418 65.152C95.3258 65.488 95.7578 66.256 95.8058 67.888C95.8538 69.328 95.8538 71.152 95.8538 73.552V78.064C95.8538 78.88 95.6618 79.504 94.9418 79.84C93.7898 80.368 92.1098 80.368 90.8618 80.368C80.7338 80.368 74.1578 72.64 74.1578 62.32C74.1578 56.416 75.8858 52.816 78.5738 50.56C81.9338 47.776 85.4378 47.584 88.0778 47.584C93.5018 47.584 97.3418 49.792 98.7818 51.328C100.03 52.672 100.27 54.208 100.414 55.312C100.462 55.696 100.558 55.936 100.894 55.936C101.278 55.936 101.422 55.696 101.422 54.928C101.422 48.928 101.758 47.584 101.758 47.056C101.758 46.72 101.662 46.528 101.086 46.48C99.9818 46.432 98.3018 46.144 97.2938 45.952C96.3338 45.76 92.1098 45.184 88.7978 45.184C84.7658 45.184 80.4938 45.52 75.8858 48.304C71.5178 50.944 67.5338 56.32 67.5338 64C67.5338 77.248 77.9498 82.816 89.7098 82.816C93.4538 82.816 98.1578 82.288 101.278 80.656C101.854 80.32 101.902 80.224 101.902 78.928V73.648ZM128.481 71.872C128.673 71.872 128.817 71.92 128.913 72.16L132.177 80.368C132.369 80.848 132.081 81.232 131.793 81.28C131.361 81.328 131.265 81.472 131.265 81.712C131.265 82 131.745 82 132.513 82.048C136.065 82.144 139.137 82.144 140.625 82.144C142.209 82.144 142.449 82.048 142.449 81.712C142.449 81.424 142.257 81.28 141.873 81.28C141.393 81.28 140.913 81.232 140.289 81.136C139.521 80.992 138.321 80.464 136.689 76.768C134.001 70.576 126.945 53.872 125.937 51.616C125.505 50.704 125.313 50.32 124.689 50.32C124.257 50.32 123.921 50.8 123.441 51.952L112.401 77.632C111.537 79.696 110.817 80.944 108.897 81.232C108.513 81.232 108.033 81.28 107.649 81.28C107.313 81.28 107.169 81.472 107.169 81.712C107.169 82.048 107.409 82.144 107.937 82.144C110.145 82.144 112.401 82 112.833 82C114.177 82 116.145 82.144 117.537 82.144C117.969 82.144 118.209 82.048 118.209 81.712C118.209 81.472 118.113 81.28 117.585 81.28H116.961C115.665 81.28 115.281 80.848 115.281 80.128C115.281 79.648 115.473 78.64 115.905 77.632L118.161 72.16C118.257 71.92 118.305 71.872 118.545 71.872H128.481ZM119.409 69.616C119.265 69.616 119.169 69.52 119.265 69.328L123.345 59.008C123.393 58.864 123.441 58.624 123.585 58.624C123.681 58.624 123.729 58.864 123.777 59.008L127.761 69.376C127.809 69.52 127.761 69.616 127.569 69.616H119.409ZM155.114 63.088C155.114 56.896 155.114 55.744 155.21 54.448C155.306 53.008 155.642 52.432 156.794 52.24C157.274 52.144 157.946 52.096 158.426 52.096C158.954 52.096 159.194 51.952 159.194 51.664C159.194 51.376 158.906 51.28 158.282 51.28C156.65 51.28 153.194 51.376 152.186 51.376C151.034 51.376 148.346 51.28 146.378 51.28C145.754 51.28 145.466 51.376 145.466 51.664C145.466 51.952 145.706 52.096 146.186 52.096C146.714 52.096 147.242 52.144 147.578 52.24C148.922 52.624 149.306 53.056 149.402 54.448C149.45 55.744 149.45 56.896 149.45 63.088V70.288C149.45 74.032 149.45 77.248 149.258 78.976C149.114 80.176 148.874 80.944 148.01 81.136C147.626 81.232 147.146 81.28 146.522 81.28C145.994 81.28 145.85 81.52 145.85 81.712C145.85 82 146.138 82.144 146.666 82.144C147.53 82.144 148.586 82.096 149.594 82.048C150.602 82.048 151.514 82 151.994 82C153.722 82 155.498 82.048 157.61 82.096C159.722 82.192 162.17 82.24 165.194 82.24C167.402 82.24 167.594 82.048 167.882 81.136C168.218 79.936 168.506 76.912 168.506 76.432C168.506 75.952 168.41 75.52 168.122 75.52C167.786 75.52 167.69 75.76 167.642 76.144C167.546 76.912 167.114 78.064 166.586 78.592C165.53 79.696 163.898 79.744 161.642 79.744C158.378 79.744 156.746 79.504 156.026 78.88C155.114 78.112 155.114 75.52 155.114 70.288V63.088ZM183.998 63.088C183.998 56.896 183.998 55.744 184.094 54.448C184.19 53.008 184.526 52.432 185.678 52.24C186.158 52.144 186.83 52.096 187.31 52.096C187.838 52.096 188.078 51.952 188.078 51.664C188.078 51.376 187.79 51.28 187.166 51.28C185.534 51.28 182.078 51.376 181.07 51.376C179.918 51.376 177.23 51.28 175.262 51.28C174.638 51.28 174.35 51.376 174.35 51.664C174.35 51.952 174.59 52.096 175.07 52.096C175.598 52.096 176.126 52.144 176.462 52.24C177.806 52.624 178.19 53.056 178.286 54.448C178.334 55.744 178.334 56.896 178.334 63.088V70.288C178.334 74.032 178.334 77.248 178.142 78.976C177.998 80.176 177.758 80.944 176.894 81.136C176.51 81.232 176.03 81.28 175.406 81.28C174.878 81.28 174.734 81.52 174.734 81.712C174.734 82 175.022 82.144 175.55 82.144C176.414 82.144 177.47 82.096 178.478 82.048C179.486 82.048 180.398 82 180.878 82C182.606 82 184.382 82.048 186.494 82.096C188.606 82.192 191.054 82.24 194.078 82.24C196.286 82.24 196.478 82.048 196.766 81.136C197.102 79.936 197.39 76.912 197.39 76.432C197.39 75.952 197.294 75.52 197.006 75.52C196.67 75.52 196.574 75.76 196.526 76.144C196.43 76.912 195.998 78.064 195.47 78.592C194.414 79.696 192.782 79.744 190.526 79.744C187.262 79.744 185.63 79.504 184.91 78.88C183.998 78.112 183.998 75.52 183.998 70.288V63.088ZM207.218 70.288C207.218 74.032 207.218 77.248 207.026 78.976C206.882 80.176 206.642 80.944 205.778 81.136C205.394 81.232 204.914 81.28 204.29 81.28C203.762 81.28 203.618 81.52 203.618 81.712C203.618 82 203.906 82.144 204.434 82.144C205.298 82.144 206.354 82.096 207.362 82.048C208.37 82.048 209.282 82 209.762 82C211.01 82 212.594 82.048 214.658 82.096C216.722 82.192 219.266 82.24 222.434 82.24C224.018 82.24 224.402 82.24 224.69 81.184C224.93 80.368 225.266 77.584 225.266 76.672C225.266 76.24 225.218 75.712 224.882 75.712C224.594 75.712 224.498 75.904 224.402 76.336C224.114 78.016 223.634 78.88 222.578 79.36C221.474 79.84 219.698 79.888 218.594 79.888C214.274 79.888 212.978 79.264 212.882 76.48C212.834 75.28 212.882 71.824 212.882 70.432V67.168C212.882 66.928 212.93 66.736 213.122 66.736C214.178 66.736 218.978 66.832 219.746 66.928C221.33 67.072 221.858 67.696 222.098 68.512C222.194 69.04 222.194 69.568 222.242 70C222.242 70.192 222.338 70.336 222.626 70.336C223.01 70.336 223.058 69.76 223.058 69.424C223.058 69.136 223.154 67.504 223.25 66.688C223.49 64.624 223.586 63.952 223.586 63.712C223.586 63.472 223.442 63.28 223.25 63.28C223.058 63.28 222.914 63.52 222.578 63.808C222.194 64.24 221.57 64.336 220.562 64.432C219.602 64.528 214.13 64.528 213.17 64.528C212.93 64.528 212.882 64.336 212.882 64.096V54.016C212.882 53.776 212.978 53.632 213.17 53.632C214.034 53.632 219.074 53.728 219.794 53.824C221.906 54.016 222.242 54.592 222.578 55.312C222.818 55.792 222.866 56.512 222.866 56.8C222.866 57.136 222.914 57.328 223.202 57.328C223.538 57.328 223.634 56.848 223.682 56.656C223.778 56.176 223.874 54.4 223.922 53.968C224.018 52.096 224.258 51.616 224.258 51.328C224.258 51.136 224.21 50.944 223.97 50.944C223.778 50.944 223.538 51.088 223.298 51.136C222.962 51.184 222.29 51.328 221.522 51.376C220.706 51.424 211.346 51.376 210.002 51.376C208.802 51.376 206.114 51.28 203.906 51.28C203.282 51.28 202.946 51.376 202.946 51.664C202.946 51.952 203.234 52.096 203.666 52.096C204.29 52.096 205.01 52.144 205.346 52.24C206.69 52.624 207.074 53.056 207.17 54.448C207.218 55.744 207.218 56.896 207.218 63.088V70.288ZM236.337 70.288C236.337 74.032 236.337 77.248 236.145 78.976C236.001 80.176 235.761 80.944 234.897 81.136C234.513 81.232 234.033 81.28 233.409 81.28C232.881 81.28 232.737 81.52 232.737 81.712C232.737 82 233.025 82.144 233.553 82.144C235.233 82.144 237.921 82 238.737 82C239.361 82 242.865 82.144 245.313 82.144C245.841 82.144 246.177 82 246.177 81.712C246.177 81.52 245.985 81.28 245.649 81.28C245.121 81.28 244.209 81.232 243.585 81.136C242.289 80.944 242.097 80.176 241.953 78.976C241.761 77.248 241.713 74.08 241.713 70.288V69.712C241.713 69.472 241.857 69.376 242.049 69.376L245.841 69.472C246.129 69.472 246.369 69.52 246.609 69.76C247.137 70.384 248.913 73.12 250.593 75.328C252.945 78.496 254.529 80.416 256.353 81.328C257.457 81.904 258.609 82.144 260.961 82.144H264.993C265.521 82.144 265.809 82.048 265.809 81.712C265.809 81.52 265.617 81.28 265.281 81.28C264.945 81.28 264.705 81.28 264.273 81.184C263.601 81.04 262.113 80.848 259.761 78.496C257.217 75.952 254.241 72.256 250.497 67.648C254.625 64.336 256.353 61.648 256.353 58.624C256.353 55.888 254.577 53.824 253.377 53.008C251.121 51.52 248.049 51.28 245.361 51.28C244.065 51.28 240.225 51.376 238.785 51.376C237.921 51.376 235.233 51.28 233.025 51.28C232.401 51.28 232.065 51.376 232.065 51.664C232.065 51.952 232.353 52.096 232.785 52.096C233.409 52.096 234.129 52.144 234.465 52.24C235.809 52.624 236.193 53.056 236.289 54.448C236.337 55.744 236.337 56.896 236.337 63.088V70.288ZM241.713 54.112C241.713 53.776 241.809 53.632 242.097 53.536C242.529 53.44 243.537 53.392 244.593 53.392C247.089 53.392 251.025 54.88 251.025 60.64C251.025 64 249.585 65.776 248.289 66.688C247.569 67.216 246.993 67.36 245.313 67.36C244.257 67.36 243.009 67.264 242.097 66.976C241.809 66.832 241.713 66.688 241.713 66.256V54.112ZM275.266 74.896C275.266 75.568 275.266 77.248 275.122 78.976C275.026 80.176 274.69 80.944 273.826 81.136C273.442 81.232 272.914 81.28 272.338 81.28C271.858 81.28 271.666 81.52 271.666 81.712C271.666 82.048 272.002 82.144 272.578 82.144C274.162 82.144 276.994 82 278.05 82C279.202 82 282.034 82.144 284.674 82.144C285.25 82.144 285.586 82 285.586 81.712C285.586 81.52 285.346 81.28 284.866 81.28C284.29 81.28 283.378 81.232 282.754 81.136C281.506 80.944 281.122 80.176 281.026 78.976C280.93 77.248 280.93 75.568 280.93 74.896V71.632C280.93 70.288 280.834 69.04 281.458 67.552C282.226 65.824 288.274 56.128 289.666 54.496C290.578 53.392 290.962 53.008 291.874 52.576C292.498 52.288 293.266 52.096 293.698 52.096C294.178 52.096 294.514 51.904 294.514 51.616C294.514 51.376 294.226 51.28 293.746 51.28C292.93 51.28 290.146 51.376 289.234 51.376C287.986 51.376 286.498 51.28 285.106 51.28C284.626 51.28 284.386 51.376 284.386 51.664C284.386 52 284.77 52.048 285.154 52.144C285.874 52.288 286.066 52.672 286.066 53.056C286.066 53.584 285.874 54.304 285.442 55.216C284.818 56.464 279.682 65.2 279.154 66.16C278.434 65.008 272.914 55.456 272.146 54.208C271.81 53.632 271.618 53.152 271.618 52.816C271.618 52.48 271.858 52.288 272.194 52.192C272.866 52 273.154 52 273.154 51.664C273.154 51.376 272.914 51.28 272.53 51.28C270.61 51.28 268.642 51.376 267.73 51.376C266.338 51.376 263.17 51.28 262.45 51.28C261.922 51.28 261.634 51.376 261.634 51.664C261.634 51.952 261.922 52.096 262.258 52.096C262.786 52.096 263.506 52.336 264.034 52.624C264.85 53.056 265.714 54.016 266.77 55.504C268.258 57.664 274.018 66.64 274.306 67.264C274.882 68.464 275.266 69.328 275.266 71.536V74.896Z" fill="white"/>
<path d="M315.823 63.5762L322.146 69.8992L315.823 76.2217L309.5 69.8992L315.823 63.5762ZM319.861 69.8992L315.823 65.8611L311.785 69.8992L315.823 73.9374L319.861 69.8992Z" fill="#A59480"/>
<path d="M323.902 69.9002L320.152 73.6497L322.525 85.1845L327.565 76.0214L338.576 69.9002L327.565 63.7783L322.525 54.6152L320.152 66.15L323.902 69.9002Z" fill="#A59480"/>
<path d="M340.759 69.8992L334.719 73.6487L339.382 76.0204L355.433 69.8992L339.382 63.7773L334.719 66.149L340.759 69.8992Z" fill="#A59480"/>
<defs>
<clipPath id="clip0_2432_86649">
<rect width="48" height="32" fill="white" transform="translate(48.5 86) rotate(-180)"/>
</clipPath>
</defs>
</svg>
