<svg width="24" height="20" viewBox="0 0 24 20" fill="none" xmlns="http://www.w3.org/2000/svg">
<path d="M6.72673 4.67752L7.15913 4.12162L6.44681 3.20379C6.17144 2.9081 5.8369 2.34747 6.07813 1.50535C6.17371 1.17181 6.26702 0.835904 6.3626 0.5C3.44732 1.76082 1.21251 4.37473 0.388672 7.58948H0.868862C3.15602 7.58948 5.29298 6.52736 6.72673 4.67752Z" fill="#433B36"/>
<path d="M17.6382 0.5C17.7338 0.835904 17.8271 1.16944 17.9227 1.50535C18.1639 2.34747 17.8294 2.9081 17.554 3.20379L16.8417 4.12162L17.2741 4.67752C18.7101 6.52972 20.8448 7.59184 23.1319 7.59184H23.6121C22.786 4.37473 20.5512 1.76082 17.6382 0.5Z" fill="#433B36"/>
<path d="M17.8149 6.60789C17.3529 6.21995 16.9273 5.7776 16.545 5.28557L15.6415 4.11936L16.2878 3.2867L14.028 2.79703V3.75271H10.0863V2.79703L7.7286 3.30799L8.35899 4.11936L7.45551 5.28557C7.10504 5.73738 6.71815 6.14425 6.29941 6.50854V9.03729L4.87932 9.38265L6.29941 17.8583L9.13959 19.5H15.1021L17.8171 17.8583V17.0517L17.9127 17.8583L19.3328 9.38265L17.8171 9.01363V6.60789H17.8149ZM12.1049 17.4065L9.07359 15.8334L12.1049 16.7134L15.1363 15.8334L12.1049 17.4065ZM12.1049 14.6696L8.13824 12.1243L12.1049 13.5862L16.0716 12.1243L12.1049 14.6696ZM13.1086 11.0078L12.1049 11.9303L11.1013 11.0078L7.15738 9.68071L11.5747 10.2626L12.1049 6.53693L12.6352 10.2626L17.0525 9.68071L13.1086 11.0078Z" fill="#433B36"/>
</svg>
