<svg width="24" height="20" viewBox="0 0 24 20" fill="none" xmlns="http://www.w3.org/2000/svg">
<path d="M23.8733 12.4126C23.7975 11.5365 23.7451 10.6492 23.3779 9.82323C23.3284 9.70883 23.3605 9.61396 23.4071 9.5163C23.6343 9.06428 23.7451 8.57877 23.7771 8.08489C23.9141 6.08426 22.7078 4.54124 20.3914 4.76725C20.2136 4.78399 20.0621 4.74772 19.9048 4.68912C18.681 4.2371 17.466 3.76275 16.2277 3.34142C15.575 3.12098 15.237 2.68291 15.036 2.09974C14.8408 1.53611 14.6455 1.37148 14.0482 1.36869C12.6788 1.36032 11.3123 1.35753 9.94281 1.36869C9.31344 1.37427 9.19689 1.47751 8.99002 2.04952C8.80354 2.56572 8.55588 3.04286 7.97896 3.25771C6.6911 3.73764 5.40033 4.20919 4.11246 4.68912C3.92599 4.75888 3.74534 4.77562 3.54429 4.75609C2.75759 4.68354 2.00293 4.79794 1.36774 5.28066C0.353771 6.05078 0.0390903 7.13061 0.283842 8.26626C0.49363 9.24564 0.505285 10.1497 0.318807 11.1347C-0.0512349 13.0962 -0.0250114 15.0941 0.0361766 17.0863C0.0653137 18.0211 0.688849 18.6266 1.6766 18.6377C2.30596 18.6433 2.93241 18.6377 3.56177 18.6377C4.1212 18.6377 4.38927 18.6238 4.47959 18.4619L3.39569 10.7719L3.83857 10.6743L5.72375 18.6349C9.50575 18.6349 13.2878 18.6349 17.0698 18.6349C17.4718 18.6349 17.8739 18.6349 18.276 18.6349L20.1612 10.6743L20.6332 10.7775L19.5959 18.1494L19.5289 18.4368C19.5843 18.568 19.7271 18.6266 19.9747 18.6293C20.8255 18.6405 21.6792 18.6517 22.5301 18.6154C23.3721 18.5819 23.9723 17.9485 23.984 17.1365C23.9927 16.5478 23.9869 15.9591 23.9869 15.1778C24.0306 14.3853 23.9578 13.3976 23.8733 12.4126Z" fill="#433B36"/>
</svg>
