<svg width="332" height="43" viewBox="0 0 332 43" fill="none" xmlns="http://www.w3.org/2000/svg">
<path d="M83.909 30.6164L70.1836 25.5006L83.909 20.3848L89.0002 25.5006L83.909 30.6164Z" fill="#A49380"/>
<path d="M0.296844 25.3848L3.18359 28.2715L6.07034 25.3848L3.18359 22.498L0.296844 25.3848ZM87.1836 24.8848L3.18359 24.8848L3.18359 25.8848L87.1836 25.8848L87.1836 24.8848Z" fill="#A49380"/>
<path d="M107.586 30.272C108.61 30.272 109.826 30.16 110.466 29.904C110.738 29.792 110.802 29.712 110.882 29.44C111.042 28.896 111.234 27.504 111.234 27.312C111.234 27.184 111.202 27.072 111.09 27.072C110.962 27.072 110.93 27.136 110.882 27.392C110.818 27.68 110.61 28.144 110.338 28.448C109.698 29.184 108.834 29.344 107.41 29.344C105.266 29.344 102.37 27.456 102.37 23.648C102.37 22.096 102.674 20.576 103.842 19.504C104.546 18.864 105.458 18.512 106.85 18.512C108.322 18.512 109.57 18.944 110.098 19.504C110.498 19.92 110.706 20.48 110.722 20.976C110.722 21.2 110.754 21.328 110.882 21.328C111.026 21.328 111.058 21.2 111.074 20.96C111.106 20.64 111.09 19.76 111.122 19.232C111.154 18.672 111.202 18.48 111.202 18.352C111.202 18.256 111.138 18.176 110.962 18.16C110.482 18.112 109.97 17.968 109.362 17.888C108.626 17.792 108.034 17.728 107.042 17.728C104.658 17.728 103.138 18.368 101.986 19.424C100.45 20.832 100.114 22.72 100.114 23.808C100.114 25.36 100.53 27.152 102.098 28.528C103.554 29.792 105.394 30.272 107.586 30.272ZM116.223 23.696C116.223 21.632 116.223 21.248 116.255 20.816C116.287 20.336 116.399 20.144 116.783 20.08C116.943 20.048 117.167 20.032 117.327 20.032C117.503 20.032 117.583 19.984 117.583 19.888C117.583 19.792 117.487 19.76 117.279 19.76C116.735 19.76 115.583 19.792 115.247 19.792C114.863 19.792 113.967 19.76 113.311 19.76C113.103 19.76 113.007 19.792 113.007 19.888C113.007 19.984 113.087 20.032 113.247 20.032C113.423 20.032 113.599 20.048 113.711 20.08C114.159 20.208 114.287 20.352 114.319 20.816C114.335 21.248 114.335 21.632 114.335 23.696V26.096C114.335 27.344 114.335 28.416 114.271 28.992C114.223 29.392 114.143 29.648 113.855 29.712C113.727 29.744 113.567 29.76 113.359 29.76C113.183 29.76 113.135 29.84 113.135 29.904C113.135 30 113.231 30.048 113.407 30.048C113.695 30.048 114.047 30.032 114.383 30.016C114.719 30.016 115.023 30 115.183 30C115.759 30 116.351 30.016 117.055 30.032C117.759 30.064 118.575 30.08 119.583 30.08C120.319 30.08 120.383 30.016 120.479 29.712C120.591 29.312 120.687 28.304 120.687 28.144C120.687 27.984 120.655 27.84 120.559 27.84C120.447 27.84 120.415 27.92 120.399 28.048C120.367 28.304 120.223 28.688 120.047 28.864C119.695 29.232 119.151 29.248 118.399 29.248C117.311 29.248 116.767 29.168 116.527 28.96C116.223 28.704 116.223 27.84 116.223 26.096V23.696ZM127.396 26.624C127.46 26.624 127.508 26.64 127.54 26.72L128.628 29.456C128.692 29.616 128.596 29.744 128.5 29.76C128.356 29.776 128.324 29.824 128.324 29.904C128.324 30 128.484 30 128.74 30.016C129.924 30.048 130.948 30.048 131.444 30.048C131.972 30.048 132.052 30.016 132.052 29.904C132.052 29.808 131.988 29.76 131.86 29.76C131.7 29.76 131.54 29.744 131.332 29.712C131.076 29.664 130.676 29.488 130.132 28.256C129.236 26.192 126.884 20.624 126.548 19.872C126.404 19.568 126.34 19.44 126.132 19.44C125.988 19.44 125.876 19.6 125.716 19.984L122.036 28.544C121.748 29.232 121.508 29.648 120.868 29.744C120.74 29.744 120.58 29.76 120.452 29.76C120.34 29.76 120.292 29.824 120.292 29.904C120.292 30.016 120.372 30.048 120.548 30.048C121.284 30.048 122.036 30 122.18 30C122.628 30 123.284 30.048 123.748 30.048C123.892 30.048 123.972 30.016 123.972 29.904C123.972 29.824 123.94 29.76 123.764 29.76H123.556C123.124 29.76 122.996 29.616 122.996 29.376C122.996 29.216 123.06 28.88 123.204 28.544L123.956 26.72C123.988 26.64 124.004 26.624 124.084 26.624H127.396ZM124.372 25.872C124.324 25.872 124.292 25.84 124.324 25.776L125.684 22.336C125.7 22.288 125.716 22.208 125.764 22.208C125.796 22.208 125.812 22.288 125.828 22.336L127.156 25.792C127.172 25.84 127.156 25.872 127.092 25.872H124.372ZM134.949 30.224C135.701 30.224 136.629 30.144 137.301 29.664C138.325 28.944 138.709 28.128 138.709 27.12C138.709 25.888 138.133 24.848 136.277 23.824L135.701 23.504C134.437 22.8 134.213 22.32 134.213 21.712C134.213 20.784 135.125 20.256 136.133 20.256C137.045 20.256 137.493 20.64 137.701 20.896C138.005 21.248 138.069 21.664 138.069 21.792C138.069 21.952 138.117 22.032 138.213 22.032C138.325 22.032 138.389 21.888 138.389 21.6C138.389 20.528 138.437 20.144 138.437 19.968C138.437 19.872 138.373 19.824 138.245 19.792C137.877 19.696 137.157 19.568 136.245 19.568C134.293 19.568 132.693 20.64 132.693 22.304C132.693 23.504 133.237 24.416 134.901 25.392L135.717 25.872C136.965 26.608 137.109 27.2 137.109 27.792C137.109 28.752 136.373 29.52 135.157 29.52C134.277 29.52 133.221 29.184 132.917 28.176C132.837 27.936 132.789 27.648 132.789 27.472C132.789 27.376 132.773 27.248 132.645 27.248C132.533 27.248 132.469 27.392 132.469 27.6C132.453 27.824 132.389 28.672 132.389 29.408C132.389 29.712 132.437 29.776 132.661 29.872C133.269 30.144 134.133 30.224 134.949 30.224ZM143.59 30.224C144.342 30.224 145.27 30.144 145.942 29.664C146.966 28.944 147.35 28.128 147.35 27.12C147.35 25.888 146.774 24.848 144.918 23.824L144.342 23.504C143.078 22.8 142.854 22.32 142.854 21.712C142.854 20.784 143.766 20.256 144.774 20.256C145.686 20.256 146.134 20.64 146.342 20.896C146.646 21.248 146.71 21.664 146.71 21.792C146.71 21.952 146.758 22.032 146.854 22.032C146.966 22.032 147.03 21.888 147.03 21.6C147.03 20.528 147.078 20.144 147.078 19.968C147.078 19.872 147.014 19.824 146.886 19.792C146.518 19.696 145.798 19.568 144.886 19.568C142.934 19.568 141.334 20.64 141.334 22.304C141.334 23.504 141.878 24.416 143.542 25.392L144.358 25.872C145.606 26.608 145.75 27.2 145.75 27.792C145.75 28.752 145.014 29.52 143.798 29.52C142.918 29.52 141.862 29.184 141.558 28.176C141.478 27.936 141.43 27.648 141.43 27.472C141.43 27.376 141.414 27.248 141.286 27.248C141.174 27.248 141.11 27.392 141.11 27.6C141.094 27.824 141.03 28.672 141.03 29.408C141.03 29.712 141.078 29.776 141.302 29.872C141.91 30.144 142.774 30.224 143.59 30.224ZM150.398 26.096C150.398 27.408 150.398 28.496 150.334 29.056C150.286 29.456 150.206 29.648 149.918 29.712C149.79 29.744 149.63 29.76 149.422 29.76C149.246 29.76 149.198 29.84 149.198 29.904C149.198 30 149.294 30.048 149.47 30.048C150.03 30.048 150.99 30 151.31 30C151.694 30 152.654 30.048 153.582 30.048C153.742 30.048 153.854 30 153.854 29.904C153.854 29.84 153.79 29.76 153.63 29.76C153.422 29.76 153.102 29.744 152.91 29.712C152.494 29.648 152.398 29.44 152.35 29.072C152.286 28.496 152.286 27.408 152.286 26.096V23.696C152.286 21.632 152.286 21.248 152.318 20.816C152.35 20.336 152.462 20.144 152.846 20.08C153.006 20.048 153.118 20.032 153.262 20.032C153.406 20.032 153.486 20 153.486 19.872C153.486 19.792 153.374 19.76 153.198 19.76C152.654 19.76 151.742 19.792 151.39 19.792C150.99 19.792 150.03 19.76 149.502 19.76C149.278 19.76 149.166 19.792 149.166 19.872C149.166 20 149.246 20.032 149.39 20.032C149.566 20.032 149.742 20.048 149.902 20.096C150.206 20.192 150.35 20.352 150.382 20.816C150.398 21.248 150.398 21.632 150.398 23.696V26.096ZM158.801 25.024C158.801 24.928 158.833 24.912 158.897 24.912C159.137 24.912 160.801 24.928 161.153 24.96C161.585 24.992 161.761 25.264 161.825 25.456C161.889 25.616 161.921 25.776 161.921 25.872C161.921 25.968 161.969 26.064 162.049 26.064C162.193 26.064 162.209 25.872 162.209 25.76C162.209 25.664 162.225 25.04 162.257 24.768C162.305 24.336 162.369 23.968 162.369 23.888C162.369 23.808 162.337 23.76 162.289 23.76C162.209 23.76 162.177 23.824 162.097 23.904C161.969 24.08 161.761 24.128 161.505 24.144C161.297 24.16 161.105 24.16 160.865 24.16L158.897 24.176C158.817 24.176 158.801 24.128 158.801 24.048V20.752C158.801 20.592 158.849 20.56 158.929 20.56L161.265 20.608C161.793 20.624 162.065 20.832 162.161 21.024C162.257 21.216 162.241 21.424 162.241 21.536C162.241 21.696 162.321 21.76 162.417 21.76C162.513 21.76 162.545 21.6 162.561 21.488C162.577 21.328 162.609 20.528 162.625 20.384C162.673 20.032 162.737 19.872 162.737 19.776C162.737 19.712 162.689 19.648 162.641 19.648C162.561 19.648 162.497 19.712 162.417 19.728C162.273 19.76 162.097 19.776 161.841 19.792C161.505 19.808 158.385 19.792 157.841 19.792C157.441 19.792 156.545 19.76 155.825 19.76C155.601 19.76 155.489 19.792 155.489 19.888C155.489 19.984 155.601 20.032 155.729 20.032C155.937 20.032 156.177 20.048 156.289 20.08C156.737 20.192 156.865 20.352 156.897 20.816C156.913 21.248 156.913 21.632 156.913 23.696V26.096C156.913 27.408 156.913 28.416 156.849 28.992C156.801 29.392 156.721 29.648 156.433 29.712C156.305 29.744 156.145 29.76 155.937 29.76C155.777 29.76 155.729 29.84 155.729 29.904C155.729 30.016 155.825 30.048 156.017 30.048C156.545 30.048 157.441 30 157.809 30C158.177 30 159.169 30.048 160.065 30.048C160.273 30.048 160.369 30 160.369 29.904C160.369 29.84 160.305 29.76 160.129 29.76C159.937 29.76 159.633 29.744 159.441 29.712C159.025 29.648 158.929 29.392 158.881 28.992C158.817 28.416 158.801 27.456 158.801 26.144V25.024ZM165.679 26.096C165.679 27.408 165.679 28.496 165.615 29.056C165.567 29.456 165.487 29.648 165.199 29.712C165.071 29.744 164.911 29.76 164.703 29.76C164.527 29.76 164.479 29.84 164.479 29.904C164.479 30 164.575 30.048 164.751 30.048C165.311 30.048 166.271 30 166.591 30C166.975 30 167.935 30.048 168.863 30.048C169.023 30.048 169.135 30 169.135 29.904C169.135 29.84 169.071 29.76 168.911 29.76C168.703 29.76 168.383 29.744 168.191 29.712C167.775 29.648 167.679 29.44 167.631 29.072C167.567 28.496 167.567 27.408 167.567 26.096V23.696C167.567 21.632 167.567 21.248 167.599 20.816C167.631 20.336 167.743 20.144 168.127 20.08C168.287 20.048 168.399 20.032 168.543 20.032C168.687 20.032 168.767 20 168.767 19.872C168.767 19.792 168.655 19.76 168.479 19.76C167.935 19.76 167.023 19.792 166.671 19.792C166.271 19.792 165.311 19.76 164.783 19.76C164.559 19.76 164.447 19.792 164.447 19.872C164.447 20 164.527 20.032 164.671 20.032C164.847 20.032 165.023 20.048 165.183 20.096C165.487 20.192 165.631 20.352 165.663 20.816C165.679 21.248 165.679 21.632 165.679 23.696V26.096ZM177.094 30.224C178.006 30.224 179.078 30.144 179.638 29.92C179.878 29.824 179.942 29.76 180.006 29.52C180.15 29.056 180.31 27.872 180.31 27.712C180.31 27.6 180.246 27.472 180.15 27.472C180.038 27.472 180.006 27.536 179.974 27.744C179.926 28 179.734 28.384 179.494 28.656C178.934 29.28 178.246 29.376 176.998 29.376C175.11 29.376 172.614 27.84 172.614 24.608C172.614 23.28 172.87 21.968 173.91 21.072C174.55 20.528 175.334 20.304 176.566 20.304C177.862 20.304 178.806 20.64 179.286 21.104C179.638 21.456 179.814 21.936 179.83 22.368C179.83 22.544 179.862 22.656 179.974 22.656C180.102 22.656 180.15 22.512 180.166 22.32C180.182 22.048 180.182 21.296 180.214 20.848C180.246 20.368 180.278 20.208 180.278 20.096C180.278 20.016 180.23 19.952 180.07 19.936C179.654 19.888 179.19 19.792 178.662 19.712C178.022 19.632 177.494 19.568 176.614 19.568C174.518 19.568 173.174 20.112 172.15 21.008C170.806 22.208 170.502 23.808 170.502 24.736C170.502 26.048 170.87 27.584 172.262 28.752C173.542 29.824 175.174 30.224 177.094 30.224ZM187.24 26.624C187.304 26.624 187.352 26.64 187.384 26.72L188.472 29.456C188.536 29.616 188.44 29.744 188.344 29.76C188.2 29.776 188.168 29.824 188.168 29.904C188.168 30 188.328 30 188.584 30.016C189.768 30.048 190.792 30.048 191.288 30.048C191.816 30.048 191.896 30.016 191.896 29.904C191.896 29.808 191.832 29.76 191.704 29.76C191.544 29.76 191.384 29.744 191.176 29.712C190.92 29.664 190.52 29.488 189.976 28.256C189.08 26.192 186.728 20.624 186.392 19.872C186.248 19.568 186.184 19.44 185.976 19.44C185.832 19.44 185.72 19.6 185.56 19.984L181.88 28.544C181.592 29.232 181.352 29.648 180.712 29.744C180.584 29.744 180.424 29.76 180.296 29.76C180.184 29.76 180.136 29.824 180.136 29.904C180.136 30.016 180.216 30.048 180.392 30.048C181.128 30.048 181.88 30 182.024 30C182.472 30 183.128 30.048 183.592 30.048C183.736 30.048 183.816 30.016 183.816 29.904C183.816 29.824 183.784 29.76 183.608 29.76H183.4C182.968 29.76 182.84 29.616 182.84 29.376C182.84 29.216 182.904 28.88 183.048 28.544L183.8 26.72C183.832 26.64 183.848 26.624 183.928 26.624H187.24ZM184.216 25.872C184.168 25.872 184.136 25.84 184.168 25.776L185.528 22.336C185.544 22.288 185.56 22.208 185.608 22.208C185.64 22.208 185.656 22.288 185.672 22.336L187 25.792C187.016 25.84 187 25.872 186.936 25.872H184.216ZM194.254 26.096C194.254 27.344 194.254 28.416 194.19 28.992C194.142 29.392 194.062 29.648 193.774 29.712C193.662 29.744 193.486 29.76 193.278 29.76C193.102 29.76 193.054 29.84 193.054 29.904C193.054 30 193.15 30.048 193.326 30.048C193.886 30.048 194.846 30 195.166 30C195.566 30 196.51 30.048 197.438 30.048C197.598 30.048 197.71 30 197.71 29.904C197.71 29.84 197.646 29.76 197.486 29.76C197.278 29.76 196.958 29.744 196.766 29.712C196.35 29.648 196.27 29.392 196.222 29.008C196.158 28.416 196.142 27.344 196.142 26.096V20.592L197.918 20.624C199.182 20.64 199.55 21.056 199.582 21.408L199.598 21.552C199.614 21.76 199.646 21.824 199.758 21.824C199.838 21.824 199.87 21.744 199.886 21.6C199.886 21.248 199.918 20.24 199.918 19.952C199.918 19.744 199.902 19.664 199.806 19.664C199.758 19.664 199.646 19.696 199.422 19.728C199.214 19.76 198.91 19.792 198.462 19.792H192.75C192.286 19.792 191.758 19.776 191.342 19.728C190.99 19.68 190.846 19.568 190.734 19.568C190.654 19.568 190.606 19.648 190.574 19.824C190.542 19.936 190.27 21.248 190.27 21.472C190.27 21.616 190.302 21.696 190.398 21.696C190.494 21.696 190.526 21.632 190.558 21.52C190.59 21.424 190.654 21.248 190.798 21.056C191.006 20.752 191.342 20.656 192.158 20.64L194.254 20.592V26.096ZM202.507 26.096C202.507 27.408 202.507 28.496 202.443 29.056C202.395 29.456 202.315 29.648 202.027 29.712C201.899 29.744 201.739 29.76 201.531 29.76C201.355 29.76 201.307 29.84 201.307 29.904C201.307 30 201.403 30.048 201.579 30.048C202.139 30.048 203.099 30 203.419 30C203.803 30 204.763 30.048 205.691 30.048C205.851 30.048 205.963 30 205.963 29.904C205.963 29.84 205.899 29.76 205.739 29.76C205.531 29.76 205.211 29.744 205.019 29.712C204.603 29.648 204.507 29.44 204.459 29.072C204.395 28.496 204.395 27.408 204.395 26.096V23.696C204.395 21.632 204.395 21.248 204.427 20.816C204.459 20.336 204.571 20.144 204.955 20.08C205.115 20.048 205.227 20.032 205.371 20.032C205.515 20.032 205.595 20 205.595 19.872C205.595 19.792 205.483 19.76 205.307 19.76C204.763 19.76 203.851 19.792 203.499 19.792C203.099 19.792 202.139 19.76 201.611 19.76C201.387 19.76 201.275 19.792 201.275 19.872C201.275 20 201.355 20.032 201.499 20.032C201.675 20.032 201.851 20.048 202.011 20.096C202.315 20.192 202.459 20.352 202.491 20.816C202.507 21.248 202.507 21.632 202.507 23.696V26.096ZM213.091 30.224C216.723 30.224 218.995 27.776 218.995 24.656C218.995 21.536 216.787 19.568 213.235 19.568C208.963 19.568 207.331 22.576 207.331 24.896C207.331 27.312 208.995 30.224 213.091 30.224ZM213.667 29.488C211.011 29.488 209.411 27.28 209.411 24.48C209.411 21.12 211.251 20.288 212.819 20.288C215.091 20.288 216.899 22.144 216.899 25.152C216.899 29.024 214.659 29.488 213.667 29.488ZM222.337 22.64H222.385C222.657 22.88 224.145 24.528 225.681 26C227.153 27.424 228.913 29.104 229.793 29.92C229.937 30.064 230.129 30.208 230.369 30.208C230.481 30.208 230.593 30.08 230.593 29.776L230.753 21.2C230.769 20.432 230.881 20.192 231.265 20.08C231.441 20.032 231.553 20.032 231.697 20.032C231.857 20.032 231.937 19.968 231.937 19.888C231.937 19.776 231.809 19.76 231.617 19.76C230.929 19.76 230.401 19.792 230.241 19.792C229.937 19.792 229.185 19.76 228.449 19.76C228.241 19.76 228.097 19.776 228.097 19.888C228.097 19.968 228.145 20.032 228.321 20.032C228.513 20.032 228.849 20.032 229.057 20.112C229.393 20.24 229.521 20.48 229.537 21.312L229.681 27.36H229.617C229.409 27.168 227.536 25.248 226.577 24.304C224.529 22.304 222.417 20.144 222.241 19.968C222.001 19.728 221.809 19.52 221.633 19.52C221.489 19.52 221.393 19.712 221.393 19.984L221.265 28.048C221.249 29.232 221.201 29.6 220.833 29.696C220.641 29.744 220.385 29.76 220.193 29.76C220.065 29.76 219.969 29.824 219.969 29.904C219.969 30.032 220.097 30.048 220.289 30.048C221.009 30.048 221.681 30 221.809 30C222.065 30 222.721 30.048 223.633 30.048C223.825 30.048 223.953 30.016 223.953 29.904C223.953 29.824 223.873 29.76 223.713 29.76C223.489 29.76 223.217 29.744 222.977 29.664C222.705 29.568 222.529 29.248 222.497 28.192L222.337 22.64Z" fill="#A49380"/>
<path d="M248.091 20.3836L261.816 25.4994L248.091 30.6152L243 25.4994L248.091 20.3836Z" fill="#A49380"/>
<path d="M331.703 25.6152L328.816 22.7285L325.93 25.6152L328.816 28.502L331.703 25.6152ZM244.816 26.1152L328.816 26.1152L328.816 25.1152L244.816 25.1152L244.816 26.1152Z" fill="#A49380"/>
</svg>
