<svg width="22" height="20" viewBox="0 0 22 20" fill="none" xmlns="http://www.w3.org/2000/svg">
<path d="M1.69287 0C2.15899 0.547313 2.82057 0.619486 3.46111 0.661587C4.17382 0.709703 4.89255 0.69166 5.60826 0.670609C8.08922 0.598436 10.3416 1.32017 12.4106 2.64334C13.2316 3.16961 14.0736 3.61768 15.0148 3.87931C15.2554 3.94547 15.6103 4.01463 15.4449 4.39053C15.2975 4.72434 15.0148 4.74539 14.6931 4.56495C14.3623 4.37851 14.0104 4.23115 13.6075 4.13492C13.8721 4.39655 14.1307 4.66419 14.4044 4.91379C14.6089 5.10024 14.6209 5.25661 14.4104 5.44907C14.0435 5.78889 13.6887 6.14073 13.3338 6.49258C13.1203 6.70609 12.9248 6.7512 12.7053 6.49258C12.3174 6.03849 11.8332 5.73777 11.2678 5.53328C10.8679 5.38893 10.6063 5.03408 10.3025 4.75741C8.4561 3.07337 6.27286 2.21331 3.76183 2.0419C3.79792 2.22233 3.95129 2.30353 4.05353 2.40577C6.12851 4.47774 8.2065 6.54671 10.2815 8.61567C10.6784 9.01262 10.6574 9.09382 10.2544 9.43664C9.92963 9.7103 9.77326 9.44566 9.59583 9.26824C7.48176 7.16619 5.37069 5.05814 3.25963 2.95309C2.50482 2.20128 1.747 1.44948 0.992188 0.697674C0.992188 0 0.992188 0 1.69287 0ZM7.21712 1.74419C8.55533 2.26143 9.73717 3.02225 10.8107 3.95148C11.3731 4.43564 11.5595 4.41459 12.0046 3.81014C12.1309 3.63873 12.0918 3.5425 11.9385 3.44928C10.48 2.56215 8.94327 1.88552 7.21712 1.74419Z" fill="#433B36"/>
<path d="M17.1197 7.53608C16.9423 7.14815 16.7709 6.7542 16.5844 6.36928C16.425 6.04149 16.5904 5.837 16.8521 5.73175C17.1317 5.62048 17.246 5.87008 17.2941 6.07758C17.5467 7.15116 18.1091 8.06836 18.6895 8.98857C19.8052 10.7568 20.4246 12.6904 20.4758 14.7895C20.4938 15.5714 20.4367 16.3532 20.4156 17.1351C20.3946 17.8478 20.5179 18.5275 20.8877 19.1499C21.0141 19.3635 21.0742 19.58 20.9058 19.7995C20.7524 19.998 20.569 20.0732 20.3464 19.9138C20.2532 19.8446 20.169 19.7634 20.0878 19.6792C17.3212 16.9366 14.5515 14.1941 11.7849 11.4485C11.3338 11.0004 11.3428 10.8981 11.7127 10.5794C12.0495 10.2877 12.221 10.5523 12.4164 10.7448C14.4944 12.8137 16.5694 14.8827 18.6444 16.9517C18.7586 17.0659 18.8819 17.1682 19.0413 17.3155C18.8849 14.9789 18.1993 12.925 16.6987 11.1748C16.1845 10.5764 15.571 10.0531 15.3214 9.24719C15.2071 8.88331 14.8733 8.63071 14.5876 8.37509C14.3801 8.18865 14.3861 8.02024 14.5876 7.83379C14.9756 7.46992 15.3605 7.10003 15.7394 6.72714C15.9168 6.54971 16.0582 6.54069 16.2356 6.73616C16.5002 7.02786 16.7889 7.2955 17.0686 7.57217C17.0836 7.56014 17.1017 7.54811 17.1197 7.53608ZM19.4232 13.9956C19.309 12.2514 18.6384 10.6937 17.7362 9.22012C17.679 9.1299 17.6159 8.94346 17.4926 9.03668C17.246 9.22614 16.9934 9.43965 16.828 9.69526C16.7017 9.89374 16.9663 10.0441 17.0896 10.1794C18.094 11.3101 18.9 12.5551 19.4232 13.9956Z" fill="#433B36"/>
<path d="M5.34687 13.361C5.43108 13.37 5.46716 13.367 5.49423 13.379C6.39339 13.8 6.93769 13.3069 7.54816 12.7054C10.3629 9.93577 13.2138 7.20522 16.0676 4.47768C16.3954 4.16493 16.4315 3.97848 16.0796 3.66272C15.6045 3.2357 15.6917 2.88085 16.2901 2.67936C17.063 2.42074 17.8449 2.18317 18.6237 1.93658C18.8703 1.85839 19.1169 1.80727 19.3244 2.02078C19.5229 2.22527 19.4387 2.45382 19.3635 2.67636C19.1079 3.41613 18.8583 4.15891 18.5907 4.89267C18.3561 5.53923 18.0253 5.61441 17.5351 5.10919C17.2554 4.8205 17.066 4.79945 16.7653 5.09416C13.7791 7.99612 10.7839 10.8921 7.7767 13.773C7.41584 14.1188 7.21435 14.4496 7.40982 14.9488C7.63537 15.5232 7.45192 15.9532 6.97077 16.3381C6.50465 16.711 6.11371 17.1771 5.67165 17.5831C5.24764 17.9741 4.86873 17.8568 4.71235 17.3004C4.68529 17.2042 4.66424 17.105 4.65822 17.0057C4.62815 16.4464 4.32141 16.1727 3.77711 16.1246C3.62975 16.1126 3.4824 16.0645 3.34106 16.0134C2.92005 15.857 2.8148 15.5202 3.12755 15.2044C3.69892 14.624 4.30337 14.0707 4.89278 13.5083C5.03112 13.382 5.20253 13.3279 5.34687 13.361ZM6.46857 15.2134C6.41444 14.8135 6.38737 14.4225 5.82502 14.3865C5.45213 14.3624 4.63116 14.8165 4.5229 15.1683C4.46576 15.3548 4.6071 15.3578 4.71536 15.3728C5.12133 15.433 5.38898 15.6224 5.42807 16.0645C5.43709 16.1697 5.46115 16.3081 5.63857 16.263C5.86111 16.2118 6.47157 15.439 6.46857 15.2134Z" fill="#433B36"/>
</svg>
