<svg width="18" height="24" viewBox="0 0 18 24" fill="none" xmlns="http://www.w3.org/2000/svg">
<path d="M5.84715 15.1696C5.84715 15.1696 4.65726 12.198 0.892397 11.9997C0.892397 11.9997 3.46738 14.773 3.36822 17.1527C3.26907 19.5325 3.66569 23.4957 9.80723 23.4957C15.9488 23.4957 18.1333 17.5463 14.7651 11.9966C14.7651 11.9966 15.1617 16.1581 14.1701 16.5547C13.1786 16.9513 11.1985 11.005 13.1786 5.65673C13.1786 5.65673 8.62044 8.62834 11.3937 14.5747C11.3937 14.5747 7.40887 16.2046 9.30834 6.99845C9.58722 5.64124 9.10693 4.20347 7.97592 3.40091C7.50803 3.06936 6.93168 2.84625 6.24068 2.88034C6.24068 2.88034 10.4022 7.63678 5.64573 9.81513C5.64883 9.81823 3.66569 11.9966 5.84715 15.1696Z" fill="#433B36"/>
<path d="M0 13.1843C0 13.1843 1.73525 13.4817 2.03272 15.8615C2.33019 18.2413 2.33019 18.6348 2.87555 19.5768C2.87555 19.5768 0.0712691 19.1151 0.498884 16.379C0.926498 13.6429 0 13.1843 0 13.1843Z" fill="#433B36"/>
<path d="M16.1008 8.38066C16.1008 8.38066 14.9543 10.3142 16.3456 11.7985C17.7369 13.2827 17.4394 14.7701 17.4394 14.7701C17.4394 14.7701 18.682 12.9357 17.4673 11.4019C16.2526 9.86802 16.1008 8.38066 16.1008 8.38066Z" fill="#433B36"/>
<path d="M4.70769 2.87812C4.70769 2.87812 3.56738 4.96351 4.70769 6.64608C5.84799 8.32865 5.6001 9.22106 5.6001 9.22106C5.6001 9.22106 6.09279 8.74387 6.33758 7.95062C6.59787 7.10468 6.32209 6.19678 5.70855 5.55845C5.23136 5.06577 4.64881 4.18575 4.70769 2.87812Z" fill="#433B36"/>
<path d="M9.90883 0.503906C9.90883 0.503906 11.1483 2.09042 10.9004 3.67383C10.6525 5.26034 11.2475 6.64544 11.2475 6.64544C11.2475 6.64544 11.3466 5.45556 12.3878 3.87214C13.4258 2.28873 11.7897 0.503906 9.90883 0.503906Z" fill="#433B36"/>
</svg>
