<svg width="63" height="70" viewBox="0 0 63 70" fill="none" xmlns="http://www.w3.org/2000/svg">
<g filter="url(#filter0_d_607_24064)">
<path d="M45.998 37.2176L31.498 60L16.998 37.2176L18.9544 35L31.498 48.8891L43.6436 35L45.998 37.2176Z" fill="#BBB7AD" stroke="white" stroke-width="1.5"/>
<path d="M18.2225 22.6493C18.2225 23.0979 18.3834 23.5466 18.706 23.8883L30.3339 36.2386C30.9782 36.923 32.0227 36.923 32.6671 36.2386L44.2958 23.8892C44.6052 23.5606 44.7793 23.1146 44.7793 22.6502C44.7793 22.1858 44.6052 21.7398 44.2958 21.4112L32.6671 9.06173C32.0227 8.3774 30.9782 8.3774 30.3339 9.06173L18.706 21.4103C18.3834 21.7529 18.2225 22.2016 18.2225 22.6493Z" fill="#423B38"/>
<path d="M13 22.6484C13 23.1137 13.1741 23.5588 13.4835 23.8874L30.3338 41.7833C30.6432 42.1119 31.0631 42.2968 31.5004 42.2968C31.9377 42.2968 32.3576 42.1119 32.667 41.7833L49.5165 23.8874C49.8391 23.5448 50 23.0962 50 22.6484C50 22.2007 49.8391 21.7512 49.5165 21.4094L32.667 3.51346C32.3576 3.18488 31.9377 2.99999 31.5004 2.99999C31.0632 2.99999 30.6432 3.18488 30.3338 3.51346L13.4835 21.4094C13.1741 21.738 13 22.184 13 22.6484ZM18.3883 22.6484L31.5004 8.72348L44.6117 22.6484L31.5004 36.5733L18.3883 22.6484Z" fill="white"/>
<path d="M48.3594 22.6491L31.509 4.7531L14.6595 22.6491L31.509 40.545L48.3594 22.6491ZM31.509 6.24531L46.9544 22.6491L31.509 39.0528L16.0645 22.6491L31.509 6.24531Z" fill="#A59480"/>
<path d="M48.3594 22.6491L31.509 40.545L14.6595 22.6491L31.509 4.7531L48.3594 22.6491ZM16.0645 22.6491L31.509 39.0528L46.9544 22.6491L31.509 6.24531L16.0645 22.6491Z" fill="#BBB7AD"/>
<path d="M41.3836 22.6498L31.5059 33.1404L21.6281 22.6498L31.5059 12.1591L41.3836 22.6498Z" fill="#F2B30F"/>
<path d="M39.6342 22.6486L31.5068 14.0169L23.3787 22.6486L31.5068 31.2802L39.6342 22.6486ZM43.1348 22.6486L31.5068 34.998L19.8789 22.6486L31.5068 10.2991L43.1348 22.6486Z" fill="#DA984B"/>
</g>
<defs>
<filter id="filter0_d_607_24064" x="9" y="3" width="45" height="66.3969" filterUnits="userSpaceOnUse" color-interpolation-filters="sRGB">
<feFlood flood-opacity="0" result="BackgroundImageFix"/>
<feColorMatrix in="SourceAlpha" type="matrix" values="0 0 0 0 0 0 0 0 0 0 0 0 0 0 0 0 0 0 127 0" result="hardAlpha"/>
<feOffset dy="4"/>
<feGaussianBlur stdDeviation="2"/>
<feComposite in2="hardAlpha" operator="out"/>
<feColorMatrix type="matrix" values="0 0 0 0 0.258824 0 0 0 0 0.231373 0 0 0 0 0.219608 0 0 0 1 0"/>
<feBlend mode="normal" in2="BackgroundImageFix" result="effect1_dropShadow_607_24064"/>
<feBlend mode="normal" in="SourceGraphic" in2="effect1_dropShadow_607_24064" result="shape"/>
</filter>
</defs>
</svg>
