<svg width="37" height="38" viewBox="0 0 37 38" fill="none" xmlns="http://www.w3.org/2000/svg">
<path d="M18.4868 37.7942L0.0917969 19.393L18.4868 0.998047L36.8818 19.393L18.4868 37.7942ZM2.28372 19.393L18.4929 35.6022L34.7021 19.393L18.4929 3.18383L2.28372 19.393Z" fill="#433B36"/>
<path d="M32.2641 19.325L21.7711 8.83203L22.2684 10.8705L16.3619 10.0047L21.2737 13.658L19.0695 13.9342L21.1387 14.7877L15.0295 15.7946L20.5063 17.655L5.875 19.325L20.6106 21.2898L17.1723 23.9361L21.7404 22.9353L16.675 29.0199L22.5324 25.5386L20.9668 28.3813L23.0359 26.699L21.4334 30.4996L32.2641 19.325ZM16.5399 19.0733L23.3367 17.5076L21.6237 16.9244L24.8901 16.4761L23.0175 15.4447L25.6392 15.3096L23.9262 12.2519L31.3677 19.0733L25.8541 24.5623L27.2969 21.5968L23.392 23.2116L25.105 20.4732L21.5746 21.0565L22.7534 19.7057L16.5399 19.0733Z" fill="#433B36"/>
</svg>
