<svg width="37" height="37" viewBox="0 0 37 37" fill="none" xmlns="http://www.w3.org/2000/svg">
<path d="M18.0913 0.578125C18.1704 0.657293 18.2435 0.742552 18.3227 0.82172C24.169 6.668 30.0091 12.5143 35.8615 18.3545C36.0868 18.5798 36.1051 18.6894 35.8676 18.9269C30.0152 24.7671 24.169 30.6073 18.3288 36.4597C18.1217 36.6667 18.0121 36.685 17.7929 36.4658C11.9648 30.6073 6.11856 24.7671 0.266188 18.9269C0.0408626 18.7016 0.0286829 18.592 0.260098 18.3606C6.10638 12.5326 11.9405 6.69236 17.7746 0.852169C17.8598 0.766911 17.939 0.669473 18.0243 0.578125C18.0486 0.578125 18.073 0.578125 18.0913 0.578125ZM18.0243 2.74003C17.9573 2.8192 17.9025 2.91055 17.8355 2.97754C12.6956 8.12348 7.54968 13.2694 2.40373 18.4032C2.21495 18.5859 2.21495 18.6833 2.40373 18.8721C7.54968 24.012 12.6956 29.1518 17.8355 34.3039C18.0425 34.5109 18.14 34.4805 18.3288 34.2917C23.4503 29.1579 28.578 24.0302 33.7118 18.9087C33.9371 18.6833 33.9188 18.5798 33.7057 18.3667C28.578 13.2633 23.4686 8.14784 18.3592 3.03843C18.2983 2.97754 18.2313 2.91055 18.1643 2.84965C18.1339 2.8192 18.0973 2.79484 18.0243 2.74003Z" fill="#433B36"/>
<path d="M25.395 18.5142C25.395 19.8418 25.3889 21.1755 25.4011 22.5031C25.4011 22.6979 25.3402 22.838 25.2062 22.9781C22.8982 25.2801 20.5962 27.582 18.2942 29.8901C18.1359 30.0484 18.0506 30.0789 17.8801 29.9023C15.5842 27.5942 13.2761 25.2861 10.9681 22.9903C10.828 22.8502 10.7793 22.7101 10.7793 22.5152C10.7854 19.8418 10.7854 17.1683 10.7793 14.501C10.7793 14.2939 10.8402 14.1478 10.9864 14.0016C12.2409 12.7532 13.4954 11.5048 14.7377 10.2441C14.9082 10.0736 14.9874 10.0797 15.1518 10.2502C16.0531 11.1698 16.9727 12.065 17.8679 12.9846C18.0323 13.1551 18.1176 13.1551 18.282 12.9846C19.1833 12.065 20.0968 11.1637 20.9981 10.2502C21.1564 10.0858 21.2478 10.0675 21.4183 10.2441C22.6728 11.5108 23.9334 12.7714 25.194 14.026C25.3341 14.166 25.3889 14.3 25.3889 14.501C25.3889 15.8286 25.395 17.1683 25.395 18.5142ZM23.769 18.5081C23.769 17.3937 23.7629 16.2792 23.7751 15.1587C23.7751 14.9638 23.7142 14.8237 23.5802 14.6898C22.8555 13.9772 22.1369 13.2647 21.4305 12.5339C21.2417 12.3391 21.1504 12.3817 20.9859 12.5461C20.0846 13.4596 19.1651 14.3609 18.2698 15.2805C18.1115 15.4388 18.0323 15.4327 17.8801 15.2744C16.9727 14.3487 16.047 13.4413 15.1396 12.5157C14.9874 12.3634 14.9021 12.3512 14.7438 12.5096C14.0252 13.2465 13.3005 13.9651 12.5697 14.6837C12.4357 14.8116 12.3809 14.9455 12.387 15.1282C12.3931 17.3571 12.3931 19.5921 12.387 21.821C12.387 22.0159 12.4479 22.1559 12.588 22.296C14.3541 24.056 16.114 25.816 17.874 27.582C18.0323 27.7404 18.1115 27.7769 18.2881 27.5942C20.0481 25.816 21.8202 24.0499 23.5924 22.2838C23.7325 22.1438 23.7873 22.0037 23.7873 21.8088C23.7629 20.7187 23.769 19.6165 23.769 18.5081Z" fill="#433B36"/>
<path d="M18.0723 12.1011C18.0114 12.0463 17.9626 12.0037 17.9139 11.961C17.3902 11.4373 16.8665 10.9075 16.3305 10.3838C16.1966 10.2559 16.2209 10.1828 16.3427 10.0671C16.8725 9.54944 17.4024 9.01962 17.92 8.4898C18.0479 8.35583 18.121 8.36801 18.2428 8.49589C18.7604 9.02571 19.2902 9.54944 19.82 10.0732C19.9236 10.1767 19.9601 10.2498 19.8383 10.3777C19.2902 10.9136 18.7543 11.4617 18.2062 11.9976C18.1697 12.0341 18.121 12.0646 18.0723 12.1011Z" fill="#433B36"/>
<path d="M22.9755 18.5113C22.9755 19.5162 22.9695 20.5149 22.9816 21.5197C22.9816 21.7146 22.9207 21.8547 22.7807 21.9887C21.2765 23.4807 19.7784 24.9788 18.2863 26.483C18.1158 26.6535 18.0306 26.6779 17.8479 26.4891C16.3498 24.9727 14.8395 23.4685 13.3292 21.9643C13.2013 21.8364 13.1465 21.7085 13.1465 21.5197C13.1526 19.4918 13.1526 17.4639 13.1465 15.4359C13.1465 15.2776 13.1769 15.1619 13.2926 15.0462C13.7859 14.5651 14.2731 14.084 14.7481 13.5846C14.9065 13.4202 14.9856 13.4689 15.1135 13.6029C16.0026 14.4981 16.91 15.3811 17.7809 16.2885C18.0184 16.5321 18.128 16.4956 18.3411 16.2763C19.212 15.3811 20.1072 14.5042 20.9842 13.6151C21.1547 13.4446 21.246 13.4506 21.4044 13.6212C21.8367 14.0779 22.2874 14.5225 22.7441 14.9609C22.9025 15.1132 22.9695 15.2654 22.9695 15.4908C22.9695 16.5078 22.9755 17.5126 22.9755 18.5113Z" fill="#433B36"/>
</svg>
