<svg width="871" height="810" viewBox="0 0 871 810" fill="none" xmlns="http://www.w3.org/2000/svg">
<mask id="path-1-inside-1_2855_105549" fill="white">
<path fill-rule="evenodd" clip-rule="evenodd" d="M423.273 11H0V810H871V11H448.184L435.729 23.4558L423.273 11Z"/>
</mask>
<path fill-rule="evenodd" clip-rule="evenodd" d="M423.273 11H0V810H871V11H448.184L435.729 23.4558L423.273 11Z" fill="#D9D4C5"/>
<path d="M0 11V2H-9V11H0ZM423.273 11L429.637 4.63603L427.001 2H423.273V11ZM0 810H-9V819H0V810ZM871 810V819H880V810H871ZM871 11H880V2H871V11ZM448.184 11V2H444.456L441.82 4.63603L448.184 11ZM435.729 23.4558L429.365 29.8198L435.729 36.1838L442.092 29.8198L435.729 23.4558ZM0 20H423.273V2H0V20ZM9 810V11H-9V810H9ZM871 801H0V819H871V801ZM862 11V810H880V11H862ZM448.184 20H871V2H448.184V20ZM441.82 4.63603L429.365 17.0919L442.092 29.8198L454.548 17.364L441.82 4.63603ZM442.092 17.0919L429.637 4.63603L416.909 17.364L429.365 29.8198L442.092 17.0919Z" fill="#A59480" mask="url(#path-1-inside-1_2855_105549)"/>
<path fill-rule="evenodd" clip-rule="evenodd" d="M420.001 20H9V248H862V20H450.265L450.528 20.2089L435.396 32.23L420.001 20Z" fill="#423B38"/>
<path d="M55.7144 765.461L37.2344 773.941L45.7144 755.461L55.7144 755.461L55.7144 765.461Z" fill="#A59480"/>
<path d="M33.1659 778.01L39.6359 763.91L31.8359 756.12L31.8359 779.34L55.0559 779.34L47.2659 771.54L33.1659 778.01Z" fill="#A59480"/>
<path d="M25.965 785.211L25.965 748.001L23.525 750.441L20.125 791.051L60.465 787.671L62.925 785.211L25.965 785.211Z" fill="#A59480"/>
<path d="M829.461 755.461L837.941 773.941L819.461 765.461L819.461 755.461L829.461 755.461Z" fill="#A59480"/>
<path d="M842.01 778.01L827.91 771.54L820.12 779.34L843.34 779.34L843.34 756.12L835.54 763.91L842.01 778.01Z" fill="#A59480"/>
<path d="M849.211 785.211L812.001 785.211L814.441 787.651L855.051 791.051L851.671 750.711L849.211 748.251L849.211 785.211Z" fill="#A59480"/>
<rect x="436.193" y="2.12132" width="10" height="10" transform="rotate(45 436.193 2.12132)" stroke="#423B38" stroke-width="3"/>
<mask id="path-11-inside-2_2855_105549" fill="white">
<path fill-rule="evenodd" clip-rule="evenodd" d="M423.441 16.5039H6V804.496H865V16.5039H448.01L435.725 28.7881L423.441 16.5039Z"/>
</mask>
<path d="M6 16.5039V15.5039H5V16.5039H6ZM423.441 16.5039L424.148 15.7968L423.855 15.5039H423.441V16.5039ZM6 804.496H5V805.496H6V804.496ZM865 804.496V805.496H866V804.496H865ZM865 16.5039H866V15.5039H865V16.5039ZM448.01 16.5039V15.5039H447.595L447.302 15.7968L448.01 16.5039ZM435.725 28.7881L435.018 29.4952L435.725 30.2024L436.432 29.4952L435.725 28.7881ZM6 17.5039H423.441V15.5039H6V17.5039ZM7 804.496V16.5039H5V804.496H7ZM865 803.496H6V805.496H865V803.496ZM864 16.5039V804.496H866V16.5039H864ZM448.01 17.5039H865V15.5039H448.01V17.5039ZM447.302 15.7968L435.018 28.081L436.432 29.4952L448.717 17.211L447.302 15.7968ZM436.432 28.081L424.148 15.7968L422.734 17.211L435.018 29.4952L436.432 28.081Z" fill="#D9D4C5" mask="url(#path-11-inside-2_2855_105549)"/>
</svg>
