<svg width="37" height="37" viewBox="0 0 37 37" fill="none" xmlns="http://www.w3.org/2000/svg">
<path d="M18.0888 36.998L0.0917969 18.995L18.0888 0.998047L36.0858 18.995L18.0888 36.998ZM2.2363 18.995L18.0948 34.8535L33.9533 18.995L18.0948 3.13654L2.2363 18.995Z" fill="#433B36"/>
<path d="M15.0547 19.8418L13.625 20.4425L15.8356 25.6806L21.0737 23.47L20.473 22.0404L16.6585 23.6502L15.0547 19.8418Z" fill="#433B36"/>
<path d="M17.0084 22.7971L19.6875 21.6678L23.8564 11.4078L22.721 8.72266L20.0419 9.85798L15.873 20.118L17.0084 22.7971Z" fill="#433B36"/>
<path d="M15.4871 26.5333L14.9826 25.3379L13.5469 28.87L14.0515 30.0714L15.2529 29.5608L16.6885 26.0287L15.4871 26.5333Z" fill="#433B36"/>
<path d="M23.6503 22.2266L22.7793 22.3767L23.3379 25.5605L26.5217 25.0018L26.3715 24.1368L24.0588 24.5393L23.6503 22.2266Z" fill="#433B36"/>
<path d="M24.3546 24.1131L25.9825 23.8307L29.5987 18.6767L29.3104 17.0488L27.6825 17.3372L24.0723 22.4852L24.3546 24.1131Z" fill="#433B36"/>
<path d="M23.0395 25.9866L22.9134 25.2598L21.6699 27.0378L21.7961 27.7647L22.5229 27.6385L23.7724 25.8605L23.0395 25.9866Z" fill="#433B36"/>
<path d="M8.45374 19.3984L7.79297 19.9811L9.92546 22.4079L12.3523 20.2755L11.7696 19.6147L10.0035 21.1645L8.45374 19.3984Z" fill="#433B36"/>
<path d="M10.0386 20.6412L11.282 19.554L11.6845 13.2767L10.5972 12.0332L9.35379 13.1205L8.94531 19.4038L10.0386 20.6412Z" fill="#433B36"/>
<path d="M9.8884 22.9297L9.40183 22.3711L9.26367 24.5336L9.75024 25.0923L10.3029 24.6057L10.4471 22.4432L9.8884 22.9297Z" fill="#433B36"/>
</svg>
