<svg width="38" height="38" viewBox="0 0 38 38" fill="none" xmlns="http://www.w3.org/2000/svg">
<path d="M18.5887 0.998047L0.0917969 19.495L18.5887 37.9919L37.0856 19.495L18.5887 0.998047ZM2.29587 19.495L18.5949 3.19594L34.8939 19.495L18.5949 35.794L2.29587 19.495Z" fill="#433B36"/>
<path d="M16.532 10.198L14.4761 8.99414L13.834 11.2908L15.8899 12.4886L16.532 10.198Z" fill="#433B36"/>
<path d="M7.48107 20.6988V19.4949V18.291L4.90039 19.4949L7.48107 20.6988Z" fill="#433B36"/>
<path d="M21.8174 27.101L15.5695 23.4523L12.8406 16.7227L13.7173 13.5926L17.1561 15.5991L18.2242 11.7651L21.0333 13.4012L22.5336 17.1055L23.8177 16.9882L21.9285 12.3208L17.3722 9.66602L16.3041 13.4938L12.8653 11.4873L11.4453 16.5746L14.6742 24.5327L22.6694 29.2001L24.6574 22.0817L23.2498 21.952L21.8174 27.101Z" fill="#433B36"/>
<path d="M18.2374 17.4942L21.8861 17.167L20.5834 13.9443L18.651 12.8145L17.5829 16.6484L14.1441 14.6419L13.5391 16.7966L16.021 22.9149L21.3922 26.0451L22.5529 21.89L18.2374 21.4949V17.4942Z" fill="#433B36"/>
<path d="M32.5286 19.4959L30.0343 17.0078L18.8164 18.0265V20.9714L30.0343 21.9901L32.5286 19.4959Z" fill="#433B36"/>
<path d="M8.11719 18.9946V19.4947V19.9948L11.9265 20.3405L11.2165 18.7168L8.11719 18.9946Z" fill="#433B36"/>
<path d="M24.657 16.2914L24.373 13.9824L25.6696 14.9147L24.657 16.2914Z" fill="#433B36"/>
<path d="M16.1137 26.6133L14.6875 28.0888L16.5335 29.2001L16.1137 26.6133Z" fill="#433B36"/>
<path d="M26.1762 24.2793L25.6699 24.909L25.9231 25.5326L26.6207 25.1251L26.1762 24.2793Z" fill="#433B36"/>
<path d="M11.9265 21.8477L10.877 22.323L11.4449 22.7676L11.9265 22.3045V21.8477Z" fill="#433B36"/>
</svg>
