<svg width="615" height="19" viewBox="0 0 615 19" fill="none" xmlns="http://www.w3.org/2000/svg">
<path d="M243.256 14.272C244.28 14.272 245.496 14.16 246.136 13.904C246.408 13.792 246.472 13.712 246.552 13.44C246.712 12.896 246.904 11.504 246.904 11.312C246.904 11.184 246.872 11.072 246.76 11.072C246.632 11.072 246.6 11.136 246.552 11.392C246.488 11.68 246.28 12.144 246.008 12.448C245.368 13.184 244.504 13.344 243.08 13.344C240.936 13.344 238.04 11.456 238.04 7.648C238.04 6.096 238.344 4.576 239.512 3.504C240.216 2.864 241.128 2.512 242.52 2.512C243.992 2.512 245.24 2.944 245.768 3.504C246.168 3.92 246.376 4.48 246.392 4.976C246.392 5.2 246.424 5.328 246.552 5.328C246.696 5.328 246.728 5.2 246.744 4.96C246.776 4.64 246.76 3.76 246.792 3.232C246.824 2.672 246.872 2.48 246.872 2.352C246.872 2.256 246.808 2.176 246.632 2.16C246.152 2.112 245.64 1.968 245.032 1.888C244.296 1.792 243.704 1.728 242.712 1.728C240.328 1.728 238.808 2.368 237.656 3.424C236.12 4.832 235.784 6.72 235.784 7.808C235.784 9.36 236.2 11.152 237.768 12.528C239.224 13.792 241.064 14.272 243.256 14.272ZM251.989 8.192C251.941 8.192 251.893 8.176 251.893 8.096V7.808C251.893 5.744 251.893 5.248 251.925 4.816C251.957 4.336 252.069 4.144 252.453 4.08C252.613 4.048 252.741 4.032 252.853 4.032C253.029 4.032 253.109 3.984 253.109 3.888C253.109 3.792 253.013 3.76 252.821 3.76C252.261 3.76 251.285 3.792 250.949 3.792C250.565 3.792 249.637 3.76 248.885 3.76C248.693 3.76 248.581 3.792 248.581 3.888C248.581 3.984 248.677 4.032 248.821 4.032C249.029 4.032 249.269 4.048 249.381 4.08C249.829 4.208 249.957 4.352 249.989 4.816C250.005 5.248 250.005 5.632 250.005 7.696V10.096C250.005 11.344 250.005 12.416 249.941 12.992C249.893 13.392 249.813 13.648 249.525 13.712C249.397 13.744 249.237 13.76 249.029 13.76C248.853 13.76 248.805 13.84 248.805 13.904C248.805 14 248.901 14.048 249.077 14.048C249.637 14.048 250.565 14 250.885 14C251.285 14 252.261 14.048 253.173 14.048C253.349 14.048 253.461 14 253.461 13.904C253.461 13.84 253.397 13.76 253.237 13.76C253.029 13.76 252.709 13.744 252.517 13.712C252.101 13.648 252.021 13.392 251.973 13.008C251.909 12.416 251.893 11.376 251.893 10.128V9.088C251.893 9.024 251.941 9.008 251.989 9.008H257.301C257.333 9.008 257.381 9.04 257.381 9.088V10.128C257.381 11.376 257.381 12.416 257.317 12.992C257.269 13.392 257.189 13.648 256.901 13.712C256.773 13.744 256.613 13.76 256.389 13.76C256.229 13.76 256.165 13.84 256.165 13.904C256.165 14 256.277 14.048 256.469 14.048C257.013 14.048 258.005 14 258.325 14C258.709 14 259.637 14.048 260.549 14.048C260.725 14.048 260.837 14 260.837 13.904C260.837 13.84 260.757 13.76 260.613 13.76C260.389 13.76 260.085 13.744 259.893 13.712C259.461 13.648 259.381 13.392 259.333 13.008C259.269 12.416 259.269 11.344 259.269 10.096V7.696C259.269 5.632 259.269 5.248 259.301 4.816C259.333 4.336 259.445 4.144 259.813 4.08C259.989 4.048 260.117 4.032 260.229 4.032C260.389 4.032 260.485 3.984 260.485 3.888C260.485 3.792 260.389 3.76 260.181 3.76C259.637 3.76 258.709 3.792 258.373 3.792C258.005 3.792 257.013 3.76 256.261 3.76C256.053 3.76 255.957 3.792 255.957 3.888C255.957 3.984 256.037 4.032 256.197 4.032C256.389 4.032 256.629 4.048 256.741 4.08C257.189 4.208 257.317 4.352 257.349 4.816C257.365 5.248 257.381 5.744 257.381 7.808V8.096C257.381 8.176 257.333 8.192 257.301 8.192H251.989ZM267.8 10.624C267.864 10.624 267.912 10.64 267.944 10.72L269.032 13.456C269.096 13.616 269 13.744 268.904 13.76C268.76 13.776 268.728 13.824 268.728 13.904C268.728 14 268.888 14 269.144 14.016C270.328 14.048 271.352 14.048 271.848 14.048C272.376 14.048 272.456 14.016 272.456 13.904C272.456 13.808 272.392 13.76 272.264 13.76C272.104 13.76 271.944 13.744 271.736 13.712C271.48 13.664 271.08 13.488 270.536 12.256C269.64 10.192 267.288 4.624 266.952 3.872C266.808 3.568 266.744 3.44 266.536 3.44C266.392 3.44 266.28 3.6 266.12 3.984L262.44 12.544C262.152 13.232 261.912 13.648 261.272 13.744C261.144 13.744 260.984 13.76 260.856 13.76C260.744 13.76 260.696 13.824 260.696 13.904C260.696 14.016 260.776 14.048 260.952 14.048C261.688 14.048 262.44 14 262.584 14C263.032 14 263.688 14.048 264.152 14.048C264.296 14.048 264.376 14.016 264.376 13.904C264.376 13.824 264.344 13.76 264.168 13.76H263.96C263.528 13.76 263.4 13.616 263.4 13.376C263.4 13.216 263.464 12.88 263.608 12.544L264.36 10.72C264.392 10.64 264.408 10.624 264.488 10.624H267.8ZM264.776 9.872C264.728 9.872 264.696 9.84 264.728 9.776L266.088 6.336C266.104 6.288 266.12 6.208 266.168 6.208C266.2 6.208 266.216 6.288 266.232 6.336L267.56 9.792C267.576 9.84 267.56 9.872 267.496 9.872H264.776ZM273.99 10.096C273.99 11.344 273.99 12.416 273.926 12.992C273.878 13.392 273.798 13.648 273.51 13.712C273.382 13.744 273.222 13.76 273.014 13.76C272.838 13.76 272.79 13.84 272.79 13.904C272.79 14 272.886 14.048 273.062 14.048C273.622 14.048 274.518 14 274.79 14C274.998 14 276.166 14.048 276.982 14.048C277.158 14.048 277.27 14 277.27 13.904C277.27 13.84 277.206 13.76 277.094 13.76C276.918 13.76 276.614 13.744 276.406 13.712C275.974 13.648 275.91 13.392 275.862 12.992C275.798 12.416 275.782 11.36 275.782 10.096V9.904C275.782 9.824 275.83 9.792 275.894 9.792L277.158 9.824C277.254 9.824 277.334 9.84 277.414 9.92C277.59 10.128 278.182 11.04 278.742 11.776C279.526 12.832 280.054 13.472 280.662 13.776C281.03 13.968 281.414 14.048 282.198 14.048H283.542C283.718 14.048 283.814 14.016 283.814 13.904C283.814 13.84 283.75 13.76 283.638 13.76C283.526 13.76 283.446 13.76 283.302 13.728C283.078 13.68 282.582 13.616 281.798 12.832C280.95 11.984 279.958 10.752 278.71 9.216C280.086 8.112 280.662 7.216 280.662 6.208C280.662 5.296 280.07 4.608 279.67 4.336C278.918 3.84 277.894 3.76 276.998 3.76C276.566 3.76 275.286 3.792 274.806 3.792C274.518 3.792 273.622 3.76 272.886 3.76C272.678 3.76 272.566 3.792 272.566 3.888C272.566 3.984 272.662 4.032 272.806 4.032C273.014 4.032 273.254 4.048 273.366 4.08C273.814 4.208 273.942 4.352 273.974 4.816C273.99 5.248 273.99 5.632 273.99 7.696V10.096ZM275.782 4.704C275.782 4.592 275.814 4.544 275.91 4.512C276.054 4.48 276.39 4.464 276.742 4.464C277.574 4.464 278.886 4.96 278.886 6.88C278.886 8 278.406 8.592 277.974 8.896C277.734 9.072 277.542 9.12 276.982 9.12C276.63 9.12 276.214 9.088 275.91 8.992C275.814 8.944 275.782 8.896 275.782 8.752V4.704ZM288.878 10.624C288.942 10.624 288.99 10.64 289.022 10.72L290.11 13.456C290.174 13.616 290.078 13.744 289.982 13.76C289.838 13.776 289.806 13.824 289.806 13.904C289.806 14 289.966 14 290.222 14.016C291.406 14.048 292.43 14.048 292.926 14.048C293.454 14.048 293.534 14.016 293.534 13.904C293.534 13.808 293.47 13.76 293.342 13.76C293.182 13.76 293.022 13.744 292.814 13.712C292.558 13.664 292.158 13.488 291.614 12.256C290.718 10.192 288.366 4.624 288.03 3.872C287.886 3.568 287.822 3.44 287.614 3.44C287.47 3.44 287.358 3.6 287.198 3.984L283.518 12.544C283.23 13.232 282.99 13.648 282.35 13.744C282.222 13.744 282.062 13.76 281.934 13.76C281.822 13.76 281.774 13.824 281.774 13.904C281.774 14.016 281.854 14.048 282.03 14.048C282.766 14.048 283.518 14 283.662 14C284.11 14 284.766 14.048 285.23 14.048C285.374 14.048 285.454 14.016 285.454 13.904C285.454 13.824 285.422 13.76 285.246 13.76H285.038C284.606 13.76 284.478 13.616 284.478 13.376C284.478 13.216 284.542 12.88 284.686 12.544L285.438 10.72C285.47 10.64 285.486 10.624 285.566 10.624H288.878ZM285.854 9.872C285.806 9.872 285.774 9.84 285.806 9.776L287.166 6.336C287.182 6.288 287.198 6.208 287.246 6.208C287.278 6.208 287.294 6.288 287.31 6.336L288.638 9.792C288.654 9.84 288.638 9.872 288.574 9.872H285.854ZM300.124 14.224C301.036 14.224 302.108 14.144 302.668 13.92C302.908 13.824 302.972 13.76 303.036 13.52C303.18 13.056 303.34 11.872 303.34 11.712C303.34 11.6 303.276 11.472 303.18 11.472C303.068 11.472 303.036 11.536 303.004 11.744C302.956 12 302.764 12.384 302.524 12.656C301.964 13.28 301.276 13.376 300.028 13.376C298.14 13.376 295.644 11.84 295.644 8.608C295.644 7.28 295.9 5.968 296.94 5.072C297.58 4.528 298.364 4.304 299.596 4.304C300.892 4.304 301.836 4.64 302.316 5.104C302.668 5.456 302.844 5.936 302.86 6.368C302.86 6.544 302.892 6.656 303.004 6.656C303.132 6.656 303.18 6.512 303.196 6.32C303.212 6.048 303.212 5.296 303.244 4.848C303.276 4.368 303.308 4.208 303.308 4.096C303.308 4.016 303.26 3.952 303.1 3.936C302.684 3.888 302.22 3.792 301.692 3.712C301.052 3.632 300.524 3.568 299.644 3.568C297.548 3.568 296.204 4.112 295.18 5.008C293.836 6.208 293.532 7.808 293.532 8.736C293.532 10.048 293.9 11.584 295.292 12.752C296.572 13.824 298.204 14.224 300.124 14.224ZM308.143 10.096C308.143 11.344 308.143 12.416 308.079 12.992C308.031 13.392 307.951 13.648 307.663 13.712C307.551 13.744 307.375 13.76 307.167 13.76C306.991 13.76 306.943 13.84 306.943 13.904C306.943 14 307.039 14.048 307.215 14.048C307.775 14.048 308.735 14 309.055 14C309.455 14 310.399 14.048 311.327 14.048C311.487 14.048 311.599 14 311.599 13.904C311.599 13.84 311.535 13.76 311.375 13.76C311.167 13.76 310.847 13.744 310.655 13.712C310.239 13.648 310.159 13.392 310.111 13.008C310.047 12.416 310.031 11.344 310.031 10.096V4.592L311.807 4.624C313.071 4.64 313.439 5.056 313.471 5.408L313.487 5.552C313.503 5.76 313.535 5.824 313.647 5.824C313.727 5.824 313.759 5.744 313.775 5.6C313.775 5.248 313.807 4.24 313.807 3.952C313.807 3.744 313.791 3.664 313.695 3.664C313.647 3.664 313.535 3.696 313.311 3.728C313.103 3.76 312.799 3.792 312.351 3.792H306.639C306.175 3.792 305.647 3.776 305.231 3.728C304.879 3.68 304.735 3.568 304.623 3.568C304.543 3.568 304.495 3.648 304.463 3.824C304.431 3.936 304.159 5.248 304.159 5.472C304.159 5.616 304.191 5.696 304.287 5.696C304.383 5.696 304.415 5.632 304.447 5.52C304.479 5.424 304.543 5.248 304.687 5.056C304.895 4.752 305.231 4.656 306.047 4.64L308.143 4.592V10.096ZM316.396 10.096C316.396 11.344 316.396 12.416 316.332 12.992C316.284 13.392 316.204 13.648 315.916 13.712C315.788 13.744 315.628 13.76 315.42 13.76C315.244 13.76 315.196 13.84 315.196 13.904C315.196 14 315.292 14.048 315.468 14.048C315.756 14.048 316.108 14.032 316.444 14.016C316.78 14.016 317.084 14 317.244 14C317.66 14 318.188 14.016 318.876 14.032C319.564 14.064 320.412 14.08 321.468 14.08C321.996 14.08 322.124 14.08 322.22 13.728C322.3 13.456 322.412 12.528 322.412 12.224C322.412 12.08 322.396 11.904 322.284 11.904C322.188 11.904 322.156 11.968 322.124 12.112C322.028 12.672 321.868 12.96 321.516 13.12C321.148 13.28 320.556 13.296 320.188 13.296C318.748 13.296 318.316 13.088 318.284 12.16C318.268 11.76 318.284 10.608 318.284 10.144V9.056C318.284 8.976 318.3 8.912 318.364 8.912C318.716 8.912 320.316 8.944 320.572 8.976C321.1 9.024 321.276 9.232 321.356 9.504C321.388 9.68 321.388 9.856 321.404 10C321.404 10.064 321.436 10.112 321.532 10.112C321.66 10.112 321.676 9.92 321.676 9.808C321.676 9.712 321.708 9.168 321.74 8.896C321.82 8.208 321.852 7.984 321.852 7.904C321.852 7.824 321.804 7.76 321.74 7.76C321.676 7.76 321.628 7.84 321.516 7.936C321.388 8.08 321.18 8.112 320.844 8.144C320.524 8.176 318.7 8.176 318.38 8.176C318.3 8.176 318.284 8.112 318.284 8.032V4.672C318.284 4.592 318.316 4.544 318.38 4.544C318.668 4.544 320.348 4.576 320.588 4.608C321.292 4.672 321.404 4.864 321.516 5.104C321.596 5.264 321.612 5.504 321.612 5.6C321.612 5.712 321.628 5.776 321.724 5.776C321.836 5.776 321.868 5.616 321.884 5.552C321.916 5.392 321.948 4.8 321.964 4.656C321.996 4.032 322.076 3.872 322.076 3.776C322.076 3.712 322.06 3.648 321.98 3.648C321.916 3.648 321.836 3.696 321.756 3.712C321.644 3.728 321.42 3.776 321.164 3.792C320.892 3.808 317.772 3.792 317.324 3.792C316.924 3.792 316.028 3.76 315.292 3.76C315.084 3.76 314.972 3.792 314.972 3.888C314.972 3.984 315.068 4.032 315.212 4.032C315.42 4.032 315.66 4.048 315.772 4.08C316.22 4.208 316.348 4.352 316.38 4.816C316.396 5.248 316.396 5.632 316.396 7.696V10.096ZM325.302 10.096C325.302 11.344 325.302 12.416 325.238 12.992C325.19 13.392 325.11 13.648 324.822 13.712C324.694 13.744 324.534 13.76 324.326 13.76C324.15 13.76 324.102 13.84 324.102 13.904C324.102 14 324.198 14.048 324.374 14.048C324.934 14.048 325.83 14 326.102 14C326.31 14 327.478 14.048 328.294 14.048C328.47 14.048 328.582 14 328.582 13.904C328.582 13.84 328.518 13.76 328.406 13.76C328.23 13.76 327.926 13.744 327.718 13.712C327.286 13.648 327.222 13.392 327.174 12.992C327.11 12.416 327.094 11.36 327.094 10.096V9.904C327.094 9.824 327.142 9.792 327.206 9.792L328.47 9.824C328.566 9.824 328.646 9.84 328.726 9.92C328.902 10.128 329.494 11.04 330.054 11.776C330.838 12.832 331.366 13.472 331.974 13.776C332.342 13.968 332.726 14.048 333.51 14.048H334.854C335.03 14.048 335.126 14.016 335.126 13.904C335.126 13.84 335.062 13.76 334.95 13.76C334.838 13.76 334.758 13.76 334.614 13.728C334.39 13.68 333.894 13.616 333.11 12.832C332.262 11.984 331.27 10.752 330.022 9.216C331.398 8.112 331.974 7.216 331.974 6.208C331.974 5.296 331.382 4.608 330.982 4.336C330.23 3.84 329.206 3.76 328.31 3.76C327.878 3.76 326.598 3.792 326.118 3.792C325.83 3.792 324.934 3.76 324.198 3.76C323.99 3.76 323.878 3.792 323.878 3.888C323.878 3.984 323.974 4.032 324.118 4.032C324.326 4.032 324.566 4.048 324.678 4.08C325.126 4.208 325.254 4.352 325.286 4.816C325.302 5.248 325.302 5.632 325.302 7.696V10.096ZM327.094 4.704C327.094 4.592 327.126 4.544 327.222 4.512C327.366 4.48 327.702 4.464 328.054 4.464C328.886 4.464 330.198 4.96 330.198 6.88C330.198 8 329.718 8.592 329.286 8.896C329.046 9.072 328.854 9.12 328.294 9.12C327.942 9.12 327.526 9.088 327.222 8.992C327.126 8.944 327.094 8.896 327.094 8.752V4.704ZM342.844 14.272C343.692 14.272 344.588 14.128 345.388 13.616C346.54 12.864 346.892 11.76 346.892 10.832C346.892 9.312 346.204 8.208 344.268 6.752L343.82 6.416C342.492 5.408 342.124 4.848 342.124 4.112C342.124 3.152 342.844 2.464 344.028 2.464C345.068 2.464 345.532 2.944 345.772 3.248C346.108 3.664 346.188 4.16 346.188 4.304C346.188 4.496 346.236 4.592 346.348 4.592C346.476 4.592 346.524 4.464 346.524 4.112C346.524 2.864 346.588 2.4 346.588 2.192C346.588 2.08 346.508 2.032 346.364 2C345.948 1.888 345.276 1.728 344.236 1.728C342.012 1.728 340.54 2.992 340.54 4.752C340.54 6.048 341.148 7.168 342.908 8.544L343.644 9.12C344.972 10.16 345.212 10.896 345.212 11.68C345.212 12.528 344.508 13.504 343.068 13.504C342.076 13.504 341.132 13.072 340.78 11.888C340.7 11.616 340.636 11.28 340.636 11.072C340.636 10.944 340.62 10.8 340.476 10.8C340.348 10.8 340.3 10.976 340.284 11.216C340.268 11.472 340.204 12.432 340.204 13.312C340.204 13.664 340.252 13.744 340.508 13.856C341.196 14.16 341.916 14.272 342.844 14.272ZM352.252 10.096C352.252 11.344 352.252 12.416 352.188 12.992C352.14 13.392 352.06 13.648 351.772 13.712C351.66 13.744 351.484 13.76 351.276 13.76C351.1 13.76 351.052 13.84 351.052 13.904C351.052 14 351.148 14.048 351.324 14.048C351.884 14.048 352.844 14 353.164 14C353.564 14 354.508 14.048 355.436 14.048C355.596 14.048 355.708 14 355.708 13.904C355.708 13.84 355.644 13.76 355.484 13.76C355.276 13.76 354.956 13.744 354.764 13.712C354.348 13.648 354.268 13.392 354.22 13.008C354.156 12.416 354.14 11.344 354.14 10.096V4.592L355.916 4.624C357.18 4.64 357.548 5.056 357.58 5.408L357.596 5.552C357.612 5.76 357.644 5.824 357.756 5.824C357.836 5.824 357.868 5.744 357.884 5.6C357.884 5.248 357.916 4.24 357.916 3.952C357.916 3.744 357.9 3.664 357.804 3.664C357.756 3.664 357.644 3.696 357.42 3.728C357.212 3.76 356.908 3.792 356.46 3.792H350.748C350.284 3.792 349.756 3.776 349.34 3.728C348.988 3.68 348.844 3.568 348.732 3.568C348.652 3.568 348.604 3.648 348.572 3.824C348.54 3.936 348.268 5.248 348.268 5.472C348.268 5.616 348.3 5.696 348.396 5.696C348.492 5.696 348.524 5.632 348.556 5.52C348.588 5.424 348.652 5.248 348.796 5.056C349.004 4.752 349.34 4.656 350.156 4.64L352.252 4.592V10.096ZM363.472 10.624C363.536 10.624 363.584 10.64 363.616 10.72L364.704 13.456C364.768 13.616 364.672 13.744 364.576 13.76C364.432 13.776 364.4 13.824 364.4 13.904C364.4 14 364.56 14 364.816 14.016C366 14.048 367.024 14.048 367.52 14.048C368.048 14.048 368.128 14.016 368.128 13.904C368.128 13.808 368.064 13.76 367.936 13.76C367.776 13.76 367.616 13.744 367.408 13.712C367.152 13.664 366.752 13.488 366.208 12.256C365.312 10.192 362.96 4.624 362.624 3.872C362.48 3.568 362.416 3.44 362.208 3.44C362.064 3.44 361.952 3.6 361.792 3.984L358.112 12.544C357.824 13.232 357.584 13.648 356.944 13.744C356.816 13.744 356.656 13.76 356.528 13.76C356.416 13.76 356.368 13.824 356.368 13.904C356.368 14.016 356.448 14.048 356.624 14.048C357.36 14.048 358.112 14 358.256 14C358.704 14 359.36 14.048 359.824 14.048C359.968 14.048 360.048 14.016 360.048 13.904C360.048 13.824 360.016 13.76 359.84 13.76H359.632C359.2 13.76 359.072 13.616 359.072 13.376C359.072 13.216 359.136 12.88 359.28 12.544L360.032 10.72C360.064 10.64 360.08 10.624 360.16 10.624H363.472ZM360.448 9.872C360.4 9.872 360.368 9.84 360.4 9.776L361.76 6.336C361.776 6.288 361.792 6.208 361.84 6.208C361.872 6.208 361.888 6.288 361.904 6.336L363.232 9.792C363.248 9.84 363.232 9.872 363.168 9.872H360.448ZM370.487 10.096C370.487 11.344 370.487 12.416 370.423 12.992C370.375 13.392 370.295 13.648 370.007 13.712C369.895 13.744 369.719 13.76 369.511 13.76C369.335 13.76 369.287 13.84 369.287 13.904C369.287 14 369.383 14.048 369.559 14.048C370.119 14.048 371.079 14 371.399 14C371.799 14 372.743 14.048 373.671 14.048C373.831 14.048 373.943 14 373.943 13.904C373.943 13.84 373.879 13.76 373.719 13.76C373.511 13.76 373.191 13.744 372.999 13.712C372.583 13.648 372.503 13.392 372.455 13.008C372.391 12.416 372.375 11.344 372.375 10.096V4.592L374.151 4.624C375.415 4.64 375.783 5.056 375.815 5.408L375.831 5.552C375.847 5.76 375.879 5.824 375.991 5.824C376.071 5.824 376.103 5.744 376.119 5.6C376.119 5.248 376.151 4.24 376.151 3.952C376.151 3.744 376.135 3.664 376.039 3.664C375.991 3.664 375.879 3.696 375.655 3.728C375.447 3.76 375.143 3.792 374.695 3.792H368.983C368.519 3.792 367.991 3.776 367.575 3.728C367.223 3.68 367.079 3.568 366.967 3.568C366.887 3.568 366.839 3.648 366.807 3.824C366.775 3.936 366.503 5.248 366.503 5.472C366.503 5.616 366.535 5.696 366.631 5.696C366.727 5.696 366.759 5.632 366.791 5.52C366.823 5.424 366.887 5.248 367.031 5.056C367.239 4.752 367.575 4.656 368.391 4.64L370.487 4.592V10.096ZM380.26 14.224C381.012 14.224 381.94 14.144 382.612 13.664C383.636 12.944 384.02 12.128 384.02 11.12C384.02 9.888 383.444 8.848 381.588 7.824L381.012 7.504C379.748 6.8 379.524 6.32 379.524 5.712C379.524 4.784 380.436 4.256 381.444 4.256C382.356 4.256 382.804 4.64 383.012 4.896C383.316 5.248 383.38 5.664 383.38 5.792C383.38 5.952 383.428 6.032 383.524 6.032C383.636 6.032 383.7 5.888 383.7 5.6C383.7 4.528 383.748 4.144 383.748 3.968C383.748 3.872 383.684 3.824 383.556 3.792C383.188 3.696 382.468 3.568 381.556 3.568C379.604 3.568 378.004 4.64 378.004 6.304C378.004 7.504 378.548 8.416 380.212 9.392L381.028 9.872C382.276 10.608 382.42 11.2 382.42 11.792C382.42 12.752 381.684 13.52 380.468 13.52C379.588 13.52 378.532 13.184 378.228 12.176C378.148 11.936 378.1 11.648 378.1 11.472C378.1 11.376 378.084 11.248 377.956 11.248C377.844 11.248 377.78 11.392 377.78 11.6C377.764 11.824 377.7 12.672 377.7 13.408C377.7 13.712 377.748 13.776 377.972 13.872C378.58 14.144 379.444 14.224 380.26 14.224Z" fill="#423B38"/>
<path d="M217.817 13.2317L204.092 8.11583L217.817 3L222.908 8.11583L217.817 13.2317Z" fill="#433B36"/>
<path d="M0.205048 8L3.09181 10.8868L5.97856 8L3.09181 5.11325L0.205048 8ZM210.092 7.5L3.09181 7.5V8.5L210.092 8.5V7.5Z" fill="#423B38"/>
<path d="M397.183 2.99881L410.908 8.11464L397.183 13.2305L392.092 8.11464L397.183 2.99881Z" fill="#433B36"/>
<path d="M614.795 8.23049L611.908 5.34374L609.021 8.23049L611.908 11.1172L614.795 8.23049ZM404.908 8.73047L611.908 8.73049L611.908 7.73049L404.908 7.73047L404.908 8.73047Z" fill="#423B38"/>
</svg>
