<svg width="616" height="19" viewBox="0 0 616 19" fill="none" xmlns="http://www.w3.org/2000/svg">
<path d="M281.57 9.408C281.57 10.88 281.57 12.144 281.49 12.816C281.442 13.28 281.346 13.632 281.026 13.696C280.882 13.728 280.69 13.76 280.45 13.76C280.258 13.76 280.194 13.808 280.194 13.888C280.194 14 280.306 14.048 280.514 14.048C281.154 14.048 282.162 14 282.53 14C282.978 14 283.986 14.048 285.042 14.048C285.218 14.048 285.346 14 285.346 13.888C285.346 13.808 285.266 13.76 285.09 13.76C284.85 13.76 284.498 13.728 284.274 13.696C283.794 13.632 283.698 13.28 283.65 12.832C283.57 12.144 283.57 10.88 283.57 9.408V2.848L285.586 2.896C287.01 2.928 287.442 3.376 287.474 3.792L287.49 3.968C287.506 4.208 287.538 4.288 287.666 4.288C287.762 4.288 287.794 4.192 287.81 4.032C287.81 3.616 287.858 2.512 287.858 2.176C287.858 1.936 287.842 1.84 287.73 1.84C287.666 1.84 287.538 1.872 287.298 1.92C287.058 1.952 286.706 2 286.194 2H279.858C279.33 2 278.722 1.968 278.258 1.92C277.858 1.888 277.698 1.728 277.57 1.728C277.474 1.728 277.426 1.824 277.378 2.032C277.346 2.16 277.042 3.616 277.042 3.872C277.042 4.048 277.074 4.128 277.186 4.128C277.282 4.128 277.33 4.064 277.362 3.936C277.394 3.808 277.474 3.616 277.634 3.376C277.874 3.024 278.258 2.944 279.186 2.912L281.57 2.848V9.408ZM290.802 9.408C290.802 10.88 290.802 12.144 290.722 12.816C290.658 13.28 290.578 13.632 290.258 13.696C290.114 13.728 289.922 13.76 289.682 13.76C289.49 13.76 289.426 13.808 289.426 13.888C289.426 14 289.538 14.048 289.746 14.048C290.386 14.048 291.394 14 291.698 14C291.938 14 293.122 14.048 294.05 14.048C294.258 14.048 294.37 14 294.37 13.888C294.37 13.808 294.306 13.76 294.178 13.76C293.986 13.76 293.634 13.728 293.394 13.696C292.914 13.632 292.818 13.28 292.77 12.816C292.69 12.144 292.69 10.88 292.69 9.392V9.168C292.69 9.072 292.738 9.04 292.818 9.04L294.21 9.072C294.322 9.072 294.418 9.088 294.498 9.184C294.706 9.424 295.442 10.512 296.082 11.392C296.978 12.624 297.586 13.376 298.274 13.744C298.69 13.968 299.09 14.048 299.986 14.048H301.506C301.698 14.048 301.81 14.016 301.81 13.888C301.81 13.808 301.746 13.76 301.618 13.76C301.49 13.76 301.346 13.744 301.17 13.712C300.93 13.664 300.274 13.552 299.378 12.624C298.434 11.632 297.33 10.208 295.906 8.416C297.522 7.104 298.018 6.016 298.018 4.832C298.018 3.76 297.378 2.944 296.93 2.64C296.066 2.048 294.994 1.952 293.986 1.952C293.49 1.952 292.274 2 291.73 2C291.394 2 290.386 1.952 289.538 1.952C289.298 1.952 289.186 1.984 289.186 2.096C289.186 2.208 289.282 2.24 289.458 2.24C289.682 2.24 289.954 2.256 290.082 2.288C290.61 2.4 290.738 2.656 290.77 3.2C290.802 3.712 290.802 4.16 290.802 6.592V9.408ZM292.69 2.992C292.69 2.864 292.722 2.8 292.834 2.768C292.994 2.72 293.282 2.704 293.682 2.704C294.626 2.704 296.13 3.36 296.13 5.632C296.13 6.944 295.666 7.68 295.186 8.032C294.898 8.24 294.69 8.304 294.05 8.304C293.65 8.304 293.17 8.256 292.834 8.144C292.722 8.096 292.69 8.032 292.69 7.856V2.992ZM307.088 9.872C307.168 9.872 307.216 9.904 307.248 9.984L308.528 13.376C308.608 13.568 308.496 13.712 308.384 13.744C308.224 13.76 308.16 13.792 308.16 13.888C308.16 14 308.352 14 308.64 14.016C309.92 14.048 311.088 14.048 311.664 14.048C312.256 14.048 312.4 14.016 312.4 13.888C312.4 13.776 312.32 13.76 312.192 13.76C312 13.76 311.76 13.744 311.52 13.696C311.184 13.616 310.72 13.392 310.112 11.952C309.088 9.52 306.528 2.992 306.144 2.112C305.984 1.744 305.888 1.6 305.744 1.6C305.584 1.6 305.488 1.776 305.296 2.24L301.28 12.288C300.96 13.088 300.656 13.632 299.92 13.728C299.792 13.744 299.568 13.76 299.424 13.76C299.296 13.76 299.232 13.792 299.232 13.888C299.232 14.016 299.328 14.048 299.536 14.048C300.368 14.048 301.248 14 301.424 14C301.92 14 302.608 14.048 303.12 14.048C303.296 14.048 303.392 14.016 303.392 13.888C303.392 13.792 303.344 13.76 303.152 13.76H302.912C302.416 13.76 302.272 13.552 302.272 13.264C302.272 13.072 302.352 12.688 302.512 12.288L303.376 10C303.408 9.904 303.44 9.872 303.52 9.872H307.088ZM303.84 9.072C303.776 9.072 303.76 9.024 303.776 8.96L305.248 5.024C305.264 4.96 305.296 4.88 305.344 4.88C305.392 4.88 305.408 4.96 305.424 5.024L306.864 8.976C306.88 9.024 306.864 9.072 306.784 9.072H303.84ZM314.083 9.408C314.083 10.96 314.083 12.224 314.003 12.896C313.955 13.36 313.859 13.632 313.539 13.696C313.395 13.728 313.203 13.76 312.963 13.76C312.771 13.76 312.707 13.808 312.707 13.888C312.707 14 312.819 14.048 313.027 14.048C313.667 14.048 314.675 14 315.043 14C315.475 14 316.483 14.048 317.539 14.048C317.715 14.048 317.843 14 317.843 13.888C317.843 13.808 317.763 13.76 317.587 13.76C317.347 13.76 316.995 13.728 316.771 13.696C316.291 13.632 316.179 13.344 316.131 12.912C316.067 12.224 316.067 10.96 316.067 9.408V6.592C316.067 4.16 316.067 3.712 316.099 3.2C316.131 2.64 316.259 2.368 316.691 2.288C316.883 2.256 317.011 2.24 317.171 2.24C317.331 2.24 317.427 2.208 317.427 2.08C317.427 1.984 317.299 1.952 317.091 1.952C316.483 1.952 315.539 2 315.139 2C314.675 2 313.667 1.952 313.059 1.952C312.803 1.952 312.675 1.984 312.675 2.08C312.675 2.208 312.771 2.24 312.931 2.24C313.123 2.24 313.331 2.256 313.507 2.304C313.859 2.384 314.019 2.656 314.051 3.2C314.083 3.712 314.083 4.16 314.083 6.592V9.408ZM323.445 9.408C323.445 10.88 323.445 12.144 323.365 12.816C323.317 13.28 323.221 13.632 322.901 13.696C322.757 13.728 322.565 13.76 322.325 13.76C322.133 13.76 322.069 13.808 322.069 13.888C322.069 14 322.181 14.048 322.389 14.048C323.029 14.048 324.037 14 324.405 14C324.853 14 325.861 14.048 326.917 14.048C327.093 14.048 327.221 14 327.221 13.888C327.221 13.808 327.141 13.76 326.965 13.76C326.725 13.76 326.373 13.728 326.149 13.696C325.669 13.632 325.573 13.28 325.525 12.832C325.445 12.144 325.445 10.88 325.445 9.408V2.848L327.461 2.896C328.885 2.928 329.317 3.376 329.349 3.792L329.365 3.968C329.381 4.208 329.413 4.288 329.541 4.288C329.637 4.288 329.669 4.192 329.685 4.032C329.685 3.616 329.733 2.512 329.733 2.176C329.733 1.936 329.717 1.84 329.605 1.84C329.541 1.84 329.413 1.872 329.173 1.92C328.933 1.952 328.581 2 328.069 2H321.733C321.205 2 320.597 1.968 320.133 1.92C319.733 1.888 319.573 1.728 319.445 1.728C319.349 1.728 319.301 1.824 319.253 2.032C319.221 2.16 318.917 3.616 318.917 3.872C318.917 4.048 318.949 4.128 319.061 4.128C319.157 4.128 319.205 4.064 319.237 3.936C319.269 3.808 319.349 3.616 319.509 3.376C319.749 3.024 320.133 2.944 321.061 2.912L323.445 2.848V9.408ZM334.133 14.272C334.981 14.272 335.877 14.128 336.677 13.616C337.829 12.864 338.181 11.76 338.181 10.832C338.181 9.312 337.493 8.208 335.557 6.752L335.109 6.416C333.781 5.408 333.413 4.848 333.413 4.112C333.413 3.152 334.133 2.464 335.317 2.464C336.357 2.464 336.821 2.944 337.061 3.248C337.397 3.664 337.477 4.16 337.477 4.304C337.477 4.496 337.525 4.592 337.637 4.592C337.765 4.592 337.813 4.464 337.813 4.112C337.813 2.864 337.877 2.4 337.877 2.192C337.877 2.08 337.797 2.032 337.653 2C337.237 1.888 336.565 1.728 335.525 1.728C333.301 1.728 331.829 2.992 331.829 4.752C331.829 6.048 332.437 7.168 334.197 8.544L334.933 9.12C336.261 10.16 336.501 10.896 336.501 11.68C336.501 12.528 335.797 13.504 334.357 13.504C333.365 13.504 332.421 13.072 332.069 11.888C331.989 11.616 331.925 11.28 331.925 11.072C331.925 10.944 331.909 10.8 331.765 10.8C331.637 10.8 331.589 10.976 331.573 11.216C331.557 11.472 331.493 12.432 331.493 13.312C331.493 13.664 331.541 13.744 331.797 13.856C332.485 14.16 333.205 14.272 334.133 14.272Z" fill="#423B38"/>
<path d="M257.317 13.2317L243.592 8.11583L257.317 3L262.408 8.11583L257.317 13.2317Z" fill="#433B36"/>
<path d="M0.705048 8L3.59181 10.8868L6.47856 8L3.59181 5.11325L0.705048 8ZM252.592 7.5L3.59181 7.5V8.5L252.592 8.5V7.5Z" fill="#423B38"/>
<path d="M358.683 3.00271L372.408 8.11855L358.683 13.2344L353.592 8.11854L358.683 3.00271Z" fill="#433B36"/>
<path d="M615.295 8.2344L612.408 5.34765L609.521 8.2344L612.408 11.1211L615.295 8.2344ZM363.408 8.73438L612.408 8.7344L612.408 7.7344L363.408 7.73438L363.408 8.73438Z" fill="#423B38"/>
</svg>
