<svg width="1160" height="20" viewBox="0 0 1160 20" fill="none" xmlns="http://www.w3.org/2000/svg">
<g clip-path="url(#clip0_573_18150)">
<rect x="-0.297363" y="9.15659" width="537" height="2" fill="#A59480"/>
<path d="M542.156 4.69754C544.302 4.69754 546.158 5.93625 547.05 7.73691L540.706 10.1566L547.05 12.5763C546.158 14.377 544.302 15.6157 542.156 15.6157C539.479 15.6157 537.254 13.6889 536.788 11.1465C536.788 11.1465 536.703 10.6975 536.703 10.1975C536.703 9.69754 536.788 9.1667 536.788 9.1667C537.254 6.62493 539.479 4.69754 542.156 4.69754Z" fill="#A59480"/>
<path d="M580 19.3132L570.843 10.1566L580 1L589.157 10.1566L580 19.3132ZM574.152 10.1566L580 16.0045L585.848 10.1566L580 4.30874L574.152 10.1566Z" fill="#A59480"/>
<path d="M568.299 10.1566L573.729 4.72606L570.294 1.29126L547.05 10.1566L570.294 19.0219L573.729 15.5865L568.299 10.1566Z" fill="#A59480"/>
<path d="M589.706 1.29126L586.271 4.72606L591.702 10.1566L586.271 15.5865L589.706 19.0219L612.95 10.1566L589.706 1.29126Z" fill="#A59480"/>
<path d="M617.844 15.6157C615.698 15.6157 613.842 14.377 612.95 12.5763L619.294 10.1566L612.95 7.73691C613.842 5.93624 615.698 4.69754 617.844 4.69754C620.521 4.69754 622.746 6.62427 623.212 9.1667C623.212 9.1667 623.297 9.61566 623.297 10.1157C623.297 10.6157 623.212 11.1465 623.212 11.1465C622.746 13.6883 620.521 15.6157 617.844 15.6157Z" fill="#A59480"/>
<rect x="1160.3" y="11.1566" width="537" height="2" transform="rotate(-180 1160.3 11.1566)" fill="#A59480"/>
</g>
<defs>
<clipPath id="clip0_573_18150">
<rect width="1160" height="20" fill="white"/>
</clipPath>
</defs>
</svg>
