<svg viewBox="0 0 328 20" fill="none" xmlns="http://www.w3.org/2000/svg">
<g clip-path="url(#clip0_699_19327)">
<rect x="-416.297" y="9.15674" width="537" height="2" fill="#A59480"/>
<path d="M126.156 4.69775C128.302 4.69775 130.158 5.93646 131.05 7.73713L124.706 10.1568L131.05 12.5765C130.158 14.3772 128.302 15.6159 126.156 15.6159C123.479 15.6159 121.254 13.6891 120.788 11.1467C120.788 11.1467 120.703 10.6978 120.703 10.1978C120.703 9.69775 120.788 9.16691 120.788 9.16691C121.254 6.62514 123.479 4.69775 126.156 4.69775Z" fill="#A59480"/>
<path d="M164 19.3132L154.844 10.1566L164 1L173.157 10.1566L164 19.3132ZM158.152 10.1566L164 16.0045L169.848 10.1566L164 4.30874L158.152 10.1566Z" fill="#A59480"/>
<path d="M152.299 10.1563L157.729 4.72582L154.294 1.29102L131.05 10.1563L154.294 19.0217L157.729 15.5862L152.299 10.1563Z" fill="#A59480"/>
<path d="M173.707 1.29102L170.271 4.72582L175.702 10.1563L170.271 15.5862L173.707 19.0217L196.95 10.1563L173.707 1.29102Z" fill="#A59480"/>
<path d="M201.844 15.6157C199.698 15.6157 197.842 14.377 196.95 12.5763L203.294 10.1567L196.95 7.73697C197.842 5.93631 199.698 4.6976 201.844 4.6976C204.521 4.6976 206.746 6.62433 207.212 9.16676C207.212 9.16676 207.297 9.61572 207.297 10.1157C207.297 10.6157 207.212 11.1466 207.212 11.1466C206.746 13.6883 204.521 15.6157 201.844 15.6157Z" fill="#A59480"/>
<rect x="744.297" y="11.1567" width="537" height="2" transform="rotate(-180 744.297 11.1567)" fill="#A59480"/>
</g>
<defs>
<clipPath id="clip0_699_19327">
<rect width="328" height="20" fill="white"/>
</clipPath>
</defs>
</svg>
