<svg width="21" height="21" viewBox="0 0 21 21" fill="none" xmlns="http://www.w3.org/2000/svg">
<g clip-path="url(#clip0_95_8122)">
<path d="M17.414 3.84998C16.1026 3.25856 14.6969 2.82141 13.2269 2.57284C13.2138 2.57033 13.2002 2.57195 13.1881 2.57748C13.176 2.583 13.1658 2.59217 13.1591 2.6037C12.9791 2.91998 12.7786 3.33227 12.638 3.65798C11.0789 3.42504 9.49392 3.42504 7.93486 3.65798C7.77829 3.29701 7.60173 2.94503 7.40601 2.6037C7.39937 2.59203 7.38933 2.58266 7.37724 2.57684C7.36514 2.57102 7.35155 2.56902 7.33829 2.57113C5.86915 2.8197 4.46343 3.25684 3.15115 3.84913C3.13986 3.85386 3.13029 3.86194 3.12372 3.87227C0.456293 7.7937 -0.27485 11.6183 0.0842925 15.3948C0.0852919 15.4041 0.088163 15.413 0.092731 15.4211C0.0972991 15.4292 0.103469 15.4363 0.110864 15.442C1.66777 16.5755 3.4043 17.439 5.24772 17.9963C5.26057 18.0002 5.27432 18.0002 5.28716 17.9962C5.3 17.9923 5.31135 17.9845 5.31972 17.974C5.71572 17.4426 6.06886 16.8811 6.37058 16.2914C6.38858 16.2571 6.37143 16.216 6.33543 16.2023C5.78172 15.9937 5.24522 15.7421 4.73086 15.4497C4.72162 15.4444 4.71383 15.4369 4.7082 15.4279C4.70256 15.4189 4.69926 15.4086 4.69858 15.398C4.6979 15.3874 4.69987 15.3767 4.7043 15.3671C4.70874 15.3574 4.71551 15.349 4.72401 15.3426C4.83201 15.2628 4.94001 15.1797 5.04286 15.0966C5.05212 15.0891 5.06327 15.0843 5.07508 15.0828C5.08688 15.0813 5.09888 15.0831 5.10972 15.088C8.47572 16.6 12.1211 16.6 15.4477 15.088C15.4586 15.0828 15.4707 15.0808 15.4827 15.0821C15.4947 15.0835 15.506 15.0882 15.5154 15.0957C15.6183 15.1797 15.7254 15.2628 15.8343 15.3426C15.8429 15.3488 15.8498 15.3571 15.8543 15.3667C15.8589 15.3763 15.861 15.3869 15.8605 15.3975C15.86 15.4081 15.8569 15.4184 15.8514 15.4276C15.8459 15.4367 15.8383 15.4443 15.8291 15.4497C15.3166 15.7446 14.7834 15.994 14.2237 16.2014C14.2151 16.2045 14.2073 16.2094 14.2007 16.2158C14.1942 16.2222 14.1891 16.2299 14.1858 16.2385C14.1824 16.247 14.181 16.2561 14.1815 16.2652C14.1819 16.2744 14.1844 16.2833 14.1886 16.2914C14.4971 16.8803 14.8503 17.4408 15.2386 17.9731C15.2466 17.984 15.2579 17.9922 15.2708 17.9965C15.2837 18.0008 15.2976 18.001 15.3106 17.9971C17.1572 17.4414 18.8965 16.5775 20.4551 15.442C20.4628 15.4367 20.4691 15.4298 20.4739 15.4218C20.4786 15.4138 20.4816 15.4049 20.4826 15.3957C20.9111 11.0294 19.7643 7.2357 17.4406 3.87398C17.4349 3.86306 17.4255 3.85454 17.414 3.84998ZM6.87372 13.0951C5.86058 13.0951 5.02486 12.1788 5.02486 11.0551C5.02486 9.93055 5.84429 9.01513 6.87372 9.01513C7.91086 9.01513 8.73886 9.93827 8.72258 11.0551C8.72258 12.1797 7.90315 13.0951 6.87372 13.0951V13.0951ZM13.7094 13.0951C12.6954 13.0951 11.8606 12.1788 11.8606 11.0551C11.8606 9.93055 12.6791 9.01513 13.7094 9.01513C14.7466 9.01513 15.5746 9.93827 15.5583 11.0551C15.5583 12.1797 14.7474 13.0951 13.7094 13.0951V13.0951Z" fill="white"/>
</g>
<defs>
<clipPath id="clip0_95_8122">
<rect width="20.5714" height="20.5714" fill="white"/>
</clipPath>
</defs>
</svg>
