<svg width="21" height="22" viewBox="0 0 21 22" fill="none" xmlns="http://www.w3.org/2000/svg">
<path d="M10.2847 7.03809C9.23355 7.03809 8.22544 7.45566 7.48215 8.19895C6.73886 8.94223 6.32129 9.95035 6.32129 11.0015C6.32129 12.0527 6.73886 13.0608 7.48215 13.8041C8.22544 14.5474 9.23355 14.9649 10.2847 14.9649C11.3359 14.9649 12.344 14.5474 13.0873 13.8041C13.8306 13.0608 14.2481 12.0527 14.2481 11.0015C14.2481 9.95035 13.8306 8.94223 13.0873 8.19895C12.344 7.45566 11.3359 7.03809 10.2847 7.03809V7.03809ZM10.2847 13.5755C9.60182 13.5755 8.9469 13.3042 8.46402 12.8214C7.98114 12.3385 7.70986 11.6836 7.70986 11.0007C7.70986 10.3178 7.98114 9.66284 8.46402 9.17996C8.9469 8.69708 9.60182 8.4258 10.2847 8.4258C10.9676 8.4258 11.6225 8.69708 12.1054 9.17996C12.5883 9.66284 12.8596 10.3178 12.8596 11.0007C12.8596 11.6836 12.5883 12.3385 12.1054 12.8214C11.6225 13.3042 10.9676 13.5755 10.2847 13.5755V13.5755Z" fill="white"/>
<path d="M14.4054 7.81675C14.9158 7.81675 15.3294 7.40306 15.3294 6.89275C15.3294 6.38244 14.9158 5.96875 14.4054 5.96875C13.8951 5.96875 13.4814 6.38244 13.4814 6.89275C13.4814 7.40306 13.8951 7.81675 14.4054 7.81675Z" fill="white"/>
<path d="M17.5998 5.95232C17.4014 5.43991 17.0982 4.97457 16.7095 4.58609C16.3209 4.19761 15.8554 3.89456 15.343 3.69632C14.7432 3.4712 14.1097 3.34947 13.4692 3.33632C12.6438 3.30032 12.3824 3.29004 10.2892 3.29004C8.1961 3.29004 7.92781 3.29004 7.10924 3.33632C6.46929 3.3488 5.83618 3.47055 5.23724 3.69632C4.72462 3.89433 4.25904 4.1973 3.87039 4.58581C3.48173 4.97431 3.17858 5.43977 2.98038 5.95232C2.75522 6.55199 2.63377 7.18561 2.62124 7.82604C2.58439 8.65061 2.57324 8.91204 2.57324 11.006C2.57324 13.0992 2.57324 13.3658 2.62124 14.186C2.6341 14.8272 2.75496 15.4598 2.98038 16.0606C3.17914 16.573 3.48258 17.0382 3.87133 17.4267C4.26008 17.8152 4.72558 18.1182 5.2381 18.3166C5.8359 18.5508 6.46927 18.6812 7.11096 18.7023C7.93638 18.7383 8.19781 18.7495 10.291 18.7495C12.3841 18.7495 12.6524 18.7495 13.471 18.7023C14.1113 18.6893 14.7449 18.5679 15.3447 18.3432C15.857 18.1445 16.3223 17.8412 16.7109 17.4526C17.0995 17.064 17.4028 16.5987 17.6015 16.0863C17.827 15.4863 17.9478 14.8538 17.9607 14.2126C17.9975 13.388 18.0087 13.1266 18.0087 11.0326C18.0087 8.93861 18.0087 8.6729 17.9607 7.85261C17.9507 7.20313 17.8286 6.56025 17.5998 5.95232V5.95232ZM16.5558 14.1226C16.5503 14.6166 16.4601 15.106 16.2892 15.5695C16.1605 15.9028 15.9635 16.2055 15.7107 16.458C15.458 16.7106 15.1552 16.9075 14.8218 17.036C14.3634 17.2061 13.8793 17.2963 13.3904 17.3026C12.5761 17.3403 12.3464 17.3498 10.2584 17.3498C8.16867 17.3498 7.95524 17.3498 7.12553 17.3026C6.63689 17.2966 6.15295 17.2064 5.69496 17.036C5.3604 16.9083 5.05639 16.7118 4.80258 16.4591C4.54877 16.2065 4.35082 15.9034 4.22153 15.5695C4.05305 15.1109 3.96294 14.6273 3.95496 14.1389C3.9181 13.3246 3.90953 13.0949 3.90953 11.0069C3.90953 8.91804 3.90953 8.70461 3.95496 7.87404C3.9605 7.38034 4.05066 6.89125 4.22153 6.42804C4.48296 5.75175 5.01867 5.21947 5.69496 4.96061C6.15318 4.79102 6.63698 4.70086 7.12553 4.69404C7.94067 4.65718 8.16953 4.6469 10.2584 4.6469C12.3472 4.6469 12.5615 4.6469 13.3904 4.69404C13.8793 4.69992 14.3635 4.7901 14.8218 4.96061C15.1552 5.08942 15.4579 5.2865 15.7106 5.53921C15.9634 5.79192 16.1604 6.09467 16.2892 6.42804C16.4577 6.88657 16.5478 7.37018 16.5558 7.85861C16.5927 8.67375 16.6021 8.90261 16.6021 10.9915C16.6021 13.0795 16.6021 13.304 16.5652 14.1235H16.5558V14.1226Z" fill="white"/>
</svg>
