<svg width="18" height="19" viewBox="0 0 18 19" fill="none" xmlns="http://www.w3.org/2000/svg">
<path d="M2.51431 5.28901C2.5244 5.18608 2.51027 5.08222 2.47306 4.98572C2.43585 4.88922 2.37658 4.80277 2.3 4.73326L0.714313 2.82076V2.53613H5.64294L9.45387 10.8926L12.8041 2.53613H17.5044V2.82076L16.1476 4.12182C16.0903 4.16537 16.0459 4.22373 16.0192 4.29063C15.9925 4.35754 15.9846 4.43044 15.9963 4.50151V14.064C15.9846 14.1351 15.9925 14.208 16.0192 14.2749C16.0459 14.3418 16.0903 14.4001 16.1476 14.4437L17.4729 15.7448V16.0294H10.8039V15.7448L12.1786 14.4122C12.3125 14.2783 12.3125 14.2361 12.3125 14.0325V6.30488L8.49087 16.0046H7.97394L3.53019 6.30488V12.8051C3.49137 13.0791 3.58306 13.3536 3.77656 13.5504L5.5625 15.7161V16.0007H0.5V15.7194L2.28594 13.5504C2.4755 13.3536 2.56381 13.0757 2.51431 12.8051V5.28901Z" fill="white"/>
</svg>
