<svg width="21" height="22" viewBox="0 0 21 22" fill="none" xmlns="http://www.w3.org/2000/svg">
<path d="M18.6431 5.82314C18.0283 6.08832 17.3593 6.27917 16.6703 6.3535C17.3857 5.92848 17.9214 5.25702 18.177 4.4651C17.5057 4.86446 16.7702 5.14449 16.0033 5.29278C15.6828 4.95011 15.2951 4.67713 14.8645 4.49083C14.4338 4.30454 13.9694 4.20893 13.5002 4.20997C11.6018 4.20997 10.075 5.74881 10.075 7.6372C10.075 7.90238 10.1071 8.16756 10.1593 8.42269C7.31671 8.27403 4.78145 6.916 3.09595 4.83675C2.78884 5.36132 2.6279 5.95859 2.62988 6.56644C2.62988 7.75573 3.23457 8.80439 4.15667 9.42113C3.61326 9.39973 3.08258 9.25037 2.60778 8.98519V9.02738C2.60778 10.6928 3.78502 12.0729 5.35399 12.3903C5.0594 12.4668 4.75635 12.506 4.45198 12.5068C4.22899 12.5068 4.01805 12.4847 3.80511 12.4546C4.23903 13.8126 5.50265 14.799 7.00734 14.8312C5.83011 15.7533 4.35555 16.2957 2.75444 16.2957C2.46716 16.2957 2.20198 16.2856 1.92676 16.2535C3.44551 17.2278 5.24752 17.7903 7.18814 17.7903C13.4881 17.7903 16.9355 12.5711 16.9355 8.041C16.9355 7.89234 16.9355 7.74367 16.9254 7.59501C17.5924 7.10684 18.177 6.50216 18.6431 5.82314Z" fill="white"/>
</svg>
