<svg width="21" height="21" viewBox="0 0 21 21" fill="none" xmlns="http://www.w3.org/2000/svg">
<g clip-path="url(#clip0_95_8125)">
<path d="M20.1421 4.82359C20.025 4.38745 19.7954 3.98972 19.4763 3.6702C19.1572 3.35068 18.7597 3.12058 18.3237 3.00292C16.7189 2.57129 10.2857 2.57129 10.2857 2.57129C10.2857 2.57129 3.85255 2.57129 2.2477 3.00063C1.81153 3.1179 1.41388 3.34787 1.09471 3.66745C0.775531 3.98703 0.546059 4.38496 0.429337 4.82129C-8.75823e-08 6.42843 0 9.78047 0 9.78047C0 9.78047 -8.75823e-08 13.1325 0.429337 14.7374C0.665816 15.6236 1.36378 16.3215 2.2477 16.558C3.85255 16.9897 10.2857 16.9897 10.2857 16.9897C10.2857 16.9897 16.7189 16.9897 18.3237 16.558C19.2099 16.3215 19.9056 15.6236 20.1421 14.7374C20.5714 13.1325 20.5714 9.78047 20.5714 9.78047C20.5714 9.78047 20.5714 6.42843 20.1421 4.82359ZM8.24235 12.857V6.70394L13.5689 9.75751L8.24235 12.857Z" fill="white"/>
</g>
<defs>
<clipPath id="clip0_95_8125">
<rect width="20.5714" height="20.5714" fill="white"/>
</clipPath>
</defs>
</svg>
