<svg width="306" height="32" viewBox="0 0 306 32" fill="none" xmlns="http://www.w3.org/2000/svg">
<path d="M31.7233 13.6426L31.6452 12.8691C31.5931 12.4473 31.4629 12.1426 31.2545 11.9551C31.0514 11.7676 30.7858 11.6738 30.4577 11.6738H27.9108V16.041H31.7077V16.9863H27.9108V20.2285C27.9108 20.4577 27.9316 20.64 27.9733 20.7754C28.0202 20.9108 28.0801 21.015 28.153 21.0879C28.2259 21.1608 28.3144 21.2103 28.4186 21.2363C28.5228 21.2572 28.6321 21.2676 28.7467 21.2676H29.7389V22.1191H23.8952V21.2676H24.567C24.6816 21.2676 24.7884 21.2572 24.8873 21.2363C24.9863 21.2155 25.0722 21.1738 25.1452 21.1113C25.2233 21.0436 25.2832 20.9473 25.3248 20.8223C25.3665 20.6921 25.3873 20.5228 25.3873 20.3145V12.5176C25.3873 12.304 25.3665 12.1348 25.3248 12.0098C25.2832 11.8796 25.2233 11.7806 25.1452 11.7129C25.0722 11.6452 24.9863 11.6009 24.8873 11.5801C24.7884 11.554 24.6816 11.541 24.567 11.541H23.8952V10.6973H32.7623L32.8405 13.6426H31.7233ZM48.5467 18.3613L48.0858 19.7363C48.0441 19.8665 47.9998 20.0202 47.953 20.1973C47.9113 20.3691 47.8905 20.5202 47.8905 20.6504C47.8905 20.7546 47.9113 20.8457 47.953 20.9238C47.9946 21.002 48.0493 21.0671 48.117 21.1191C48.1847 21.166 48.2603 21.2025 48.3436 21.2285C48.4321 21.2546 48.5233 21.2676 48.617 21.2676H49.2889V22.1191H45.1248V21.2676H45.3202C45.4608 21.2676 45.5884 21.252 45.703 21.2207C45.8228 21.1895 45.9321 21.1322 46.0311 21.0488C46.1353 20.9603 46.2316 20.8405 46.3202 20.6895C46.4139 20.5384 46.5077 20.3431 46.6014 20.1035L50.0702 10.6973H52.2655L55.6092 20.1191C55.6873 20.3431 55.7681 20.5306 55.8514 20.6816C55.9399 20.8275 56.0337 20.9447 56.1327 21.0332C56.2368 21.1165 56.3462 21.1764 56.4608 21.2129C56.5754 21.2493 56.6952 21.2676 56.8202 21.2676H57.1092V22.1191H51.828V21.2676H52.453C52.5311 21.2676 52.6118 21.2572 52.6952 21.2363C52.7785 21.2103 52.8514 21.1738 52.9139 21.127C52.9816 21.0749 53.0363 21.0098 53.078 20.9316C53.1196 20.8535 53.1405 20.7598 53.1405 20.6504C53.1405 20.5202 53.1248 20.3952 53.0936 20.2754C53.0623 20.1556 53.0311 20.0514 52.9998 19.9629L52.4373 18.3613H48.5467ZM51.2733 14.7598C51.216 14.5775 51.1561 14.3874 51.0936 14.1895C51.0363 13.9863 50.9764 13.7806 50.9139 13.5723C50.8566 13.3639 50.7993 13.1582 50.742 12.9551C50.6899 12.7467 50.6431 12.5488 50.6014 12.3613C50.5545 12.5228 50.4998 12.6999 50.4373 12.8926C50.3748 13.0853 50.3071 13.2832 50.2342 13.4863C50.1665 13.6895 50.0962 13.8926 50.0233 14.0957C49.9556 14.2988 49.8905 14.4941 49.828 14.6816L48.8827 17.3848H52.117L51.2733 14.7598ZM76.378 21.002C76.7686 21.002 77.1149 20.9577 77.417 20.8691C77.7243 20.7754 77.9978 20.6556 78.2373 20.5098C78.4769 20.3639 78.6853 20.1999 78.8623 20.0176C79.0446 19.8353 79.2035 19.6556 79.3389 19.4785C79.4222 19.541 79.4873 19.6374 79.5342 19.7676C79.5863 19.8978 79.6123 20.0306 79.6123 20.166C79.6123 20.39 79.5524 20.627 79.4327 20.877C79.3129 21.1217 79.1123 21.3483 78.8311 21.5566C78.5498 21.765 78.1774 21.9368 77.7139 22.0723C77.2504 22.2077 76.6774 22.2754 75.9952 22.2754C75.0681 22.2754 74.2582 22.1348 73.5655 21.8535C72.8728 21.5723 72.2972 21.1738 71.8389 20.6582C71.3806 20.1426 71.0368 19.5228 70.8077 18.7988C70.5785 18.0749 70.4639 17.2728 70.4639 16.3926C70.4639 15.528 70.5811 14.7363 70.8155 14.0176C71.0498 13.2988 71.3962 12.6816 71.8545 12.166C72.3181 11.6504 72.8936 11.2493 73.5811 10.9629C74.2738 10.6764 75.0733 10.5332 75.9795 10.5332C76.5941 10.5332 77.128 10.5827 77.5811 10.6816C78.0394 10.7754 78.4196 10.9056 78.7217 11.0723C79.0238 11.2389 79.2504 11.4368 79.4014 11.666C79.5524 11.89 79.628 12.1322 79.628 12.3926C79.628 12.5905 79.5837 12.7754 79.4952 12.9473C79.4118 13.1139 79.2842 13.2598 79.1123 13.3848C78.9457 13.5098 78.7373 13.6087 78.4873 13.6816C78.2373 13.7493 77.9509 13.7832 77.628 13.7832C77.628 13.5176 77.5993 13.2546 77.542 12.9941C77.4847 12.7285 77.3858 12.4889 77.2452 12.2754C77.1097 12.0618 76.9301 11.89 76.7061 11.7598C76.4821 11.6243 76.2035 11.5566 75.8702 11.5566C75.3649 11.5566 74.9379 11.6634 74.5889 11.877C74.2399 12.0905 73.9587 12.403 73.7452 12.8145C73.5368 13.2259 73.3858 13.7337 73.292 14.3379C73.1983 14.9368 73.1514 15.6217 73.1514 16.3926C73.1514 17.1634 73.2087 17.8379 73.3233 18.416C73.4379 18.9941 73.6228 19.4759 73.878 19.8613C74.1332 20.2415 74.4639 20.528 74.8702 20.7207C75.2816 20.9082 75.7842 21.002 76.378 21.002ZM99.5608 20.2285C99.5608 20.4577 99.5816 20.64 99.6233 20.7754C99.665 20.9108 99.7222 21.015 99.7952 21.0879C99.8733 21.1608 99.9618 21.2103 100.061 21.2363C100.16 21.2572 100.267 21.2676 100.381 21.2676H101.053V22.1191H95.5295V21.2676H96.2014C96.3212 21.2676 96.4306 21.2572 96.5295 21.2363C96.6285 21.2103 96.7144 21.1608 96.7873 21.0879C96.8603 21.015 96.9176 20.9108 96.9592 20.7754C97.0009 20.64 97.0217 20.4577 97.0217 20.2285V11.6738H95.7405C95.5009 11.6738 95.3004 11.6999 95.1389 11.752C94.9775 11.804 94.8446 11.8796 94.7405 11.9785C94.6415 12.0723 94.566 12.1895 94.5139 12.3301C94.467 12.4707 94.4332 12.6296 94.4123 12.8066L94.303 13.7988H93.2248L93.3108 10.6973H103.28L103.358 13.7988H102.287L102.17 12.8066C102.149 12.6296 102.113 12.4707 102.061 12.3301C102.014 12.1895 101.938 12.0723 101.834 11.9785C101.735 11.8796 101.605 11.804 101.444 11.752C101.282 11.6999 101.082 11.6738 100.842 11.6738H99.5608V20.2285ZM116.767 22.1191V21.2676H117.439C117.559 21.2676 117.668 21.2572 117.767 21.2363C117.866 21.2103 117.952 21.1608 118.025 21.0879C118.098 21.015 118.155 20.9108 118.197 20.7754C118.238 20.64 118.259 20.4577 118.259 20.2285V12.5879C118.259 12.3587 118.238 12.1764 118.197 12.041C118.155 11.9056 118.098 11.8014 118.025 11.7285C117.952 11.6556 117.866 11.6087 117.767 11.5879C117.668 11.5618 117.559 11.5488 117.439 11.5488H116.767V10.6973H122.29V11.5488H121.619C121.504 11.5488 121.395 11.5618 121.29 11.5879C121.192 11.6087 121.106 11.6556 121.033 11.7285C120.96 11.8014 120.902 11.9056 120.861 12.041C120.819 12.1764 120.798 12.3587 120.798 12.5879V20.2285C120.798 20.4577 120.819 20.64 120.861 20.7754C120.902 20.9108 120.96 21.015 121.033 21.0879C121.106 21.1608 121.192 21.2103 121.29 21.2363C121.395 21.2572 121.504 21.2676 121.619 21.2676H122.29V22.1191H116.767ZM147.255 16.3926C147.255 17.2728 147.135 18.0749 146.895 18.7988C146.661 19.5228 146.312 20.1426 145.848 20.6582C145.39 21.1738 144.825 21.5723 144.153 21.8535C143.486 22.1348 142.718 22.2754 141.848 22.2754C140.937 22.2754 140.14 22.1348 139.458 21.8535C138.781 21.5723 138.218 21.1738 137.77 20.6582C137.322 20.1426 136.986 19.5228 136.762 18.7988C136.538 18.0697 136.426 17.2624 136.426 16.377C136.426 15.4915 136.538 14.6895 136.762 13.9707C136.986 13.2467 137.322 12.6296 137.77 12.1191C138.223 11.6087 138.788 11.2155 139.465 10.9395C140.148 10.6582 140.947 10.5176 141.864 10.5176C142.728 10.5176 143.494 10.6582 144.161 10.9395C144.833 11.2155 145.398 11.6113 145.856 12.127C146.314 12.6374 146.661 13.2546 146.895 13.9785C147.135 14.6973 147.255 15.502 147.255 16.3926ZM139.114 16.3926C139.114 17.1582 139.163 17.8405 139.262 18.4395C139.361 19.0384 139.52 19.5462 139.739 19.9629C139.958 20.3743 140.239 20.6895 140.583 20.9082C140.932 21.127 141.353 21.2363 141.848 21.2363C142.348 21.2363 142.77 21.127 143.114 20.9082C143.463 20.6895 143.744 20.3743 143.958 19.9629C144.171 19.5462 144.325 19.0384 144.419 18.4395C144.518 17.8405 144.567 17.1582 144.567 16.3926C144.567 15.627 144.518 14.9447 144.419 14.3457C144.325 13.7467 144.171 13.2415 143.958 12.8301C143.744 12.4134 143.465 12.0983 143.122 11.8848C142.778 11.666 142.359 11.5566 141.864 11.5566C141.364 11.5566 140.939 11.666 140.59 11.8848C140.242 12.0983 139.958 12.4134 139.739 12.8301C139.52 13.2415 139.361 13.7467 139.262 14.3457C139.163 14.9447 139.114 15.627 139.114 16.3926ZM170.312 22.1191L164.07 13.3066V20.2285C164.07 20.4577 164.091 20.64 164.133 20.7754C164.18 20.9108 164.239 21.015 164.312 21.0879C164.385 21.1608 164.471 21.2103 164.57 21.2363C164.674 21.2572 164.781 21.2676 164.89 21.2676H165.562V22.1191H161.383V21.2676H162.055C162.169 21.2676 162.276 21.2572 162.375 21.2363C162.474 21.2103 162.56 21.1608 162.633 21.0879C162.711 21.015 162.771 20.9108 162.812 20.7754C162.854 20.64 162.875 20.4577 162.875 20.2285V12.5176C162.875 12.304 162.851 12.1348 162.805 12.0098C162.763 11.8796 162.703 11.7806 162.625 11.7129C162.552 11.6452 162.466 11.6009 162.367 11.5801C162.268 11.554 162.164 11.541 162.055 11.541H161.383V10.6973H164.937L170.586 18.6816V12.5176C170.586 12.304 170.562 12.1348 170.515 12.0098C170.474 11.8796 170.414 11.7806 170.336 11.7129C170.263 11.6452 170.177 11.6009 170.078 11.5801C169.979 11.554 169.875 11.541 169.765 11.541H169.094V10.6973H173.273V11.541H172.601C172.492 11.541 172.388 11.554 172.289 11.5801C172.19 11.6009 172.101 11.6478 172.023 11.7207C171.95 11.7936 171.893 11.8978 171.851 12.0332C171.81 12.1686 171.789 12.3509 171.789 12.5801V22.1191H170.312ZM215.014 16.3926C215.014 17.1426 214.928 17.8353 214.756 18.4707C214.589 19.1009 214.342 19.6608 214.014 20.1504C213.686 20.64 213.28 21.054 212.795 21.3926C212.311 21.7259 211.753 21.9681 211.123 22.1191C211.17 22.7077 211.267 23.1895 211.412 23.5645C211.558 23.9447 211.735 24.2415 211.944 24.4551C212.157 24.6738 212.392 24.8249 212.647 24.9082C212.902 24.9915 213.162 25.0332 213.428 25.0332H213.686V25.9629H212.537C212.058 25.9629 211.584 25.8926 211.115 25.752C210.652 25.6113 210.23 25.3874 209.85 25.0801C209.475 24.778 209.16 24.3874 208.905 23.9082C208.655 23.4342 208.503 22.8587 208.451 22.1816C207.733 22.0723 207.105 21.8561 206.569 21.5332C206.037 21.2051 205.595 20.791 205.24 20.291C204.886 19.791 204.621 19.2103 204.444 18.5488C204.272 17.8874 204.186 17.1634 204.186 16.377C204.186 15.4915 204.298 14.6895 204.522 13.9707C204.746 13.2467 205.082 12.6296 205.53 12.1191C205.983 11.6087 206.548 11.2155 207.225 10.9395C207.907 10.6582 208.707 10.5176 209.623 10.5176C210.488 10.5176 211.253 10.6582 211.92 10.9395C212.592 11.2155 213.157 11.6113 213.615 12.127C214.074 12.6374 214.42 13.2546 214.655 13.9785C214.894 14.6973 215.014 15.502 215.014 16.3926ZM206.873 16.3926C206.873 17.1582 206.923 17.8405 207.022 18.4395C207.121 19.0384 207.28 19.5462 207.498 19.9629C207.717 20.3743 207.998 20.6895 208.342 20.9082C208.691 21.127 209.113 21.2363 209.608 21.2363C210.108 21.2363 210.53 21.127 210.873 20.9082C211.222 20.6895 211.503 20.3743 211.717 19.9629C211.931 19.5462 212.084 19.0384 212.178 18.4395C212.277 17.8405 212.326 17.1582 212.326 16.3926C212.326 15.627 212.277 14.9447 212.178 14.3457C212.084 13.7467 211.931 13.2415 211.717 12.8301C211.503 12.4134 211.225 12.0983 210.881 11.8848C210.537 11.666 210.118 11.5566 209.623 11.5566C209.123 11.5566 208.699 11.666 208.35 11.8848C208.001 12.0983 207.717 12.4134 207.498 12.8301C207.28 13.2415 207.121 13.7467 207.022 14.3457C206.923 14.9447 206.873 15.627 206.873 16.3926ZM240.392 11.541H239.705C239.595 11.541 239.491 11.554 239.392 11.5801C239.293 11.6009 239.205 11.6478 239.126 11.7207C239.053 11.7936 238.996 11.8978 238.955 12.0332C238.913 12.1686 238.892 12.3509 238.892 12.5801V18.8223C238.892 19.3587 238.814 19.8405 238.658 20.2676C238.507 20.6947 238.267 21.0566 237.939 21.3535C237.616 21.6504 237.202 21.8796 236.697 22.041C236.192 22.1973 235.59 22.2754 234.892 22.2754C234.194 22.2754 233.569 22.2103 233.017 22.0801C232.47 21.9447 232.007 21.7311 231.626 21.4395C231.246 21.1478 230.955 20.7728 230.751 20.3145C230.553 19.8509 230.455 19.291 230.455 18.6348V12.5176C230.455 12.304 230.431 12.1348 230.384 12.0098C230.343 11.8796 230.283 11.7806 230.205 11.7129C230.132 11.6452 230.046 11.6009 229.947 11.5801C229.853 11.554 229.751 11.541 229.642 11.541H228.955V10.6973H234.47V11.541H233.798C233.689 11.541 233.585 11.554 233.486 11.5801C233.387 11.6009 233.298 11.6478 233.22 11.7207C233.147 11.7936 233.09 11.8978 233.048 12.0332C233.007 12.1686 232.986 12.3509 232.986 12.5801V18.7598C232.986 19.2077 233.04 19.5853 233.15 19.8926C233.264 20.1947 233.426 20.4395 233.634 20.627C233.843 20.8092 234.093 20.9421 234.384 21.0254C234.676 21.1035 235.004 21.1426 235.369 21.1426C235.723 21.1426 236.043 21.0983 236.33 21.0098C236.616 20.916 236.858 20.7728 237.056 20.5801C237.259 20.3874 237.415 20.1426 237.525 19.8457C237.634 19.5488 237.689 19.1973 237.689 18.791V12.5176C237.689 12.304 237.668 12.1348 237.626 12.0098C237.585 11.8796 237.525 11.7806 237.447 11.7129C237.374 11.6452 237.288 11.6009 237.189 11.5801C237.09 11.554 236.986 11.541 236.876 11.541H236.205V10.6973H240.392V11.541ZM253.895 22.1191V21.2676H254.567C254.687 21.2676 254.796 21.2572 254.895 21.2363C254.994 21.2103 255.08 21.1608 255.153 21.0879C255.226 21.015 255.283 20.9108 255.325 20.7754C255.367 20.64 255.387 20.4577 255.387 20.2285V12.5879C255.387 12.3587 255.367 12.1764 255.325 12.041C255.283 11.9056 255.226 11.8014 255.153 11.7285C255.08 11.6556 254.994 11.6087 254.895 11.5879C254.796 11.5618 254.687 11.5488 254.567 11.5488H253.895V10.6973H259.419V11.5488H258.747C258.632 11.5488 258.523 11.5618 258.419 11.5879C258.32 11.6087 258.234 11.6556 258.161 11.7285C258.088 11.8014 258.031 11.9056 257.989 12.041C257.947 12.1764 257.926 12.3587 257.926 12.5879V20.2285C257.926 20.4577 257.947 20.64 257.989 20.7754C258.031 20.9108 258.088 21.015 258.161 21.0879C258.234 21.1608 258.32 21.2103 258.419 21.2363C258.523 21.2572 258.632 21.2676 258.747 21.2676H259.419V22.1191H253.895ZM282.273 11.5098L276.258 21.1426H279.711C280.039 21.1426 280.307 21.0983 280.515 21.0098C280.724 20.916 280.888 20.7936 281.008 20.6426C281.133 20.4915 281.221 20.3223 281.273 20.1348C281.331 19.9421 281.37 19.7441 281.39 19.541L281.469 18.8223H282.625L282.547 22.1191H273.344V21.3223L279.344 11.6738H276.195C275.945 11.6738 275.739 11.7077 275.578 11.7754C275.417 11.8431 275.286 11.9421 275.187 12.0723C275.094 12.1973 275.023 12.3509 274.976 12.5332C274.935 12.7103 274.903 12.9082 274.883 13.127L274.797 13.9941H273.648L273.726 10.6973H282.273V11.5098Z" fill="white"/>
<path d="M0.113249 3.17578L3 6.06253L5.88675 3.17578L3 0.28903L0.113249 3.17578ZM305.887 3.17578L303 0.28903L300.113 3.17578L303 6.06253L305.887 3.17578ZM3 3.67578H303V2.67578H3V3.67578Z" fill="#423B38"/>
<path d="M0.113249 28.8232L3 31.71L5.88675 28.8232L3 25.9365L0.113249 28.8232ZM305.887 28.8232L303 25.9365L300.113 28.8232L303 31.71L305.887 28.8232ZM3 29.3232H303V28.3232H3V29.3232Z" fill="#423B38"/>
</svg>
