<svg width="1440" height="969" viewBox="0 0 1440 969" fill="none" xmlns="http://www.w3.org/2000/svg">
<g style="mix-blend-mode:multiply" opacity="0.1">
<g style="mix-blend-mode:color-dodge">
<g filter="url(#filter0_d_152_5327)">
<path d="M377.494 63.9296C386.085 54.1911 407.667 43.6411 417.384 39.5834L445.001 22H334.535C286.666 53.3796 274.699 67.5364 274.699 70.6924C319.192 39.5834 311.521 70.6924 290.042 92.3335C272.858 109.646 264.471 99.5472 262.425 92.3335C241.969 112.622 197.987 155.634 185.713 165.372C173.439 175.111 144.8 217.221 132.014 237.058C132.014 214.335 140.197 187.915 144.288 177.545C130.48 195.129 98.5676 241.386 81.3841 285.751C64.2005 330.115 63.996 349.321 66.0416 353.379C53.7677 406.4 55.8133 446.706 58.3704 460.232L66.0416 421.007C72.69 398.465 85.0663 366.905 81.3841 421.007C77.7019 475.11 94.1695 534.623 102.864 557.617C102.864 526.508 116.672 499.456 116.672 489.988V460.232C116.672 451.575 126.9 436.787 132.014 430.475L144.288 392.603C132.014 403.424 125.877 399.366 116.672 403.424C109.307 406.67 104.398 397.563 102.864 392.603C101.329 360.142 147.357 283.046 156.562 265.462C163.927 251.395 179.064 236.156 185.713 230.295V211.359C196.964 198.285 226.524 166.184 254.754 142.378C290.042 112.622 294.644 120.737 274.699 142.378C258.743 159.691 246.571 185.661 242.48 196.481C257.209 169.43 309.987 122.09 334.535 101.801C323.284 110.819 302.929 125.066 311.521 109.917C322.261 90.9809 336.069 74.7501 365.22 54.4616C394.37 34.1731 366.754 76.1027 377.494 63.9296Z" fill="#A69580"/>
<path d="M377.494 63.9296C386.085 54.1911 407.667 43.6411 417.384 39.5834L445.001 22H334.535C286.666 53.3796 274.699 67.5364 274.699 70.6924C319.192 39.5834 311.521 70.6924 290.042 92.3335C272.858 109.646 264.471 99.5472 262.425 92.3335C241.969 112.622 197.987 155.634 185.713 165.372C173.439 175.111 144.8 217.221 132.014 237.058C132.014 214.335 140.197 187.915 144.288 177.545C130.48 195.129 98.5676 241.386 81.3841 285.751C64.2005 330.115 63.996 349.321 66.0416 353.379C53.7677 406.4 55.8133 446.706 58.3704 460.232L66.0416 421.007C72.69 398.465 85.0663 366.905 81.3841 421.007C77.7019 475.11 94.1695 534.623 102.864 557.617C102.864 526.508 116.672 499.456 116.672 489.988V460.232C116.672 451.575 126.9 436.787 132.014 430.475L144.288 392.603C132.014 403.424 125.877 399.366 116.672 403.424C109.307 406.67 104.398 397.563 102.864 392.603C101.329 360.142 147.357 283.046 156.562 265.462C163.927 251.395 179.064 236.156 185.713 230.295V211.359C196.964 198.285 226.524 166.184 254.754 142.378C290.042 112.622 294.644 120.737 274.699 142.378C258.743 159.691 246.571 185.661 242.48 196.481C257.209 169.43 309.987 122.09 334.535 101.801C323.284 110.819 302.929 125.066 311.521 109.917C322.261 90.9809 336.069 74.7501 365.22 54.4616C394.37 34.1731 366.754 76.1027 377.494 63.9296Z" stroke="#423B38"/>
</g>
<g filter="url(#filter1_d_152_5327)">
<path d="M317.728 979.723C326.311 989.437 347.87 999.96 357.577 1004.01L385.164 1021.55H274.814C226.995 990.247 215.041 976.125 215.041 972.977C259.487 1004.01 251.824 972.977 230.367 951.391C213.202 934.122 204.823 944.196 202.78 951.391C182.344 931.154 138.408 888.251 126.147 878.537C113.886 868.823 85.2767 826.819 72.5047 807.032C72.5047 829.698 80.6788 856.051 84.7658 866.394C70.972 848.855 39.093 802.714 21.9274 758.462C4.76171 714.21 4.55739 695.052 6.60094 691.005C-5.66018 638.118 -3.61668 597.913 -1.06228 584.422L6.60094 623.547C13.2424 646.033 25.6057 677.513 21.9274 623.547C18.249 569.581 34.6994 510.218 43.3844 487.283C43.3844 518.313 57.1782 545.296 57.1782 554.74V584.422C57.1782 593.056 67.3959 607.807 72.5047 614.103L84.7658 651.879C72.5046 641.086 66.3741 645.134 57.1782 641.086C49.8215 637.848 44.9171 646.932 43.3844 651.879C41.8518 684.259 87.8311 761.161 97.027 778.7C104.384 792.731 119.506 807.931 126.147 813.778V832.666C137.387 845.707 166.916 877.727 195.116 901.472C230.367 931.154 234.965 923.059 215.041 901.472C199.101 884.203 186.942 858.3 182.855 847.506C197.569 874.489 250.292 921.71 274.814 941.947C263.574 932.953 243.241 918.742 251.824 933.852C262.553 952.74 276.347 968.93 305.467 989.167C334.587 1009.4 306.999 967.581 317.728 979.723Z" fill="#A69580"/>
<path d="M317.728 979.723C326.311 989.437 347.87 999.96 357.577 1004.01L385.164 1021.55H274.814C226.995 990.247 215.041 976.125 215.041 972.977C259.487 1004.01 251.824 972.977 230.367 951.391C213.202 934.122 204.823 944.196 202.78 951.391C182.344 931.154 138.408 888.251 126.147 878.537C113.886 868.823 85.2767 826.819 72.5047 807.032C72.5047 829.698 80.6788 856.051 84.7658 866.394C70.972 848.855 39.093 802.714 21.9274 758.462C4.76171 714.21 4.55739 695.052 6.60094 691.005C-5.66018 638.118 -3.61668 597.913 -1.06228 584.422L6.60094 623.547C13.2424 646.033 25.6057 677.513 21.9274 623.547C18.249 569.581 34.6994 510.218 43.3844 487.283C43.3844 518.313 57.1782 545.296 57.1782 554.74V584.422C57.1782 593.056 67.3959 607.807 72.5047 614.103L84.7658 651.879C72.5046 641.086 66.3741 645.134 57.1782 641.086C49.8215 637.848 44.9171 646.932 43.3844 651.879C41.8518 684.259 87.8311 761.161 97.027 778.7C104.384 792.731 119.506 807.931 126.147 813.778V832.666C137.387 845.707 166.916 877.727 195.116 901.472C230.367 931.154 234.965 923.059 215.041 901.472C199.101 884.203 186.942 858.3 182.855 847.506C197.569 874.489 250.292 921.71 274.814 941.947C263.574 932.953 243.241 918.742 251.824 933.852C262.553 952.74 276.347 968.93 305.467 989.167C334.587 1009.4 306.999 967.581 317.728 979.723Z" stroke="#423B38"/>
</g>
<g filter="url(#filter2_d_152_5327)">
<path d="M102.863 188.366C72.1776 224.074 26.6616 320.466 7.73926 364.199L13.8762 312.802L27.6845 257.347L13.8762 277.635V178.898V130.361C12.9089 127.335 13.1617 122.442 13.8762 118.032V130.361C15.6783 135.998 21.715 135.153 36.8899 112.622C60.2105 77.9963 40.4699 85.5706 27.6845 93.686C36.2762 60.1424 53.7667 32.8205 61.4379 23.3525H190.315C162.698 38.2308 113.602 142.378 113.602 135.616V112.622C82.9173 139.673 66.0406 192.423 61.4379 215.417C61.7771 215.052 62.1259 214.687 62.4836 214.323C73.7736 202.84 93.9398 192.299 102.863 188.366Z" fill="#A69580"/>
<path d="M61.4379 215.417C61.7771 215.052 62.1259 214.687 62.4836 214.323M61.4379 215.417C50.3913 227.32 57.5323 219.647 62.4836 214.323M61.4379 215.417C66.0406 192.423 82.9173 139.673 113.602 112.622C113.602 118.032 113.602 130.205 113.602 135.616C113.602 142.378 162.698 38.2308 190.315 23.3525H61.4379C53.7667 32.8205 36.2762 60.1424 27.6845 93.686C40.4699 85.5706 60.2105 77.9963 36.8899 112.622C13.5694 147.248 11.8306 130.656 13.8762 118.032V178.898V277.635L27.6845 257.347L13.8762 312.802L7.73926 364.199C26.6616 320.466 72.1776 224.074 102.863 188.366C93.9398 192.299 73.7736 202.84 62.4836 214.323" stroke="#423B38"/>
</g>
<g filter="url(#filter3_d_152_5327)">
<path d="M164.233 783.496C126.184 762.937 104.398 696.48 98.2607 665.822C111.762 711.269 129.457 706.399 136.617 698.284C131.707 717.761 152.982 763.207 164.233 783.496Z" fill="#A69580"/>
<path d="M164.233 783.496C126.184 762.937 104.398 696.48 98.2607 665.822C111.762 711.269 129.457 706.399 136.617 698.284C131.707 717.761 152.982 763.207 164.233 783.496Z" stroke="#423B38"/>
</g>
</g>
<g style="mix-blend-mode:color-dodge">
<g filter="url(#filter4_d_152_5327)">
<path d="M1045.6 972.387C1035.73 982.052 1010.92 992.522 999.747 996.549L968 1014H1094.99C1150.01 982.857 1163.77 968.807 1163.77 965.675C1112.62 996.549 1121.44 965.675 1146.13 944.198C1165.89 927.015 1175.53 937.038 1177.88 944.198C1201.4 924.062 1251.96 881.375 1266.06 871.71C1280.17 862.045 1313.1 820.253 1327.79 800.566C1327.79 823.117 1318.39 849.338 1313.68 859.629C1329.56 842.179 1366.24 796.27 1386 752.241C1405.75 708.212 1405.98 689.15 1403.63 685.123C1417.74 632.503 1415.39 592.501 1412.45 579.077L1403.63 618.005C1395.99 640.378 1381.76 671.7 1386 618.005C1390.23 564.311 1371.3 505.248 1361.3 482.428C1361.3 513.302 1345.43 540.149 1345.43 549.545V579.077C1345.43 587.668 1333.67 602.345 1327.79 608.609L1313.68 646.195C1327.79 635.456 1334.85 639.483 1345.43 635.456C1353.9 632.234 1359.54 641.273 1361.3 646.195C1363.07 678.411 1310.16 754.926 1299.58 772.376C1291.11 786.337 1273.71 801.461 1266.06 807.277V826.07C1253.13 839.046 1219.15 870.905 1186.7 894.53C1146.13 924.062 1140.84 916.008 1163.77 894.53C1182.11 877.348 1196.1 851.575 1200.81 840.836C1183.88 867.683 1123.21 914.666 1094.99 934.801C1107.92 925.852 1131.32 911.713 1121.44 926.747C1109.1 945.54 1093.22 961.648 1059.71 981.783C1026.2 1001.92 1057.95 960.306 1045.6 972.387Z" fill="#A69580"/>
<path d="M1045.6 972.387C1035.73 982.052 1010.92 992.522 999.747 996.549L968 1014H1094.99C1150.01 982.857 1163.77 968.807 1163.77 965.675C1112.62 996.549 1121.44 965.675 1146.13 944.198C1165.89 927.015 1175.53 937.038 1177.88 944.198C1201.4 924.062 1251.96 881.375 1266.06 871.71C1280.17 862.045 1313.1 820.253 1327.79 800.566C1327.79 823.117 1318.39 849.338 1313.68 859.629C1329.56 842.179 1366.24 796.27 1386 752.241C1405.75 708.212 1405.98 689.15 1403.63 685.123C1417.74 632.503 1415.39 592.501 1412.45 579.077L1403.63 618.005C1395.99 640.378 1381.76 671.7 1386 618.005C1390.23 564.311 1371.3 505.248 1361.3 482.428C1361.3 513.302 1345.43 540.149 1345.43 549.545V579.077C1345.43 587.668 1333.67 602.345 1327.79 608.609L1313.68 646.195C1327.79 635.456 1334.85 639.483 1345.43 635.456C1353.9 632.234 1359.54 641.273 1361.3 646.195C1363.07 678.411 1310.16 754.926 1299.58 772.376C1291.11 786.337 1273.71 801.461 1266.06 807.277V826.07C1253.13 839.046 1219.15 870.905 1186.7 894.53C1146.13 924.062 1140.84 916.008 1163.77 894.53C1182.11 877.348 1196.1 851.575 1200.81 840.836C1183.88 867.683 1123.21 914.666 1094.99 934.801C1107.92 925.852 1131.32 911.713 1121.44 926.747C1109.1 945.54 1093.22 961.648 1059.71 981.783C1026.2 1001.92 1057.95 960.306 1045.6 972.387Z" stroke="#423B38"/>
</g>
<g filter="url(#filter5_d_152_5327)">
<path d="M1114.31 63.5079C1104.44 53.8674 1079.66 43.4234 1068.5 39.4065L1036.78 22H1163.64C1218.61 53.064 1232.35 67.0785 1232.35 70.2027C1181.26 39.4065 1190.07 70.2027 1214.73 91.6262C1234.46 108.765 1244.1 98.7673 1246.45 91.6262C1269.94 111.711 1320.44 154.29 1334.54 163.93C1348.63 173.571 1381.52 215.257 1396.2 234.895C1396.2 212.401 1386.81 186.246 1382.11 175.981C1397.97 193.387 1434.61 239.18 1454.34 283.098C1474.08 327.016 1474.31 346.029 1471.96 350.046C1486.06 402.534 1483.71 442.435 1480.77 455.825L1471.96 416.995C1464.33 394.678 1450.12 363.436 1454.34 416.995C1458.57 470.553 1439.66 529.468 1429.68 552.23C1429.68 521.434 1413.82 494.655 1413.82 485.282V455.825C1413.82 447.255 1402.08 432.616 1396.2 426.367L1382.11 388.876C1396.2 399.588 1403.25 395.571 1413.82 399.588C1422.28 402.802 1427.92 393.786 1429.68 388.876C1431.44 356.741 1378.58 280.42 1368.01 263.014C1359.56 249.088 1342.17 234.003 1334.54 228.201V209.455C1321.62 196.512 1287.67 164.734 1255.25 141.168C1214.73 111.711 1209.45 119.744 1232.35 141.168C1250.67 158.307 1264.65 184.015 1269.35 194.726C1252.44 167.947 1191.83 121.083 1163.64 100.999C1176.56 109.925 1199.93 124.029 1190.07 109.033C1177.73 90.2872 1161.88 74.2196 1128.4 54.1352C1094.93 34.0507 1126.64 75.5586 1114.31 63.5079Z" fill="#A69580"/>
<path d="M1114.31 63.5079C1104.44 53.8674 1079.66 43.4234 1068.5 39.4065L1036.78 22H1163.64C1218.61 53.064 1232.35 67.0785 1232.35 70.2027C1181.26 39.4065 1190.07 70.2027 1214.73 91.6262C1234.46 108.765 1244.1 98.7673 1246.45 91.6262C1269.94 111.711 1320.44 154.29 1334.54 163.93C1348.63 173.571 1381.52 215.257 1396.2 234.895C1396.2 212.401 1386.81 186.246 1382.11 175.981C1397.97 193.387 1434.61 239.18 1454.34 283.098C1474.08 327.016 1474.31 346.029 1471.96 350.046C1486.06 402.534 1483.71 442.435 1480.77 455.825L1471.96 416.995C1464.33 394.678 1450.12 363.436 1454.34 416.995C1458.57 470.553 1439.66 529.468 1429.68 552.23C1429.68 521.434 1413.82 494.655 1413.82 485.282V455.825C1413.82 447.255 1402.08 432.616 1396.2 426.367L1382.11 388.876C1396.2 399.588 1403.25 395.571 1413.82 399.588C1422.28 402.802 1427.92 393.786 1429.68 388.876C1431.44 356.741 1378.58 280.42 1368.01 263.014C1359.56 249.088 1342.17 234.003 1334.54 228.201V209.455C1321.62 196.512 1287.67 164.734 1255.25 141.168C1214.73 111.711 1209.45 119.744 1232.35 141.168C1250.67 158.307 1264.65 184.015 1269.35 194.726C1252.44 167.947 1191.83 121.083 1163.64 100.999C1176.56 109.925 1199.93 124.029 1190.07 109.033C1177.73 90.2872 1161.88 74.2196 1128.4 54.1352C1094.93 34.0507 1126.64 75.5586 1114.31 63.5079Z" stroke="#423B38"/>
</g>
<g filter="url(#filter6_d_152_5327)">
<path d="M1361.31 848.89C1396.58 813.452 1448.9 717.787 1470.65 674.384L1463.6 725.393L1447.73 780.43L1463.6 760.295V858.286V906.457C1464.71 909.46 1464.42 914.316 1463.6 918.692V906.457C1461.53 900.862 1454.59 901.701 1437.14 924.062C1410.34 958.426 1433.03 950.909 1447.73 942.855C1437.85 976.145 1417.74 1003.26 1408.92 1012.66H1260.77C1292.52 997.891 1348.96 894.53 1348.96 901.242V924.062C1384.23 897.215 1403.63 844.863 1408.92 822.043C1408.53 822.406 1408.13 822.768 1407.72 823.129C1394.74 834.525 1371.56 844.987 1361.31 848.89Z" fill="#A69580"/>
<path d="M1408.92 822.043C1408.53 822.406 1408.13 822.768 1407.72 823.129M1408.92 822.043C1421.62 810.23 1413.41 817.845 1407.72 823.129M1408.92 822.043C1403.63 844.863 1384.23 897.215 1348.96 924.062C1348.96 918.692 1348.96 906.611 1348.96 901.242C1348.96 894.53 1292.52 997.891 1260.77 1012.66H1408.92C1417.74 1003.26 1437.85 976.145 1447.73 942.855C1433.03 950.909 1410.34 958.426 1437.14 924.062C1463.95 889.698 1465.95 906.164 1463.6 918.692V858.286V760.295L1447.73 780.43L1463.6 725.393L1470.65 674.384C1448.9 717.787 1396.58 813.452 1361.31 848.89C1371.56 844.987 1394.74 834.525 1407.72 823.129" stroke="#423B38"/>
</g>
<g filter="url(#filter7_d_152_5327)">
<path d="M1290.76 258.254C1334.5 278.658 1359.54 344.612 1366.6 375.039C1351.08 329.936 1330.73 334.768 1322.5 342.823C1328.15 323.493 1303.69 278.39 1290.76 258.254Z" fill="#A69580"/>
<path d="M1290.76 258.254C1334.5 278.658 1359.54 344.612 1366.6 375.039C1351.08 329.936 1330.73 334.768 1322.5 342.823C1328.15 323.493 1303.69 278.39 1290.76 258.254Z" stroke="#423B38"/>
</g>
<g filter="url(#filter8_d_152_5327)">
<path d="M1268 18.9085C1315.32 28.3612 1355.29 86.498 1369.36 114.385C1343.59 74.2469 1324.97 83.764 1318.89 93.5397C1319.79 73.4229 1285.33 35.4036 1268 18.9085Z" fill="#A69580"/>
<path d="M1268 18.9085C1315.32 28.3612 1355.29 86.498 1369.36 114.385C1343.59 74.2469 1324.97 83.764 1318.89 93.5397C1319.79 73.4229 1285.33 35.4036 1268 18.9085Z" stroke="#423B38"/>
</g>
</g>
</g>
<defs>
<filter id="filter0_d_152_5327" x="55.9307" y="21.5" width="391.786" height="537.293" filterUnits="userSpaceOnUse" color-interpolation-filters="sRGB">
<feFlood flood-opacity="0" result="BackgroundImageFix"/>
<feColorMatrix in="SourceAlpha" type="matrix" values="0 0 0 0 0 0 0 0 0 0 0 0 0 0 0 0 0 0 127 0" result="hardAlpha"/>
<feOffset dx="1" dy="1"/>
<feComposite in2="hardAlpha" operator="out"/>
<feColorMatrix type="matrix" values="0 0 0 0 0.258824 0 0 0 0 0.231373 0 0 0 0 0.219608 0 0 0 1 0"/>
<feBlend mode="normal" in2="BackgroundImageFix" result="effect1_dropShadow_152_5327"/>
<feBlend mode="normal" in="SourceGraphic" in2="effect1_dropShadow_152_5327" result="shape"/>
</filter>
<filter id="filter1_d_152_5327" x="-3.5" y="487.105" width="391.383" height="535.941" filterUnits="userSpaceOnUse" color-interpolation-filters="sRGB">
<feFlood flood-opacity="0" result="BackgroundImageFix"/>
<feColorMatrix in="SourceAlpha" type="matrix" values="0 0 0 0 0 0 0 0 0 0 0 0 0 0 0 0 0 0 127 0" result="hardAlpha"/>
<feOffset dx="1" dy="1"/>
<feComposite in2="hardAlpha" operator="out"/>
<feColorMatrix type="matrix" values="0 0 0 0 0.258824 0 0 0 0 0.231373 0 0 0 0 0.219608 0 0 0 1 0"/>
<feBlend mode="normal" in2="BackgroundImageFix" result="effect1_dropShadow_152_5327"/>
<feBlend mode="normal" in="SourceGraphic" in2="effect1_dropShadow_152_5327" result="shape"/>
</filter>
<filter id="filter2_d_152_5327" x="7.24316" y="22.8525" width="184.309" height="342.546" filterUnits="userSpaceOnUse" color-interpolation-filters="sRGB">
<feFlood flood-opacity="0" result="BackgroundImageFix"/>
<feColorMatrix in="SourceAlpha" type="matrix" values="0 0 0 0 0 0 0 0 0 0 0 0 0 0 0 0 0 0 127 0" result="hardAlpha"/>
<feOffset dx="1" dy="1"/>
<feComposite in2="hardAlpha" operator="out"/>
<feColorMatrix type="matrix" values="0 0 0 0 0.258824 0 0 0 0 0.231373 0 0 0 0 0.219608 0 0 0 1 0"/>
<feBlend mode="normal" in2="BackgroundImageFix" result="effect1_dropShadow_152_5327"/>
<feBlend mode="normal" in="SourceGraphic" in2="effect1_dropShadow_152_5327" result="shape"/>
</filter>
<filter id="filter3_d_152_5327" x="97.7705" y="665.68" width="68.7295" height="120.068" filterUnits="userSpaceOnUse" color-interpolation-filters="sRGB">
<feFlood flood-opacity="0" result="BackgroundImageFix"/>
<feColorMatrix in="SourceAlpha" type="matrix" values="0 0 0 0 0 0 0 0 0 0 0 0 0 0 0 0 0 0 127 0" result="hardAlpha"/>
<feOffset dx="1" dy="1"/>
<feComposite in2="hardAlpha" operator="out"/>
<feColorMatrix type="matrix" values="0 0 0 0 0.258824 0 0 0 0 0.231373 0 0 0 0 0.219608 0 0 0 1 0"/>
<feBlend mode="normal" in2="BackgroundImageFix" result="effect1_dropShadow_152_5327"/>
<feBlend mode="normal" in="SourceGraphic" in2="effect1_dropShadow_152_5327" result="shape"/>
</filter>
<filter id="filter4_d_152_5327" x="967.76" y="482.227" width="448.422" height="533.273" filterUnits="userSpaceOnUse" color-interpolation-filters="sRGB">
<feFlood flood-opacity="0" result="BackgroundImageFix"/>
<feColorMatrix in="SourceAlpha" type="matrix" values="0 0 0 0 0 0 0 0 0 0 0 0 0 0 0 0 0 0 127 0" result="hardAlpha"/>
<feOffset dx="1" dy="1"/>
<feComposite in2="hardAlpha" operator="out"/>
<feColorMatrix type="matrix" values="0 0 0 0 0.258824 0 0 0 0 0.231373 0 0 0 0 0.219608 0 0 0 1 0"/>
<feBlend mode="normal" in2="BackgroundImageFix" result="effect1_dropShadow_152_5327"/>
<feBlend mode="normal" in="SourceGraphic" in2="effect1_dropShadow_152_5327" result="shape"/>
</filter>
<filter id="filter5_d_152_5327" x="1036.54" y="21.5" width="447.956" height="531.931" filterUnits="userSpaceOnUse" color-interpolation-filters="sRGB">
<feFlood flood-opacity="0" result="BackgroundImageFix"/>
<feColorMatrix in="SourceAlpha" type="matrix" values="0 0 0 0 0 0 0 0 0 0 0 0 0 0 0 0 0 0 127 0" result="hardAlpha"/>
<feOffset dx="1" dy="1"/>
<feComposite in2="hardAlpha" operator="out"/>
<feColorMatrix type="matrix" values="0 0 0 0 0.258824 0 0 0 0 0.231373 0 0 0 0 0.219608 0 0 0 1 0"/>
<feBlend mode="normal" in2="BackgroundImageFix" result="effect1_dropShadow_152_5327"/>
<feBlend mode="normal" in="SourceGraphic" in2="effect1_dropShadow_152_5327" result="shape"/>
</filter>
<filter id="filter6_d_152_5327" x="1260.56" y="674.16" width="211.586" height="339.997" filterUnits="userSpaceOnUse" color-interpolation-filters="sRGB">
<feFlood flood-opacity="0" result="BackgroundImageFix"/>
<feColorMatrix in="SourceAlpha" type="matrix" values="0 0 0 0 0 0 0 0 0 0 0 0 0 0 0 0 0 0 127 0" result="hardAlpha"/>
<feOffset dx="1" dy="1"/>
<feComposite in2="hardAlpha" operator="out"/>
<feColorMatrix type="matrix" values="0 0 0 0 0.258824 0 0 0 0 0.231373 0 0 0 0 0.219608 0 0 0 1 0"/>
<feBlend mode="normal" in2="BackgroundImageFix" result="effect1_dropShadow_152_5327"/>
<feBlend mode="normal" in="SourceGraphic" in2="effect1_dropShadow_152_5327" result="shape"/>
</filter>
<filter id="filter7_d_152_5327" x="1289.4" y="257.07" width="78.6807" height="119.132" filterUnits="userSpaceOnUse" color-interpolation-filters="sRGB">
<feFlood flood-opacity="0" result="BackgroundImageFix"/>
<feColorMatrix in="SourceAlpha" type="matrix" values="0 0 0 0 0 0 0 0 0 0 0 0 0 0 0 0 0 0 127 0" result="hardAlpha"/>
<feOffset dx="1" dy="1"/>
<feComposite in2="hardAlpha" operator="out"/>
<feColorMatrix type="matrix" values="0 0 0 0 0.258824 0 0 0 0 0.231373 0 0 0 0 0.219608 0 0 0 1 0"/>
<feBlend mode="normal" in2="BackgroundImageFix" result="effect1_dropShadow_152_5327"/>
<feBlend mode="normal" in="SourceGraphic" in2="effect1_dropShadow_152_5327" result="shape"/>
</filter>
<filter id="filter8_d_152_5327" x="1266.4" y="18.0801" width="104.406" height="97.5752" filterUnits="userSpaceOnUse" color-interpolation-filters="sRGB">
<feFlood flood-opacity="0" result="BackgroundImageFix"/>
<feColorMatrix in="SourceAlpha" type="matrix" values="0 0 0 0 0 0 0 0 0 0 0 0 0 0 0 0 0 0 127 0" result="hardAlpha"/>
<feOffset dx="1" dy="1"/>
<feComposite in2="hardAlpha" operator="out"/>
<feColorMatrix type="matrix" values="0 0 0 0 0.258824 0 0 0 0 0.231373 0 0 0 0 0.219608 0 0 0 1 0"/>
<feBlend mode="normal" in2="BackgroundImageFix" result="effect1_dropShadow_152_5327"/>
<feBlend mode="normal" in="SourceGraphic" in2="effect1_dropShadow_152_5327" result="shape"/>
</filter>
</defs>
</svg>
