<svg width="38" height="37" viewBox="0 0 38 37" fill="none" xmlns="http://www.w3.org/2000/svg">
<path d="M18.5887 36.998L0.0917969 18.995L18.5887 0.998047L37.0856 18.995L18.5887 36.998ZM2.29587 18.995L18.5949 34.8535L34.8939 18.995L18.5949 3.13654L2.29587 18.995Z" fill="#433B36"/>
<path d="M13.0941 15.384C11.3531 16.171 11.0135 19.0483 12.3347 21.8115C13.6559 24.5748 16.1317 26.1726 17.8727 25.3857C19.0951 24.8331 19.6199 23.2532 19.3729 21.4031L18.4901 21.4331C18.4345 22.184 18.1258 22.7787 17.5763 23.025C16.5515 23.4875 15.0821 22.5444 14.3042 20.9165C13.5263 19.2826 13.7239 17.5826 14.7549 17.1201C15.3044 16.8738 15.9711 17.03 16.5947 17.4685L17.1936 16.8317C15.9032 15.4561 14.3165 14.8314 13.0941 15.384Z" fill="#433B36"/>
<path d="M11.0751 12.7598C8.32155 14.0032 7.78442 18.5565 9.87119 22.9176C11.958 27.2847 15.8784 29.8137 18.6319 28.5702C20.7681 27.6031 21.5583 24.6536 20.8422 21.3438L19.9346 21.3738C20.2742 23.5724 19.6753 25.4706 18.2306 26.1253C16.2303 27.0324 13.3779 25.1883 11.8654 22.0166C10.3466 18.8449 10.7417 15.535 12.742 14.6279C14.1806 13.9792 16.0636 14.7541 17.57 16.424L18.1812 15.7693C16.0389 13.1082 13.2051 11.7986 11.0751 12.7598Z" fill="#433B36"/>
<path d="M15.1678 17.9853C14.4393 18.3157 14.2973 19.5171 14.853 20.6644C15.4024 21.8178 16.4396 22.4846 17.162 22.1542C17.4336 22.028 17.625 21.7817 17.73 21.4574L16.2421 21.5114L15.0814 19.0846L16.0877 18.0093C15.7667 17.8832 15.4457 17.8652 15.1678 17.9853Z" fill="#433B36"/>
<path d="M18.941 30.6185C21.6514 29.3931 22.6022 25.5606 21.5588 21.3257L21.1822 21.3377C21.9601 24.8638 21.1204 28.0175 18.8546 29.0447C15.9405 30.3602 11.7917 27.6811 9.58146 23.0617C7.37122 18.4363 7.94539 13.6187 10.8533 12.3031C13.1253 11.2759 16.1381 12.6816 18.4101 15.5349L18.6632 15.2646C16.5271 12.4353 13.755 10.7473 11.341 10.8374L6.84027 15.2165C6.3587 17.4992 6.73531 20.4126 8.01947 23.2899L15.78 30.8408C16.8975 31.0991 17.9779 31.057 18.941 30.6185Z" fill="#433B36"/>
<path d="M21.1686 17.8118L19.6992 14.7422L15.4824 19.2535L16.3715 21.1156L22.6379 20.8813L21.1686 17.8118Z" fill="#433B36"/>
<path d="M21.1699 17.0843L21.4601 17.679L21.7441 18.2797L30.511 15.4204L28.0414 13.0176L21.1699 17.0843Z" fill="#433B36"/>
</svg>
