<svg width="37" height="37" viewBox="0 0 37 37" fill="none" xmlns="http://www.w3.org/2000/svg">
<path d="M18.1119 0.578125C18.1971 0.669473 18.2702 0.766911 18.3615 0.852169C24.1956 6.69236 30.0358 12.5265 35.876 18.3606C36.1074 18.592 36.1014 18.7016 35.8699 18.9269C30.0176 24.7671 24.1713 30.6073 18.3372 36.4597C18.118 36.6789 18.0083 36.6667 17.8013 36.4536C11.9611 30.6012 6.1148 24.7549 0.262433 18.9208C0.0249283 18.6894 0.0431979 18.5798 0.268523 18.3484C6.12089 12.5143 11.9611 6.668 17.8074 0.82172C17.8865 0.742552 17.9657 0.657293 18.0388 0.578125C18.0631 0.578125 18.0875 0.578125 18.1119 0.578125ZM18.1301 34.5414C18.1971 34.4561 18.2519 34.3526 18.3311 34.2734C23.4466 29.1518 28.5682 24.0302 33.6959 18.9208C33.9334 18.6894 33.9151 18.5798 33.6898 18.3545C28.5682 13.2512 23.4588 8.13566 18.3555 3.02017C18.1362 2.80093 18.0327 2.77048 17.7952 3.00799C12.6858 8.13566 7.5642 13.2572 2.43652 18.3667C2.22337 18.5798 2.21119 18.6894 2.43043 18.9087C7.5642 24.0302 12.6919 29.1579 17.8195 34.2856C17.8683 34.3343 17.9109 34.383 17.9657 34.4257C17.9962 34.4561 18.0388 34.4805 18.1301 34.5414Z" fill="#433B36"/>
<path d="M20.2883 14.4214C20.2883 16.291 20.2822 18.1667 20.2944 20.0363C20.2944 20.2981 20.2153 20.4747 20.0326 20.6513C19.4357 21.2299 18.845 21.8206 18.2604 22.4174C18.1142 22.5636 18.029 22.6001 17.8646 22.4296C17.2434 21.7902 16.61 21.1629 15.9767 20.5417C15.8671 20.4321 15.8184 20.3164 15.8184 20.1581C15.8244 16.3275 15.8244 12.4909 15.8184 8.66038C15.8184 8.51423 15.861 8.40461 15.9645 8.30108C16.6161 7.66164 17.2617 7.01611 17.9011 6.3645C18.0351 6.22443 18.1082 6.23052 18.2421 6.3645C18.8633 7.00394 19.4966 7.63119 20.13 8.25236C20.2701 8.38634 20.2883 8.53249 20.2883 8.7091C20.2883 10.6091 20.2883 12.5153 20.2883 14.4214Z" fill="#433B36"/>
<path d="M18.0775 25.9551C18.0227 25.9125 17.9679 25.8699 17.9253 25.8273C16.5672 24.4692 15.2153 23.1173 13.8572 21.7653C13.7415 21.6496 13.7476 21.5765 13.8633 21.4669C14.1556 21.1868 14.454 20.9066 14.722 20.6021C14.8803 20.4255 14.9717 20.4682 15.1178 20.6143C16.0191 21.5278 16.9387 22.4291 17.8339 23.3487C18.0227 23.5435 18.1201 23.5314 18.3089 23.3426C19.1981 22.4291 20.1115 21.54 21.0067 20.6326C21.1712 20.4682 21.2686 20.4438 21.433 20.6265C21.6949 20.9188 21.9811 21.1929 22.2674 21.4669C22.4013 21.5948 22.3892 21.6679 22.2613 21.7897C20.9093 23.1355 19.5634 24.4814 18.2176 25.8333C18.175 25.8699 18.1323 25.9064 18.0775 25.9551Z" fill="#433B36"/>
<path d="M17.1451 26.0052C17.3887 26.2549 17.6384 26.4924 17.8759 26.7481C18.0099 26.9004 18.1012 26.9187 18.2474 26.7542C18.4849 26.4863 18.7467 26.2427 19.0634 25.9199C19.0634 26.1087 19.0634 26.2061 19.0634 26.2975C19.0634 27.4667 19.0573 28.636 19.0695 29.8114C19.0695 30.0245 19.0086 30.1707 18.8563 30.3107C18.6371 30.5056 18.4361 30.7187 18.2352 30.9319C18.1134 31.0659 18.0159 31.0659 17.9124 30.9258C17.8941 30.9014 17.8698 30.871 17.8393 30.8527C17.1938 30.396 16.9928 29.7931 17.0477 29.0014C17.1207 28.0209 17.0659 27.0283 17.0659 26.0417C17.0903 26.0295 17.1146 26.0174 17.1451 26.0052Z" fill="#433B36"/>
</svg>
