<svg width="37" height="37" viewBox="0 0 37 37" fill="none" xmlns="http://www.w3.org/2000/svg">
<path d="M18.0888 0.998047L0.0917969 18.995L18.0888 36.992L36.0858 18.995L18.0888 0.998047ZM2.2363 18.995L18.0948 3.13654L33.9533 18.995L18.0948 34.8535L2.2363 18.995Z" fill="#433B36"/>
<path d="M12.8868 12.6753L10.8864 11.5039L10.2617 13.7385L12.2621 14.9039L12.8868 12.6753Z" fill="#433B36"/>
<path d="M18.0234 29.1221L11.9503 25.572L9.29523 19.0244L10.1422 15.9788L13.4881 17.9311L14.5273 14.2007L15.6206 14.8375L16.2393 13.6361L13.6984 12.1523L12.6592 15.8827L9.31325 13.9304L7.93164 18.8802L11.0733 26.6232L18.8524 31.1645L20.5644 25.0434L19.2609 24.695L18.0234 29.1221Z" fill="#433B36"/>
<path d="M19.584 18.3213L19.3737 17.8047L19.1875 18.3213H19.584Z" fill="#433B36"/>
<path d="M9.97266 19.0964L12.3815 25.0494L17.6076 28.0949L18.6047 24.5268L14.1956 23.3614L12.9461 20.0035L13.5889 18.7661L10.5553 17L9.97266 19.0964Z" fill="#433B36"/>
<path d="M28.5464 23.0551L23.5065 16.4293L23.3563 19.1625H17.986L21.9146 8.31988L20.6291 6.98633L13.8652 20.0636L14.8324 22.6586L22.6895 24.731L21.8726 27.3981L28.5464 23.0551Z" fill="#433B36"/>
<path d="M14.9415 15.2227L14.3828 17.229L15.3079 15.4389L14.9415 15.2227Z" fill="#433B36"/>
</svg>
