<svg width="37" height="38" viewBox="0 0 37 38" fill="none" xmlns="http://www.w3.org/2000/svg">
<path d="M18.0888 0.998047L0.0917969 19.495L18.0888 37.9919L36.0858 19.495L18.0888 0.998047ZM2.2363 19.495L18.0948 3.19594L33.9533 19.495L18.0948 35.794L2.2363 19.495Z" fill="#433B36"/>
<path d="M27.4833 21.1872C27.4833 21.6688 27.1049 22.0639 26.6303 22.0639C26.1558 22.0639 25.7773 21.675 25.7773 21.1872C25.7773 20.7057 26.1558 20.3105 26.6303 20.3105C27.1049 20.3105 27.4833 20.7057 27.4833 21.1872Z" fill="#433B36"/>
<path d="M23.8134 16.9079C23.8134 17.3895 23.435 17.7846 22.9604 17.7846C22.4859 17.7846 22.1074 17.3957 22.1074 16.9079C22.1074 16.4264 22.4859 16.0312 22.9604 16.0312C23.435 16.0312 23.8134 16.4264 23.8134 16.9079Z" fill="#433B36"/>
<path d="M31.5681 19.4261L21.3021 8.875L21.7887 10.9247L16.01 10.0542L20.8156 13.7277L18.6591 14.0055L20.6834 14.8637L14.7064 15.8762L20.0647 17.7469L5.75 19.4261L20.1668 21.4018L16.8029 24.0627L21.2721 23.0564L16.3163 29.1747L22.053 25.6741L20.5152 28.5326L22.5396 26.841L20.9718 30.6626L31.5681 19.4261ZM28.1802 21.1857C28.1802 22.1859 27.3932 22.9946 26.4261 22.9946C25.453 22.9946 24.6661 22.1859 24.6661 21.1857C24.6661 20.1917 25.453 19.3768 26.4261 19.3768C27.3932 19.3768 28.1802 20.1855 28.1802 21.1857ZM26.7925 15.728L23.4406 22.3711H22.4555L25.8074 15.728H26.7925ZM20.9958 16.9072C20.9958 15.907 21.7827 15.1044 22.7558 15.1044C23.729 15.1044 24.5099 15.9132 24.5099 16.9072C24.5099 17.9074 23.723 18.7161 22.7558 18.7161C21.7827 18.71 20.9958 17.9074 20.9958 16.9072Z" fill="#433B36"/>
</svg>
