<svg width="37" height="38" viewBox="0 0 37 38" fill="none" xmlns="http://www.w3.org/2000/svg">
<path d="M25.1546 21.001C24.3564 21.2036 24.3257 22.3026 24.295 23.3648C24.2766 24.0586 24.252 24.7094 24.0371 25.1576C25.1668 24.2244 26.4255 22.7447 26.8246 20.5957C26.9106 20.1352 26.972 19.7116 27.0211 19.3125C26.8 19.8037 26.2536 20.7247 25.1546 21.001Z" fill="#433B36"/>
<path d="M22.7658 15.3163C23.0052 14.4015 23.828 13.8612 24.7919 13.5419C24.1534 13.3946 23.2999 13.2718 22.207 13.2227C22.2807 13.3823 22.5754 14.1436 22.6552 15.6725C22.6982 15.5497 22.7351 15.4453 22.7658 15.3163Z" fill="#433B36"/>
<path d="M22.6498 17.2927C22.6437 17.3418 22.6314 17.3848 22.6191 17.4339C22.6253 17.4585 22.6253 17.4892 22.6314 17.5199C22.7112 17.44 22.7911 17.3602 22.8832 17.2866C24.5593 15.9481 26.432 17.2436 26.9969 17.5935L27.0153 17.3909C27.089 15.3279 26.6837 14.4868 26.6837 14.4868C26.6837 14.4868 26.3276 14.0816 25.1242 13.75C24.0866 14.0447 23.1779 14.5666 22.9323 15.4876C22.8525 15.7884 22.7665 16.0524 22.6805 16.298C22.6805 16.5252 22.6805 16.7585 22.6744 17.0164L22.6498 17.2927Z" fill="#433B36"/>
<path d="M19.6973 26.1649C20.1455 26.4289 20.4463 26.5517 20.4463 26.5517H21.1586H21.8769C21.8769 26.5517 22.1778 26.4289 22.626 26.1649C22.5953 25.907 22.5032 25.6921 22.3313 25.5264C21.9076 25.1089 21.1647 25.1211 21.1647 25.1211C21.1647 25.1211 20.7288 25.115 20.3297 25.2992C20.1516 25.5141 19.9613 25.7228 19.7648 25.9255C19.7402 25.9991 19.7095 26.0789 19.6973 26.1649Z" fill="#433B36"/>
<path d="M24.9764 20.7257C26.3702 20.3757 26.8368 18.8592 26.843 18.8407L26.8552 18.7978L26.9596 18.4723C26.9719 18.3004 26.9903 18.1408 26.9965 17.9812C24.7923 16.5997 23.4538 17.0172 22.631 18.0119C22.6249 18.1162 22.6187 18.2145 22.6065 18.325C22.6003 18.3925 22.588 18.4601 22.5696 18.5215L22.5144 18.6872C22.5512 18.7364 22.5696 18.8039 22.5942 18.8592C24.1476 16.8637 25.7317 18.1961 25.7317 18.1961C25.4983 18.1162 25.4799 18.2267 25.4799 18.2267C24.3809 19.8292 22.6679 19.0311 22.6679 19.0311C22.6617 19.0311 22.6617 19.0372 22.6556 19.0433C22.674 19.1354 22.6863 19.2337 22.674 19.3381C22.6126 19.817 22.5389 20.3327 22.4346 20.8853C22.1767 22.2852 21.6057 23.593 20.7461 24.7657C20.9303 24.735 21.0899 24.7166 21.1575 24.7166C21.3294 24.7227 22.0232 24.7595 22.4407 25.1709C22.6249 25.349 22.7354 25.57 22.7784 25.834C22.9626 25.7235 23.1713 25.5823 23.3862 25.4288L23.5704 25.2446L23.6502 25.1402C23.945 24.7473 23.9634 23.9859 23.9879 23.243C24.0186 22.1194 24.0555 20.9528 24.9764 20.7257Z" fill="#433B36"/>
<path d="M11.5614 26.0421C11.3096 25.5202 11.2851 24.7588 11.2605 23.9484C11.2237 22.7081 11.1807 21.4249 10.2536 21.1916C8.97036 20.8662 8.33181 19.7917 8.08008 19.2207C8.13534 19.6812 8.21515 20.1785 8.31339 20.7188C8.77388 23.2239 10.2413 24.9492 11.5614 26.0421Z" fill="#433B36"/>
<path d="M18.2656 26.0421C18.5174 25.5202 18.5419 24.7588 18.5665 23.9484C18.6033 22.7081 18.6463 21.4249 19.5734 21.1916C20.8566 20.8662 21.4952 19.7917 21.7469 19.2207C21.6917 19.6812 21.6118 20.1785 21.5136 20.7188C21.0593 23.2239 19.5857 24.9492 18.2656 26.0421Z" fill="#433B36"/>
<path d="M15.1411 12.0742C15.4358 12.2584 15.9639 12.7619 15.9639 14.0574C15.9639 15.8011 15.006 16.4212 14.9692 16.4458L14.9201 16.4765L14.871 16.4458C14.828 16.4212 13.8763 15.8011 13.8763 14.0574C13.8763 12.7619 14.4043 12.2584 14.6991 12.0742C12.9185 12.0865 11.6169 12.2584 10.6836 12.4794C11.8072 12.854 12.765 13.4864 13.0474 14.5547C13.7228 17.115 14.7236 17.7659 14.9201 17.8702C15.1166 17.7659 16.1235 17.115 16.7927 14.5547C17.0752 13.4925 18.033 12.854 19.1566 12.4794C18.2172 12.2646 16.9217 12.0926 15.1411 12.0742Z" fill="#433B36"/>
<path d="M21.3548 13.59C21.3548 13.59 20.9435 13.1173 19.5313 12.7305C18.3217 13.0743 17.2596 13.6821 16.9771 14.7566C16.2035 17.6976 15.0001 18.2011 14.951 18.2195L14.9141 18.2318L14.8773 18.2195C14.8282 18.2011 13.6248 17.6976 12.8511 14.7566C12.5687 13.6821 11.5065 13.0743 10.297 12.7305C8.89094 13.1173 8.47343 13.59 8.47343 13.59C8.47343 13.59 8.00066 14.5724 8.08662 16.9792L8.10504 17.2126C8.762 16.8012 10.9478 15.2908 12.9064 16.8503C14.865 18.4098 14.8343 22.3455 14.8343 22.3455H14.9141H14.9939C14.9939 22.3455 14.9632 18.416 16.9219 16.8503C18.8805 15.2908 21.0663 16.8012 21.7232 17.2126L21.7416 16.9792C21.8276 14.5663 21.3548 13.59 21.3548 13.59Z" fill="#433B36"/>
<path d="M16.2828 26.4663C15.7855 25.9813 14.9259 25.9874 14.9198 25.9936C14.9136 25.9936 14.054 25.9813 13.5567 26.4663C13.3602 26.6628 13.2497 26.9145 13.2129 27.2154C13.7348 27.5224 14.0847 27.6636 14.0847 27.6636H14.9198H15.7548C15.7548 27.6636 16.1048 27.5162 16.6266 27.2154C16.5898 26.9145 16.4793 26.6628 16.2828 26.4663Z" fill="#433B36"/>
<path d="M15.123 22.8491H14.9143H14.7055C14.7055 22.8491 14.595 13.5964 8.11133 17.661C8.12361 17.839 8.13589 18.0355 8.15431 18.232L8.2771 18.6126L8.28938 18.6618C8.29552 18.6802 8.83583 20.4485 10.4629 20.8598C11.5312 21.13 11.5742 22.4869 11.6172 23.8008C11.6417 24.6604 11.6724 25.5507 12.0101 26.0112L12.1022 26.134L12.3171 26.3489C12.5689 26.5269 12.8083 26.6927 13.0232 26.8216C13.0723 26.5146 13.2013 26.2568 13.4162 26.048C13.9073 25.5691 14.7178 25.52 14.9143 25.52C15.1169 25.5261 15.9274 25.5691 16.4124 26.048C16.6212 26.2568 16.7562 26.5146 16.8054 26.8216C17.0203 26.6927 17.2597 26.5269 17.5114 26.3489L17.7263 26.134L17.8184 26.0112C18.1623 25.5507 18.1868 24.6604 18.2114 23.8008C18.2482 22.4869 18.2912 21.13 19.3657 20.8598C20.9927 20.4485 21.5392 18.6802 21.5392 18.6618L21.5515 18.6126L21.6743 18.232C21.6927 18.0355 21.7111 17.839 21.7172 17.661C15.2336 13.6025 15.123 22.8491 15.123 22.8491ZM13.7784 19.988C13.7784 19.988 13.6311 19.1529 13.1583 18.8951C13.1583 18.8951 11.1628 19.8345 9.8796 17.9618C9.8796 17.9618 9.86119 17.8329 9.58489 17.925C9.58489 17.925 11.611 16.2058 13.5021 19.0424C13.5021 19.0363 13.8337 19.552 13.7784 19.988ZM19.9551 17.9557C18.6719 19.8283 16.6764 18.8889 16.6764 18.8889C16.2037 19.1529 16.0563 19.988 16.0563 19.988C16.001 19.5582 16.3264 19.0363 16.3264 19.0363C18.2175 16.1997 20.2437 17.9188 20.2437 17.9188C19.9735 17.8267 19.9551 17.9557 19.9551 17.9557Z" fill="#433B36"/>
<path d="M14.9134 12.3262C14.7292 12.4121 14.1152 12.7744 14.1152 14.0699C14.1152 15.2794 14.6924 15.918 14.9134 16.1145C15.1344 15.918 15.7116 15.2794 15.7116 14.0699C15.7116 12.7805 15.0976 12.4121 14.9134 12.3262ZM14.9134 14.7821C14.5573 14.7821 14.2687 14.4935 14.2687 14.1374C14.2687 13.7813 14.5573 13.4927 14.9134 13.4927C15.2695 13.4927 15.5581 13.7813 15.5581 14.1374C15.5642 14.4935 15.2695 14.7821 14.9134 14.7821Z" fill="#433B36"/>
<path d="M15.301 14.131C15.301 14.3458 15.129 14.5178 14.9142 14.5178C14.6993 14.5178 14.5273 14.3458 14.5273 14.131C14.5273 13.9161 14.6993 13.7441 14.9142 13.7441C15.129 13.7441 15.301 13.9222 15.301 14.131Z" fill="#433B36"/>
<path d="M29.5507 20.7324C28.9429 20.8859 28.9183 21.7271 28.8937 22.5376C28.8753 23.0656 28.863 23.5629 28.6973 23.9006C29.5568 23.1884 30.5208 22.0587 30.8217 20.4255C30.8831 20.0755 30.9322 19.7501 30.9751 19.4492C30.8032 19.8176 30.3919 20.5237 29.5507 20.7324Z" fill="#433B36"/>
<path d="M29.2744 15.045C28.8814 14.9529 28.3718 14.8731 27.7578 14.8301C27.8254 15.1248 27.8867 15.4993 27.9236 15.9844C28.206 15.5362 28.7033 15.2353 29.2744 15.045Z" fill="#433B36"/>
<path d="M27.9492 17.4277L27.9308 17.6733C27.9308 17.7101 27.9124 17.7408 27.9062 17.7715C27.9124 17.7961 27.9063 17.8207 27.9124 17.8452C29.1649 16.9427 30.5341 17.8759 30.9578 18.1338L30.97 17.9803C31.0253 16.4085 30.7183 15.7638 30.7183 15.7638C30.7183 15.7638 30.4481 15.4568 29.5272 15.2051C28.8088 15.4077 28.1948 15.7638 27.9431 16.3532C27.9554 16.6786 27.9615 17.0225 27.9492 17.4277Z" fill="#433B36"/>
<path d="M25.9663 24.962H26.5127H27.0592C27.0592 24.962 27.2864 24.8699 27.6302 24.6673C27.6118 24.4709 27.5381 24.3051 27.4092 24.1823C27.0837 23.863 26.525 23.8691 26.5189 23.8691C26.5189 23.8691 26.4882 23.8691 26.4698 23.8691C26.2426 24.2068 25.997 24.5261 25.7207 24.8392C25.8681 24.9191 25.9663 24.962 25.9663 24.962Z" fill="#433B36"/>
<path d="M29.4153 20.5221C30.4775 20.2519 30.8336 19.0976 30.8336 19.0854L30.8459 19.0547L30.9257 18.8091C30.938 18.6801 30.9502 18.5512 30.9564 18.4345C29.5135 17.5258 28.5618 17.6486 27.9233 18.1767C27.9172 18.2995 27.9049 18.4284 27.8926 18.5573C27.8865 18.6249 27.8742 18.6924 27.8496 18.7538L27.8189 18.8398C28.9302 17.6978 29.9863 18.588 29.9863 18.588C29.8082 18.5328 29.7959 18.6126 29.7959 18.6126C29.1942 19.4844 28.3654 19.423 27.9417 19.3125C27.9417 19.3494 27.954 19.3862 27.9479 19.423C27.8987 19.8344 27.8312 20.2765 27.7391 20.7554C27.5549 21.7501 27.1865 22.6956 26.6523 23.5674C26.8672 23.5859 27.2356 23.6595 27.4874 23.9051C27.6286 24.0402 27.7084 24.2121 27.7452 24.4086C27.8865 24.3227 28.04 24.2183 28.2057 24.1016L28.3469 23.9604L28.4083 23.8806C28.6294 23.5797 28.6478 23.0026 28.6662 22.4377C28.6846 21.5843 28.7153 20.694 29.4153 20.5221Z" fill="#433B36"/>
<path d="M18.4868 37.7942L0.0917969 19.393L18.4868 0.998047L36.8818 19.393L18.4868 37.7942ZM2.28372 19.393L18.4929 35.6022L34.7021 19.393L18.4929 3.18383L2.28372 19.393Z" fill="#433B36"/>
</svg>
