<svg width="871" height="799" viewBox="0 0 871 799" fill="none" xmlns="http://www.w3.org/2000/svg">
<mask id="path-1-inside-1_2855_105549" fill="white">
<path fill-rule="evenodd" clip-rule="evenodd" d="M423.273 0H0V799H871V0H448.184L435.729 12.4558L423.273 0Z"/>
</mask>
<path fill-rule="evenodd" clip-rule="evenodd" d="M423.273 0H0V799H871V0H448.184L435.729 12.4558L423.273 0Z" fill="#D9D4C5"/>
<path d="M0 0V-9H-9V0H0ZM423.273 0L429.637 -6.36397L427.001 -9H423.273V0ZM0 799H-9V808H0V799ZM871 799V808H880V799H871ZM871 0H880V-9H871V0ZM448.184 0V-9H444.456L441.82 -6.36397L448.184 0ZM435.729 12.4558L429.365 18.8198L435.729 25.1838L442.092 18.8198L435.729 12.4558ZM0 9H423.273V-9H0V9ZM9 799V0H-9V799H9ZM871 790H0V808H871V790ZM862 0V799H880V0H862ZM448.184 9H871V-9H448.184V9ZM441.82 -6.36397L429.365 6.09188L442.092 18.8198L454.548 6.36397L441.82 -6.36397ZM442.092 6.09188L429.637 -6.36397L416.909 6.36397L429.365 18.8198L442.092 6.09188Z" fill="#A59480" mask="url(#path-1-inside-1_2855_105549)"/>
<path fill-rule="evenodd" clip-rule="evenodd" d="M420.001 9H9V237H862V9H450.265L450.528 9.20885L435.396 21.23L420.001 9Z" fill="#423B38"/>
<path d="M55.7144 754.461L37.2344 762.941L45.7144 744.461L55.7144 744.461L55.7144 754.461Z" fill="#A59480"/>
<path d="M33.1659 767.01L39.6359 752.91L31.8359 745.12L31.8359 768.34L55.0559 768.34L47.2659 760.54L33.1659 767.01Z" fill="#A59480"/>
<path d="M25.965 774.211L25.965 737.001L23.525 739.441L20.125 780.051L60.465 776.671L62.925 774.211L25.965 774.211Z" fill="#A59480"/>
<path d="M829.461 744.461L837.941 762.941L819.461 754.461L819.461 744.461L829.461 744.461Z" fill="#A59480"/>
<path d="M842.01 767.01L827.91 760.54L820.12 768.34L843.34 768.34L843.34 745.12L835.54 752.91L842.01 767.01Z" fill="#A59480"/>
<path d="M849.211 774.211L812.001 774.211L814.441 776.651L855.051 780.051L851.671 739.711L849.211 737.251L849.211 774.211Z" fill="#A59480"/>
</svg>
