<svg width="37" height="37" viewBox="0 0 37 37" fill="none" xmlns="http://www.w3.org/2000/svg">
<path d="M0.0978868 18.5798C0.371931 18.3118 0.645976 18.0439 0.91393 17.7698C6.55925 12.1306 12.1985 6.48531 17.8438 0.84608C17.929 0.760821 18.0143 0.669473 18.0996 0.578125C18.1422 0.578125 18.1909 0.578125 18.2335 0.578125C24.159 6.50357 30.0783 12.4229 36.0099 18.3423C36.2352 18.5676 36.2535 18.6955 36.016 18.933C30.1575 24.7793 24.3051 30.6317 18.465 36.4901C18.197 36.7581 18.063 36.6667 17.8499 36.4536C12.0584 30.656 6.26084 24.8585 0.463279 19.0609C0.341482 18.9391 0.219684 18.8295 0.0917969 18.7138C0.0978868 18.6712 0.0978868 18.6224 0.0978868 18.5798ZM18.1787 2.84965C18.0265 2.90446 17.9473 3.02017 17.856 3.1176C12.7831 8.18438 7.71023 13.2572 2.63737 18.3301C2.32678 18.6407 2.32678 18.6407 2.63128 18.9513C7.71023 24.0302 12.7892 29.1092 17.8681 34.1882C18.1726 34.4926 18.1726 34.4926 18.4893 34.176C23.55 29.1153 28.6168 24.0485 33.6775 18.9878C34.0185 18.6468 34.0185 18.6468 33.6653 18.2936C28.6168 13.239 23.5683 8.19047 18.5259 3.14805C18.4528 3.07497 18.3858 3.0019 18.3066 2.93491C18.264 2.89837 18.2153 2.87401 18.1787 2.84965Z" fill="#433B36"/>
<path d="M28.2459 18.4655C28.2033 18.5933 28.0998 18.6664 28.0145 18.7517C24.8356 21.9367 21.6506 25.1156 18.4717 28.3067C18.2403 28.5381 18.1124 28.532 17.881 28.3067C15.6094 26.0169 13.3257 23.7393 11.042 21.4617C10.1224 20.5421 9.21506 19.6225 8.2894 18.7151C8.08843 18.5203 8.08843 18.3985 8.2894 18.1975C10.2747 16.2244 12.2539 14.2452 14.2209 12.266C14.4158 12.065 14.5376 12.065 14.7325 12.266C15.7739 13.3256 16.8396 14.367 17.881 15.4327C18.1063 15.6641 18.2342 15.7067 18.4838 15.4449C19.513 14.3852 20.5727 13.356 21.608 12.2964C21.815 12.0894 21.9368 12.0711 22.15 12.2903C24.1109 14.2695 26.084 16.2366 28.0571 18.2036C28.1363 18.2706 28.2337 18.3376 28.2459 18.4655Z" fill="#433B36"/>
</svg>
