<svg width="254" height="254" viewBox="0 0 254 254" fill="none" xmlns="http://www.w3.org/2000/svg">
<g clip-path="url(#clip0_573_18189)">
<path fill-rule="evenodd" clip-rule="evenodd" d="M254 0H0V254H254V0ZM19.4028 33.0729H7.9375V220.927H19.8438V230.188L16.316 234.597L29.5451 236.361L30.2617 246.503H37.7031H67.4688H127H186.531H224.896V236.361L236.361 235.92L237.684 233.715L234.156 230.188V220.927H246.062V33.5139L234.597 33.0729V23.3715L237.684 20.7257L235.92 18.5208L224.896 17.6389L224.014 8.37847H186.531H127H67.4688H29.9861V18.9618H17.1979L19.4028 24.2535V33.0729Z" fill="#A69580"/>
<path d="M241.392 0.178128L241.214 0.000188404L241.036 0.178128H221.687H217.164L12.9642 0.177939L12.7862 0L12.6081 0.177939H0V215.683V216.548V253.822H12.6081L12.7862 254L12.9642 253.822H32.3126H36.8363L241.036 253.822L241.214 254L241.392 253.822H254V217.976V215.684V0.178128H241.392ZM241.968 2.42801H251.748V11.79L247.009 7.05453L241.707 12.3523L236.872 7.52011L241.968 2.42801ZM245.526 218.593V219.61H233.028V230.835L236.132 233.937L234.868 235.201V234.953H223.029V244.587H218.766H217.315L30.9709 244.587V234.953H19.1321V235.201L17.8676 233.937L20.9723 230.835V219.61H8.47397V217.166V215.068V34.392H20.9723V23.1668L17.8676 20.0646L19.1321 18.8011V19.0489H30.9709V9.41398H35.2343H36.685L223.029 9.41417V19.0483H234.868V18.8005L236.132 20.064L233.028 23.1662V34.3913H245.526V215.067V218.593ZM235.279 229.902V221.859H245.526V223.479L239.622 229.378L245.753 234.423L242.778 237.395L235.279 229.902ZM241.187 238.987L235.28 244.889L231.819 241.43L237.725 235.527L241.187 238.987ZM8.24629 234.423L14.3767 229.378L8.47315 223.479V221.859H18.7198V229.902L11.2208 237.396L8.24629 234.423ZM10.7004 240.057L6.99076 243.764L2.43054 239.207L2.25164 239.386V231.615L10.7004 240.057ZM16.2754 235.527L22.1823 241.429L18.7206 244.888L12.8138 238.986L16.2754 235.527ZM18.7206 24.098V32.1412H8.47397V30.5211L14.3775 24.6221L8.24709 19.5771L11.2216 16.6049L18.7206 24.098ZM12.813 15.0139L18.7198 9.11171L22.1814 12.5715L16.2746 18.4737L12.813 15.0139ZM231.818 12.5708L235.279 9.1119L241.186 15.0141L237.724 18.4731L231.818 12.5708ZM245.526 32.1414H235.279V24.0982L242.778 16.6042L245.753 19.5765L239.622 24.6215L245.526 30.5204V32.1414ZM243.3 13.9432L247.009 10.2364L251.569 14.7931L251.748 14.6143V22.3854L243.3 13.9432ZM238.783 2.42801L228.633 12.5708L232.863 16.7984H225.28V8.75518L231.611 2.4288L238.783 2.42801ZM217.164 2.42801H221.687H228.428L223.689 7.16344L36.6842 7.16325H35.2335H30.3114L25.5723 2.42782L217.164 2.42801ZM22.388 2.42782L28.7193 8.75419V16.7974H21.1357L25.3666 12.5698L15.2159 2.42703L22.388 2.42782ZM2.25164 2.42782H12.0324L17.1285 7.51993L12.2926 12.3521L6.99076 7.05435L2.25164 11.7898V2.42782ZM2.25164 14.615L2.42974 14.7929L6.99076 10.2362L10.7004 13.943L2.25164 22.3852V14.615ZM2.25164 215.683V25.5671L6.64679 21.1753L11.0314 24.783L6.22231 29.5883L6.22231 215.066V217.165V224.411L11.0322 229.216L6.64761 232.824L2.25246 228.432V216.548L2.25164 215.683ZM12.0324 251.572H2.25164V242.21L6.99076 246.946L12.2926 241.648L17.1285 246.48L12.0324 251.572ZM15.2159 251.572L25.3666 241.429L21.1357 237.202H28.7193V245.245L22.388 251.571L15.2159 251.572ZM36.8363 251.572H32.3126H25.5723L30.3114 246.837L217.315 246.837H218.766H223.689L228.428 251.572L36.8363 251.572ZM231.612 251.572L225.281 245.246V237.203H232.864L228.633 241.43L238.784 251.573L231.612 251.572ZM251.748 251.572H241.968L236.872 246.48L241.707 241.648L247.009 246.946L251.748 242.21V251.572ZM251.748 239.385L251.57 239.207L247.009 243.764L243.3 240.057L251.748 231.615V239.385ZM251.748 217.976V228.433L247.353 232.825L242.969 229.217L247.778 224.412V218.593V215.067V29.5893L242.968 24.784L247.352 21.1763L251.748 25.5681V215.684L251.748 217.976Z" fill="#423B38"/>
</g>
<defs>
<clipPath id="clip0_573_18189">
<rect width="254" height="254" fill="white"/>
</clipPath>
</defs>
</svg>
